<?xml version="1.0" standalone="no"?><!DOCTYPE svg PUBLIC "-//W3C//DTD SVG 1.1//EN" "http://www.w3.org/Graphics/SVG/1.1/DTD/svg11.dtd" ><svg xmlns="http://www.w3.org/2000/svg"><metadata></metadata><defs><font id="fonteditor" horiz-adv-x="1000"><font-face font-family="Source Han Sans CN Light" font-weight="300" font-stretch="normal" units-per-em="1000" panose-1="2 11 3 0 0 0 0 0 0 0" ascent="880" descent="-120" x-height="0" bbox="-38 -254 974 844" underline-thickness="50" underline-position="-125" unicode-range="U+0000-ff1f" /><missing-glyph horiz-adv-x="222"  /><glyph glyph-name="period" unicode="." d="M125 -13 Q104 -13 89 2 Q74 17 74 41 Q74 66 89 81 Q104 96 125 96 Q146 96 161 81 Q176 66 176 41 Q176 17 161 2 Q146 -13 125 -13 Z" /><glyph glyph-name="greater" unicode="&gt;" d="M37 212 L437 365 L437 370 L37 523 L37 577 L497 395 L497 340 L37 158 L37 212 Z" /><glyph glyph-name="A" unicode="a" d="M419 293 L375 425 Q337 532 295 675 L291 675 Q260 565 212 425 L167 293 L419 293 ZM435 245 L151 245 L68 0 L8 0 L263 729 L325 729 L580 0 L516 0 L435 245 Z" /><glyph glyph-name="B" unicode="b" d="M106 729 L307 729 Q550 729 550 552 Q550 427 438 393 L438 388 Q594 361 594 213 Q594 110 520 54 Q448 0 322 0 L106 0 L106 729 ZM288 411 Q490 411 490 545 Q490 617 440 650 Q394 680 294 680 L166 680 L166 411 L288 411 ZM308 50 Q535 50 535 213 Q535 363 308 363 L166 363 L166 50 L308 50 Z" /><glyph glyph-name="C" unicode="c" d="M368 -13 Q231 -13 147 89 Q60 192 60 365 Q60 538 148 641 Q234 742 374 742 Q491 742 566 654 L532 615 Q467 688 374 688 Q258 688 191 601 Q123 515 123 367 Q123 217 190 129 Q257 41 371 41 Q472 41 552 129 L586 91 Q496 -13 368 -13 Z" /><glyph glyph-name="D" unicode="d" d="M106 729 L278 729 Q443 729 529 632 Q612 538 612 367 Q612 195 529 100 Q443 0 279 0 L106 0 L106 729 ZM272 51 Q411 51 483 138 Q549 220 549 367 Q549 514 483 594 Q412 679 272 679 L166 679 L166 51 L272 51 Z" /><glyph glyph-name="E" unicode="e" d="M106 729 L509 729 L509 678 L166 678 L166 412 L455 412 L455 361 L166 361 L166 52 L520 52 L520 0 L106 0 L106 729 Z" /><glyph glyph-name="F" unicode="f" d="M106 729 L508 729 L508 678 L166 678 L166 397 L455 397 L455 346 L166 346 L166 0 L106 0 L106 729 Z" /><glyph glyph-name="G" unicode="g" d="M376 -13 Q234 -13 148 89 Q60 192 60 365 Q60 538 151 641 Q239 742 385 742 Q503 742 587 654 L552 615 Q484 688 386 688 Q265 688 194 601 Q123 515 123 367 Q123 216 191 129 Q260 41 382 41 Q485 41 537 93 L537 312 L368 312 L368 363 L595 363 L595 70 Q517 -13 376 -13 Z" /><glyph glyph-name="H" unicode="h" d="M106 729 L166 729 L166 413 L545 413 L545 729 L604 729 L604 0 L545 0 L545 361 L166 361 L166 0 L106 0 L106 729 Z" /><glyph glyph-name="I" unicode="i" d="M106 729 L166 729 L166 0 L106 0 L106 729 Z" /><glyph glyph-name="J" unicode="j" d="M227 -13 Q102 -13 42 96 L87 126 Q137 41 225 41 Q353 41 353 208 L353 729 L413 729 L413 202 Q413 -13 227 -13 Z" /><glyph glyph-name="K" unicode="k" d="M106 729 L166 729 L166 333 L168 333 L510 729 L581 729 L349 458 L614 0 L545 0 L309 411 L166 246 L166 0 L106 0 L106 729 Z" /><glyph glyph-name="L" unicode="l" d="M106 729 L166 729 L166 52 L498 52 L498 0 L106 0 L106 729 Z" /><glyph glyph-name="M" unicode="m" d="M106 729 L186 729 L393 150 L397 150 L451 310 L601 729 L681 729 L681 0 L624 0 L624 462 Q624 521 631 663 L627 663 L570 500 L417 78 L369 78 L215 500 L158 663 L154 663 Q161 521 161 462 L161 0 L106 0 L106 729 Z" /><glyph glyph-name="N" unicode="n" d="M106 729 L168 729 L466 228 L547 81 L552 81 Q544 225 544 297 L544 729 L601 729 L601 0 L539 0 L242 502 L160 648 L155 648 Q163 461 163 437 L163 0 L106 0 L106 729 Z" /><glyph glyph-name="O" unicode="o" d="M362 -13 Q228 -13 145 90 Q60 195 60 367 Q60 538 145 641 Q228 742 362 742 Q497 742 580 641 Q665 538 665 367 Q665 195 580 90 Q497 -13 362 -13 ZM362 41 Q471 41 537 130 Q603 219 603 367 Q603 515 537 602 Q471 688 362 688 Q253 688 189 602 Q123 515 123 367 Q123 219 189 130 Q254 41 362 41 Z" /><glyph glyph-name="P" unicode="p" d="M106 729 L295 729 Q561 729 561 524 Q561 417 491 361 Q423 308 299 308 L166 308 L166 0 L106 0 L106 729 ZM287 358 Q396 358 448 397 Q500 437 500 524 Q500 610 446 646 Q396 679 283 679 L166 679 L166 358 L287 358 Z" /><glyph glyph-name="Q" unicode="q" d="M123 367 Q123 217 189 128 Q254 38 362 38 Q471 38 537 128 Q603 217 603 367 Q603 515 537 602 Q471 688 362 688 Q253 688 189 602 Q123 515 123 367 ZM671 -161 Q634 -174 578 -174 Q395 -174 331 -11 Q209 1 136 102 Q60 205 60 367 Q60 538 145 641 Q228 742 362 742 Q497 742 580 641 Q665 538 665 367 Q665 207 591 104 Q518 3 397 -11 Q447 -121 584 -121 Q628 -121 658 -111 L671 -161 Z" /><glyph glyph-name="R" unicode="r" d="M166 379 L305 379 Q501 379 501 534 Q501 679 305 679 L166 679 L166 379 ZM509 0 L315 329 L166 329 L166 0 L106 0 L106 729 L319 729 Q562 729 562 534 Q562 362 380 334 L577 0 L509 0 Z" /><glyph glyph-name="S" unicode="s" d="M299 -13 Q148 -13 51 96 L88 138 Q174 41 299 41 Q379 41 427 80 Q474 118 474 181 Q474 241 437 276 Q412 299 345 329 L236 377 Q88 443 88 559 Q88 639 150 691 Q210 742 304 742 Q429 742 510 654 L476 615 Q405 688 304 688 Q234 688 192 654 Q149 620 149 564 Q149 481 273 427 L382 379 Q456 346 490 310 Q535 261 535 185 Q535 100 471 44 Q405 -13 299 -13 Z" /><glyph glyph-name="T" unicode="t" d="M261 678 L32 678 L32 729 L552 729 L552 678 L322 678 L322 0 L261 0 L261 678 Z" /><glyph glyph-name="U" unicode="u" d="M352 -13 Q103 -13 103 285 L103 729 L163 729 L163 288 Q163 41 352 41 Q545 41 545 288 L545 729 L602 729 L602 285 Q602 -13 352 -13 Z" /><glyph glyph-name="V" unicode="v" d="M4 729 L68 729 L274 66 L278 66 Q296 118 317 188 L485 729 L546 729 L309 0 L243 0 L4 729 Z" /><glyph glyph-name="W" unicode="w" d="M30 729 L92 729 L180 307 Q200 215 229 69 L233 69 Q251 149 289 307 L400 729 L459 729 L571 307 L627 69 L632 69 Q659 216 678 307 L766 729 L825 729 L665 0 L597 0 L468 487 L430 651 L426 651 Q420 622 406 570 Q392 514 386 487 L261 0 L193 0 L30 729 Z" /><glyph glyph-name="X" unicode="x" d="M236 377 L33 729 L99 729 L214 521 L273 420 L277 420 Q287 437 305 473 L446 729 L508 729 L305 374 L523 0 L458 0 L335 218 Q290 297 268 334 L264 334 Q213 236 203 218 L81 0 L19 0 L236 377 Z" /><glyph glyph-name="Y" unicode="y" d="M221 293 L2 729 L66 729 L211 427 Q234 378 249 348 L253 348 Q311 460 331 506 L438 729 L500 729 L281 293 L281 0 L221 0 L221 293 Z" /><glyph glyph-name="Z" unicode="z" d="M54 35 L466 678 L91 678 L91 729 L540 729 L540 694 L129 52 L545 52 L545 0 L54 0 L54 35 Z" /><glyph glyph-name="a" unicode="a" d="M218 -13 Q150 -13 108 23 Q63 63 63 134 Q63 221 145 269 Q224 314 403 335 Q407 496 281 496 Q194 496 113 435 L87 477 Q190 547 289 547 Q461 547 461 338 L461 0 L412 0 L406 68 L404 68 Q305 -13 218 -13 ZM230 36 Q308 36 403 119 L403 292 Q250 274 183 236 Q121 200 121 137 Q121 36 230 36 Z" /><glyph glyph-name="b" unicode="b" d="M314 -13 Q236 -13 156 54 L154 54 L147 0 L100 0 L100 795 L158 795 L158 567 L155 465 Q252 547 335 547 Q439 547 495 473 Q549 401 549 275 Q549 143 478 63 Q412 -13 314 -13 ZM309 38 Q388 38 437 103 Q487 169 487 275 Q487 496 324 496 Q251 496 158 411 L158 103 Q232 38 309 38 Z" /><glyph glyph-name="c" unicode="c" d="M300 -13 Q193 -13 126 60 Q56 136 56 266 Q56 395 130 473 Q200 547 303 547 Q386 547 459 482 L426 442 Q369 496 304 496 Q224 496 171 432 Q117 367 117 266 Q117 164 168 101 Q219 37 303 37 Q376 37 442 96 L470 56 Q391 -13 300 -13 Z" /><glyph glyph-name="d" unicode="d" d="M277 -13 Q175 -13 116 59 Q56 134 56 266 Q56 391 127 471 Q194 547 292 547 Q369 547 451 482 L447 578 L447 795 L505 795 L505 0 L457 0 L450 67 L448 67 Q368 -13 277 -13 ZM287 38 Q366 38 447 122 L447 430 Q373 496 298 496 Q221 496 170 430 Q118 364 118 266 Q118 161 162 100 Q207 38 287 38 Z" /><glyph glyph-name="e" unicode="e" d="M304 -13 Q198 -13 129 61 Q56 138 56 266 Q56 391 128 471 Q195 547 290 547 Q387 547 441 482 Q496 416 496 299 Q496 277 493 257 L115 257 Q117 159 171 98 Q224 36 310 36 Q386 36 452 82 L474 39 Q391 -13 304 -13 ZM443 303 Q443 398 402 448 Q362 497 291 497 Q223 497 175 446 Q123 392 115 303 L443 303 Z" /><glyph glyph-name="f" unicode="f" d="M312 744 Q279 759 249 759 Q167 759 167 642 L167 533 L288 533 L288 484 L167 484 L167 0 L109 0 L109 484 L35 484 L35 528 L109 533 L109 645 Q109 808 246 808 Q285 808 326 790 L312 744 Z" /><glyph glyph-name="g" unicode="g" d="M275 -254 Q175 -254 115 -215 Q55 -175 55 -108 Q55 -35 135 19 L135 24 Q87 52 87 110 Q87 165 146 209 L146 213 Q78 269 78 358 Q78 440 134 494 Q189 547 269 547 Q306 547 340 533 L522 533 L522 485 L402 485 Q457 437 457 357 Q457 275 402 222 Q349 169 269 169 Q221 169 183 191 Q141 158 141 117 Q141 50 241 50 L353 50 Q531 50 531 -73 Q531 -146 462 -198 Q388 -254 275 -254 ZM269 213 Q323 213 361 253 Q401 294 401 358 Q401 422 362 462 Q325 500 269 500 Q213 500 175 462 Q136 422 136 358 Q136 294 176 253 Q214 213 269 213 ZM282 -210 Q365 -210 421 -169 Q473 -132 473 -81 Q473 -3 352 -3 L243 -3 Q217 -3 176 6 Q110 -40 110 -101 Q110 -150 155 -180 Q201 -210 282 -210 Z" /><glyph glyph-name="h" unicode="h" d="M100 795 L158 795 L157 451 Q253 547 339 547 Q501 547 501 341 L501 0 L443 0 L443 333 Q443 495 326 495 Q251 495 158 399 L158 0 L100 0 L100 795 Z" /><glyph glyph-name="i" unicode="i" d="M100 533 L158 533 L158 0 L100 0 L100 533 ZM130 658 Q109 658 95 671 Q81 684 81 704 Q81 752 130 752 Q179 752 179 704 Q179 684 164 671 Q150 658 130 658 Z" /><glyph glyph-name="j" unicode="j" d="M33 -251 Q-8 -251 -38 -237 L-25 -191 Q6 -202 30 -202 Q71 -202 87 -170 Q100 -145 100 -88 L100 533 L159 533 L159 -90 Q159 -251 33 -251 ZM130 658 Q82 658 82 704 Q82 752 130 752 Q179 752 179 704 Q179 684 165 671 Q151 658 130 658 Z" /><glyph glyph-name="k" unicode="k" d="M100 795 L158 795 L158 219 L160 219 L415 533 L481 533 L307 322 L509 0 L445 0 L273 280 L158 144 L158 0 L100 0 L100 795 Z" /><glyph glyph-name="l" unicode="l" d="M171 -13 Q100 -13 100 79 L100 795 L158 795 L158 73 Q158 37 182 37 Q190 37 201 39 L210 -7 Q190 -13 171 -13 Z" /><glyph glyph-name="m" unicode="m" d="M100 533 L148 533 L155 452 L157 452 Q243 547 325 547 Q440 547 472 439 Q572 547 652 547 Q812 547 812 341 L812 0 L754 0 L754 333 Q754 495 639 495 Q571 495 485 399 L485 0 L427 0 L427 333 Q427 495 312 495 Q242 495 158 399 L158 0 L100 0 L100 533 Z" /><glyph glyph-name="n" unicode="n" d="M100 533 L148 533 L155 452 L157 452 Q254 547 339 547 Q501 547 501 341 L501 0 L443 0 L443 333 Q443 495 326 495 Q251 495 158 399 L158 0 L100 0 L100 533 Z" /><glyph glyph-name="o" unicode="o" d="M297 -13 Q196 -13 128 60 Q56 138 56 266 Q56 395 128 473 Q196 547 297 547 Q398 547 466 473 Q538 395 538 266 Q538 138 466 60 Q398 -13 297 -13 ZM297 37 Q376 37 427 101 Q478 165 478 266 Q478 367 427 432 Q376 496 297 496 Q219 496 168 432 Q117 367 117 266 Q117 165 168 101 Q218 37 297 37 Z" /><glyph glyph-name="p" unicode="p" d="M100 533 L148 533 L155 468 L157 468 Q260 547 335 547 Q439 547 495 473 Q549 401 549 275 Q549 143 478 63 Q412 -13 314 -13 Q241 -13 157 52 L158 -238 L100 -238 L100 533 ZM309 38 Q388 38 437 103 Q487 169 487 275 Q487 496 324 496 Q254 496 158 411 L158 103 Q235 38 309 38 Z" /><glyph glyph-name="q" unicode="q" d="M447 -35 L451 69 Q367 -13 277 -13 Q175 -13 116 59 Q56 134 56 266 Q56 391 127 471 Q194 547 292 547 Q371 547 449 483 L451 483 L458 533 L505 533 L505 -238 L447 -238 L447 -35 ZM287 38 Q366 38 447 122 L447 430 Q373 496 298 496 Q221 496 170 430 Q118 364 118 266 Q118 161 162 100 Q207 38 287 38 Z" /><glyph glyph-name="r" unicode="r" d="M100 533 L148 533 L155 434 L157 434 Q218 547 308 547 Q339 547 362 535 L350 483 Q327 492 301 492 Q211 492 158 358 L158 0 L100 0 L100 533 Z" /><glyph glyph-name="s" unicode="s" d="M231 -13 Q123 -13 35 60 L66 102 Q145 35 234 35 Q292 35 325 65 Q356 92 356 136 Q356 204 227 250 Q147 278 114 303 Q60 342 60 403 Q60 464 106 504 Q154 547 235 547 Q319 547 390 490 L360 450 Q296 498 233 498 Q177 498 146 470 Q118 445 118 406 Q118 367 157 341 Q179 325 242 302 Q330 269 359 248 Q414 207 414 139 Q414 75 367 32 Q316 -13 231 -13 Z" /><glyph glyph-name="t" unicode="t" d="M250 -13 Q113 -13 113 152 L113 484 L30 484 L30 528 L115 533 L122 687 L171 687 L171 533 L324 533 L324 484 L171 484 L171 148 Q171 37 260 37 Q289 37 325 52 L339 7 Q283 -13 250 -13 Z" /><glyph glyph-name="u" unicode="u" d="M253 -13 Q92 -13 92 192 L92 533 L150 533 L150 199 Q150 39 266 39 Q345 39 432 143 L432 533 L490 533 L490 0 L441 0 L436 88 L433 88 Q345 -13 253 -13 Z" /><glyph glyph-name="v" unicode="v" d="M13 533 L76 533 L191 206 Q223 107 244 52 L248 52 Q283 149 301 206 L417 533 L476 533 L280 0 L211 0 L13 533 Z" /><glyph glyph-name="w" unicode="w" d="M26 533 L88 533 L181 197 L215 52 L220 52 Q228 80 258 197 L353 533 L417 533 L512 197 Q535 107 551 52 L555 52 L592 197 L683 533 L740 533 L590 0 L515 0 L425 321 Q417 348 405 397 Q392 449 385 474 L380 474 Q358 378 339 319 L252 0 L182 0 L26 533 Z" /><glyph glyph-name="x" unicode="x" d="M195 279 L30 533 L94 533 L176 402 Q201 361 233 314 L237 314 L369 533 L430 533 L265 273 L445 0 L380 0 L289 141 Q263 189 228 238 L223 238 L77 0 L15 0 L195 279 Z" /><glyph glyph-name="y" unicode="y" d="M85 -240 Q52 -240 28 -229 L41 -180 Q63 -188 84 -188 Q171 -188 217 -53 L231 -8 L13 533 L76 533 L256 57 L261 57 L309 207 L418 533 L477 533 L269 -62 Q207 -240 85 -240 Z" /><glyph glyph-name="z" unicode="z" d="M32 31 L339 484 L65 484 L65 533 L414 533 L414 502 L107 50 L424 50 L424 0 L32 0 L32 31 Z" /><glyph glyph-name="uni3001" unicode="&#x3001;" d="M284 -48 Q178 82 59 176 L100 213 Q206 129 329 -10 L284 -48 Z" /><glyph glyph-name="uni3002" unicode="&#x3002;" d="M195 242 Q256 242 299 199 Q342 156 342 95 Q342 34 299 -9 Q256 -52 195 -52 Q134 -52 91 -9 Q48 34 48 95 Q48 156 91 199 Q134 242 195 242 ZM195 -13 Q240 -13 272 18 Q303 49 303 95 Q303 139 272 171 Q240 203 195 203 Q150 203 118 171 Q86 139 86 95 Q86 50 118 18 Q150 -13 195 -13 Z" /><glyph glyph-name="uni300C" unicode="&#x300c;" d="M656 842 L962 842 L962 796 L704 796 L704 191 L656 191 L656 842 Z" /><glyph glyph-name="uni300D" unicode="&#x300d;" d="M344 -82 L38 -82 L38 -36 L296 -36 L296 569 L344 569 L344 -82 Z" /><glyph glyph-name="uni2F00" unicode="&#x2f00;&#x4e00;" d="M954 416 L954 363 L49 363 L49 416 L954 416 Z" /><glyph glyph-name="uni4E0A" unicode="&#x4e0a;" d="M940 22 L940 -26 L57 -26 L57 22 L441 22 L441 816 L491 816 L491 496 L879 496 L879 448 L491 448 L491 22 L940 22 Z" /><glyph glyph-name="uni4E0D" unicode="&#x4e0d;&#xf967;" d="M603 712 Q575 662 524 590 L524 -72 L474 -72 L474 528 Q307 328 85 209 Q66 235 53 248 Q376 417 544 712 L74 712 L74 760 L927 760 L927 712 L603 712 ZM600 526 Q832 384 950 265 L914 229 Q791 355 566 495 L600 526 Z" /><glyph glyph-name="uni4E1F" unicode="&#x4e1f;" d="M453 328 Q335 151 234 48 L776 73 Q719 152 652 226 L697 246 Q847 86 917 -53 L869 -77 Q843 -24 806 30 Q188 -3 158 -14 Q153 14 143 38 Q166 42 214 96 Q296 175 392 328 L74 328 L74 374 L474 374 L474 529 L148 529 L148 575 L474 575 L474 723 L109 723 L109 768 L897 768 L897 723 L521 723 L521 575 L853 575 L853 529 L521 529 L521 374 L935 374 L935 328 L453 328 Z" /><glyph glyph-name="uni4E22" unicode="&#x4e22;" d="M938 326 L450 326 L473 315 Q349 140 239 34 L778 71 Q713 163 646 235 L691 254 Q845 87 911 -45 L863 -68 Q837 -16 805 30 Q187 -17 158 -29 Q155 -10 141 22 Q163 24 215 78 Q310 161 415 326 L63 326 L63 372 L476 372 L476 534 L149 534 L149 580 L476 580 L476 726 Q332 713 140 706 Q137 725 127 752 Q615 770 821 825 L857 781 Q727 749 524 730 L524 580 L852 580 L852 534 L524 534 L524 372 L938 372 L938 326 Z" /><glyph glyph-name="uni4E2A" unicode="&#x4e2a;" d="M476 556 L524 556 L524 -73 L476 -73 L476 556 ZM553 813 Q543 794 527 772 Q678 567 960 421 Q941 408 925 380 Q655 529 500 735 Q333 508 80 381 Q59 411 44 422 Q350 565 511 833 L553 813 Z" /><glyph glyph-name="uni4E2D" unicode="&#x4e2d;" d="M845 309 L845 604 L522 604 L522 309 L845 309 ZM473 309 L473 604 L150 604 L150 309 L473 309 ZM894 651 L894 201 L845 201 L845 262 L522 262 L522 -72 L473 -72 L473 262 L150 262 L150 196 L103 196 L103 651 L473 651 L473 832 L522 832 L522 651 L894 651 Z" /><glyph glyph-name="uni4E91" unicode="&#x4e91;" d="M836 696 L168 696 L168 745 L836 745 L836 696 ZM458 413 Q340 184 215 29 L776 78 Q698 195 632 284 L674 305 Q848 79 913 -49 L868 -75 Q842 -26 805 33 Q179 -24 146 -37 Q138 -4 128 17 Q152 22 202 95 Q300 215 394 413 L62 413 L62 461 L940 461 L940 413 L458 413 Z" /><glyph glyph-name="uni2F08" unicode="&#x2f08;&#x4eba;" d="M529 828 Q526 721 523 691 Q601 132 956 -26 Q935 -42 921 -65 Q607 79 503 542 Q422 100 90 -68 Q78 -51 53 -33 Q469 170 478 828 L529 828 Z" /><glyph glyph-name="uni4ECE" unicode="&#x4ece;" d="M465 162 Q417 267 295 435 Q244 99 98 -74 Q84 -60 53 -42 Q169 83 222 310 Q263 487 279 805 L330 802 Q320 626 304 498 Q447 317 502 195 L465 162 ZM711 804 Q696 601 674 473 Q746 114 948 -23 Q925 -46 914 -64 Q737 68 654 375 Q586 82 416 -69 Q400 -55 371 -37 Q517 83 584 304 Q639 484 660 807 L711 804 Z" /><glyph glyph-name="uni4EE5" unicode="&#x4ee5;" d="M538 484 Q490 592 384 724 L425 745 Q531 617 581 509 L538 484 ZM477 247 Q477 249 490 204 Q177 63 146 37 Q139 55 119 78 Q171 107 171 155 L171 750 L221 750 L221 133 L477 247 ZM822 793 Q798 404 711 225 Q876 75 955 -41 L914 -72 Q842 39 690 184 Q592 13 378 -81 Q367 -61 343 -39 Q579 53 673 256 Q752 427 772 796 L822 793 Z" /><glyph glyph-name="uni4EFB" unicode="&#x4efb;" d="M358 820 Q307 703 246 605 L246 -74 L198 -74 L198 533 Q131 440 59 371 Q46 394 27 415 Q209 578 312 834 L358 820 ZM655 354 L655 14 L937 14 L937 -32 L333 -32 L333 14 L607 14 L607 354 L296 354 L296 400 L607 400 L607 690 Q525 675 346 651 Q343 669 331 691 Q713 745 870 802 L906 762 Q822 732 655 699 L655 400 L956 400 L956 354 L655 354 Z" /><glyph glyph-name="uni4F4D" unicode="&#x4f4d;" d="M629 664 Q616 723 581 823 L625 836 Q666 720 675 678 L629 664 ZM907 597 L373 597 L373 644 L907 644 L907 597 ZM517 73 Q497 284 443 509 L487 518 Q544 285 565 87 L517 73 ZM349 816 Q308 710 242 599 L242 -72 L194 -72 L194 523 Q132 432 73 374 Q63 399 43 417 Q209 578 303 829 L349 816 ZM952 15 L952 -31 L326 -31 L326 15 L679 15 Q738 221 784 529 L834 519 Q783 224 725 15 L952 15 Z" /><glyph glyph-name="uni4F55" unicode="&#x4f55;" d="M324 818 Q289 715 230 604 L230 -73 L183 -73 L183 523 Q133 441 77 379 Q62 407 47 423 Q192 575 279 831 L324 818 ZM419 478 L419 233 L628 233 L628 478 L419 478 ZM419 189 L419 116 L373 116 L373 522 L673 522 L673 189 L419 189 ZM956 683 L875 683 L875 7 Q875 -49 830 -62 Q798 -71 632 -71 Q628 -53 612 -20 Q730 -24 800 -21 Q828 -20 828 6 L828 683 L333 683 L333 729 L956 729 L956 683 Z" /><glyph glyph-name="uni4F5C" unicode="&#x4f5c;" d="M352 815 Q306 699 245 597 L245 -72 L196 -72 L196 520 Q134 432 76 374 Q62 402 46 418 Q209 574 306 829 L352 815 ZM629 617 L629 449 L933 449 L933 404 L629 404 L629 229 L947 229 L947 183 L629 183 L629 -73 L581 -73 L581 617 L494 617 Q425 488 345 399 Q320 421 307 430 Q446 576 532 819 L577 807 Q547 724 516 663 L953 663 L953 617 L629 617 Z" /><glyph glyph-name="uni4F60" unicode="&#x4f60;" d="M327 816 Q282 702 219 596 L219 -72 L173 -72 L173 524 Q117 440 51 374 Q42 397 22 417 Q185 575 282 829 L327 816 ZM511 408 Q457 195 359 63 Q346 73 317 90 Q411 206 464 417 L511 408 ZM672 587 L672 -8 Q672 -53 642 -65 Q616 -74 518 -74 Q513 -51 501 -25 Q571 -28 608 -25 Q625 -25 625 -8 L625 587 L450 587 Q410 485 352 403 Q318 429 312 432 Q418 571 474 828 L521 818 Q501 729 467 633 L909 633 L919 635 L950 625 Q927 503 906 425 L865 433 Q883 510 894 587 L672 587 ZM809 423 Q912 240 943 82 L897 67 Q868 225 767 409 L809 423 Z" /><glyph glyph-name="uni4F7F" unicode="&#x4f7f;" d="M336 821 Q294 714 229 605 L229 -78 L183 -78 L183 534 Q123 448 58 383 Q44 406 27 427 Q194 583 292 835 L336 821 ZM606 332 Q607 354 607 398 L607 512 L394 512 L394 332 L606 332 ZM654 512 L654 398 Q654 354 653 332 L873 332 L873 512 L654 512 ZM649 289 Q637 165 577 86 Q732 -4 962 -32 Q949 -45 932 -77 Q704 -43 548 52 Q466 -32 310 -78 Q294 -50 282 -39 Q433 2 509 78 Q407 149 351 248 L392 264 Q442 177 538 112 Q591 182 603 289 L349 289 L349 555 L607 555 L607 669 L315 669 L315 714 L607 714 L607 830 L654 830 L654 714 L955 714 L955 669 L654 669 L654 555 L919 555 L919 289 L649 289 Z" /><glyph glyph-name="uni4FBF" unicode="&#x4fbf;&#xf965;" d="M317 817 Q277 701 219 590 L219 -72 L173 -72 L173 509 Q125 431 75 374 Q67 390 45 417 Q187 575 272 829 L317 817 ZM611 304 Q612 325 612 367 L612 427 L404 427 L404 304 L611 304 ZM404 466 L612 466 L612 587 L404 587 L404 466 ZM659 587 L659 466 L854 466 L854 587 L659 587 ZM854 427 L659 427 L659 368 Q659 326 657 304 L854 304 L854 427 ZM653 263 Q638 143 568 67 Q719 -5 959 -24 Q941 -42 930 -68 Q688 -44 534 35 Q447 -37 294 -78 Q284 -54 266 -38 Q412 -3 491 59 Q389 122 335 215 L376 231 Q426 146 527 89 Q591 155 607 263 L358 263 L358 628 L612 628 L612 727 L323 727 L323 771 L942 771 L942 727 L659 727 L659 628 L901 628 L901 263 L653 263 Z" /><glyph glyph-name="uni500B" unicode="&#x500b;" d="M296 816 Q263 720 214 622 L214 -72 L167 -72 L167 536 Q113 444 51 373 Q20 414 19 414 Q168 574 251 827 L296 816 ZM740 360 L530 360 L530 174 L740 174 L740 360 ZM653 522 L653 400 L782 400 L782 133 L489 133 L489 400 L611 400 L611 522 L439 522 L439 564 L611 564 L611 684 L653 684 L653 564 L832 564 L832 522 L653 522 ZM868 32 L868 721 L388 721 L388 32 L868 32 ZM916 767 L916 -65 L868 -65 L868 -13 L388 -13 L388 -72 L343 -72 L343 767 L916 767 Z" /><glyph glyph-name="uni505A" unicode="&#x505a;" d="M292 814 Q261 721 212 617 L212 -74 L166 -74 L166 530 Q112 435 52 364 Q31 399 23 408 Q163 567 247 826 L292 814 ZM346 336 L346 81 L542 81 L542 336 L346 336 ZM346 37 L346 -26 L302 -26 L302 380 L422 380 L422 586 L269 586 L269 631 L422 631 L422 822 L468 822 L468 631 L613 631 L613 586 L468 586 L468 380 L587 380 L587 37 L346 37 ZM688 577 Q711 355 769 215 Q835 355 862 590 L692 590 L688 577 ZM907 590 Q874 319 793 164 Q861 30 968 -37 Q947 -56 936 -76 Q833 -5 766 119 Q691 0 566 -77 Q550 -55 533 -42 Q669 36 744 166 Q684 302 659 494 Q632 426 603 378 Q585 399 566 409 Q656 550 700 833 L744 826 Q730 738 704 634 L953 634 L953 590 L907 590 Z" /><glyph glyph-name="uni5168" unicode="&#x5168;" d="M524 2 L926 2 L926 -43 L76 -43 L76 2 L475 2 L475 192 L201 192 L201 236 L475 236 L475 416 L199 416 L199 461 L807 461 L807 416 L524 416 L524 236 L812 236 L812 192 L524 192 L524 2 ZM543 825 Q534 811 526 800 Q689 600 969 439 Q944 420 935 399 Q670 563 500 763 Q326 533 67 403 Q54 426 33 440 Q341 587 500 844 L543 825 Z" /><glyph glyph-name="uni5173" unicode="&#x5173;" d="M337 627 Q307 707 237 798 L276 819 Q347 733 379 651 L337 627 ZM544 315 Q660 55 947 -22 Q929 -40 914 -66 Q631 22 507 288 Q443 59 94 -73 Q80 -50 60 -31 Q408 95 461 315 L74 315 L74 362 L470 362 Q475 398 475 447 L475 566 L130 566 L130 614 L605 614 Q675 714 723 828 L773 808 Q703 679 657 614 L875 614 L875 566 L526 566 L526 446 Q526 401 522 362 L930 362 L930 315 L544 315 Z" /><glyph glyph-name="uni518A" unicode="&#x518a;" d="M819 407 L819 720 L638 720 L638 407 L819 407 ZM591 407 L591 720 L413 720 L413 407 L591 407 ZM367 407 L367 720 L194 720 L194 407 L367 407 ZM953 360 L867 360 L867 -6 Q867 -52 838 -63 Q814 -72 719 -72 Q711 -41 701 -23 Q725 -24 803 -24 Q819 -23 819 -7 L819 360 L638 360 L638 -65 L591 -65 L591 360 L413 360 L413 -65 L367 -65 L367 360 L194 360 L194 -74 L147 -74 L147 360 L48 360 L48 407 L147 407 L147 767 L867 767 L867 407 L953 407 L953 360 Z" /><glyph glyph-name="uni518C" unicode="&#x518c;" d="M790 433 L790 720 L598 720 L598 433 L790 433 ZM382 433 L382 720 L210 720 L210 433 L382 433 ZM953 387 L837 387 L837 -7 Q837 -54 804 -65 Q780 -74 662 -74 Q657 -54 644 -28 Q737 -31 769 -29 Q790 -28 790 -6 L790 387 L597 387 Q585 85 481 -74 Q466 -51 445 -41 Q540 109 550 387 L429 387 L429 2 Q429 -43 397 -55 Q370 -64 260 -64 Q257 -45 243 -19 Q339 -21 362 -19 Q382 -18 382 1 L382 387 L208 387 Q196 81 84 -78 Q73 -60 47 -44 Q153 105 163 387 L48 387 L48 433 L164 433 L164 765 L429 765 L429 433 L551 433 L551 765 L837 765 L837 433 L953 433 L953 387 Z" /><glyph glyph-name="uni51FA" unicode="&#x51fa;" d="M886 336 L886 -71 L835 -71 L835 -12 L117 -12 L117 337 L169 337 L169 35 L475 35 L475 406 L158 406 L158 738 L207 738 L207 453 L475 453 L475 831 L525 831 L525 453 L796 453 L796 738 L846 738 L846 406 L525 406 L525 35 L835 35 L835 336 L886 336 Z" /><glyph glyph-name="uni5206" unicode="&#x5206;" d="M385 795 Q283 544 94 395 Q75 417 52 429 Q242 567 336 809 L385 795 ZM805 449 Q805 430 804 423 Q781 10 738 -37 Q715 -62 668 -63 Q608 -67 507 -59 Q503 -29 490 -11 Q571 -19 651 -19 Q683 -19 695 -7 Q735 32 755 402 L445 402 Q421 225 357 120 Q273 -16 100 -76 Q87 -52 70 -38 Q235 17 314 144 Q374 239 395 402 L184 402 L184 449 L805 449 ZM664 811 Q771 572 953 443 Q934 430 914 404 Q738 544 621 793 L664 811 Z" /><glyph glyph-name="uni5220" unicode="&#x5220;" d="M566 440 L566 756 L449 756 L449 440 L566 440 ZM279 440 L279 757 L161 757 L161 440 L279 440 ZM609 440 L667 440 L667 395 L609 395 L609 -3 Q609 -43 584 -53 Q565 -62 480 -62 Q476 -39 466 -19 L551 -19 Q566 -19 566 -3 L566 395 L449 395 L449 345 Q449 56 378 -70 Q369 -59 342 -46 Q406 68 406 345 L406 395 L321 395 L321 -2 Q321 -42 296 -53 Q275 -62 192 -62 Q188 -35 178 -18 Q198 -19 263 -19 Q279 -18 279 -2 L279 395 L161 395 L161 343 Q161 55 83 -70 Q66 -53 46 -44 Q119 71 119 343 L119 395 L49 395 L49 440 L119 440 L119 801 L321 801 L321 440 L406 440 L406 800 L609 800 L609 440 ZM761 167 L719 167 L719 717 L761 717 L761 167 ZM909 815 L909 -12 Q909 -54 880 -65 Q856 -74 764 -74 Q761 -56 747 -30 Q771 -31 847 -31 Q865 -30 865 -12 L865 815 L909 815 Z" /><glyph glyph-name="uni522A" unicode="&#x522a;" d="M532 428 L532 733 L431 733 L431 428 L532 428 ZM392 428 L392 733 L294 733 L294 428 L392 428 ZM255 428 L255 733 L158 733 L158 428 L255 428 ZM577 428 L643 428 L643 383 L577 383 L577 -11 Q577 -50 552 -61 Q533 -68 456 -68 Q452 -47 439 -25 Q476 -26 519 -26 Q532 -25 532 -12 L532 383 L431 383 L431 -27 L392 -27 L392 383 L294 383 L294 -32 L255 -32 L255 383 L158 383 L158 -74 L115 -74 L115 383 L47 383 L47 428 L115 428 L115 778 L577 778 L577 428 ZM719 171 L673 171 L673 714 L719 714 L719 171 ZM906 814 L906 2 Q906 -50 870 -63 Q842 -72 724 -72 Q717 -40 706 -19 Q803 -22 839 -20 Q860 -20 860 1 L860 814 L906 814 Z" /><glyph glyph-name="uni5230" unicode="&#x5230;" d="M355 85 L577 127 L579 84 Q322 34 82 -15 L70 32 L309 76 L309 265 L105 265 L105 309 L309 309 L309 428 L355 428 L355 309 L567 309 L567 265 L355 265 L355 85 ZM430 665 Q542 532 587 450 L550 426 Q527 465 506 496 Q143 458 121 447 Q113 480 104 495 Q121 497 153 540 Q208 612 258 719 L78 719 L78 763 L586 763 L586 719 L312 719 Q247 590 180 505 L479 534 Q430 603 394 644 L430 665 ZM697 147 L652 147 L652 750 L697 750 L697 147 ZM900 813 L900 25 Q900 -26 864 -39 Q834 -48 717 -48 Q712 -25 697 3 Q796 0 832 2 Q853 3 853 24 L853 813 L900 813 Z" /><glyph glyph-name="uni5236" unicode="&#x5236;" d="M351 514 L607 514 L607 469 L351 469 L351 351 L565 351 L565 66 Q565 27 539 17 Q518 9 421 9 Q415 34 404 52 Q485 50 505 52 Q520 52 520 67 L520 306 L351 306 L351 -73 L305 -73 L305 306 L146 306 L146 10 L101 10 L101 351 L305 351 L305 469 L51 469 L51 514 L305 514 L305 637 L156 637 Q124 560 98 522 Q91 527 54 541 Q122 638 160 806 L207 797 Q189 729 173 683 L305 683 L305 830 L351 830 L351 683 L568 683 L568 637 L351 637 L351 514 ZM741 191 L696 191 L696 736 L741 736 L741 191 ZM919 827 L919 9 Q919 -44 881 -58 Q852 -68 730 -68 Q720 -34 712 -14 Q812 -17 851 -15 Q872 -15 872 7 L872 827 L919 827 Z" /><glyph glyph-name="uni5237" unicode="&#x5237;" d="M164 748 L164 593 L531 593 L531 748 L164 748 ZM164 548 L164 447 Q164 116 77 -42 Q58 -23 40 -14 Q120 133 120 447 L120 792 L577 792 L577 548 L164 548 ZM578 102 Q578 68 556 56 Q536 47 461 47 Q460 63 445 90 Q504 87 523 89 Q535 90 535 102 L535 366 L403 366 L403 -76 L360 -76 L360 366 L237 366 L237 34 L196 34 L196 409 L360 409 L360 524 L403 524 L403 409 L578 409 L578 102 ZM735 175 L690 175 L690 724 L735 724 L735 175 ZM907 817 L907 12 Q907 -40 871 -53 Q844 -62 720 -62 Q707 -21 702 -11 Q734 -12 841 -12 Q861 -11 861 12 L861 817 L907 817 Z" /><glyph glyph-name="uni529F" unicode="&#x529f;" d="M443 228 Q273 179 59 119 L46 168 L217 212 L217 662 L59 662 L59 708 L420 708 L420 662 L264 662 L264 225 L438 273 L443 228 ZM938 596 Q938 575 937 568 Q912 19 864 -35 Q839 -62 793 -65 Q734 -69 644 -61 Q639 -29 629 -14 Q706 -21 777 -21 Q809 -21 821 -6 Q867 41 888 549 L652 549 Q637 323 579 186 Q505 14 343 -74 Q335 -57 308 -38 Q464 43 534 206 Q590 334 604 549 L423 549 L423 596 L606 596 Q610 692 610 816 L658 816 Q658 692 654 596 L938 596 Z" /><glyph glyph-name="uni52A1" unicode="&#x52a1;" d="M855 251 Q824 0 780 -40 Q757 -61 714 -62 Q659 -64 575 -58 Q574 -38 559 -14 Q630 -21 701 -21 Q732 -21 742 -12 Q779 19 805 231 L479 231 Q435 105 337 32 Q246 -36 86 -72 Q78 -49 61 -28 Q350 24 429 231 L133 231 L133 275 L442 275 Q456 325 463 384 L513 379 Q505 323 492 275 L858 275 L855 251 ZM337 683 L318 663 Q384 572 513 515 Q678 583 764 683 L337 683 ZM838 707 Q754 579 567 493 Q722 435 953 419 Q934 398 926 376 Q677 399 512 469 Q325 393 69 362 Q63 386 49 406 Q279 428 459 494 Q348 552 286 634 Q211 568 135 525 Q121 545 101 559 Q296 667 395 834 L447 825 Q421 780 376 726 L800 726 L809 729 L838 707 Z" /><glyph glyph-name="uni52A8" unicode="&#x52a8;" d="M478 703 L97 703 L97 748 L478 748 L478 703 ZM460 61 Q450 96 436 138 Q117 73 91 58 Q82 90 74 105 Q92 110 118 177 Q171 296 207 462 L60 462 L60 507 L497 507 L497 462 L257 462 Q209 270 144 124 L422 179 Q400 245 356 351 L397 362 Q469 197 503 77 L460 61 ZM939 566 Q919 23 876 -29 Q854 -56 810 -60 Q751 -62 669 -56 Q667 -30 654 -9 Q716 -14 794 -14 Q823 -16 834 0 Q873 42 892 548 L714 548 Q688 95 507 -72 Q494 -52 468 -40 Q644 115 668 548 L510 548 L510 595 L670 595 Q674 694 674 815 L721 815 Q719 643 716 595 L939 595 L939 566 Z" /><glyph glyph-name="uni52A9" unicode="&#x52a9;" d="M159 98 L380 146 L380 301 L159 301 L159 98 ZM159 735 L159 561 L380 561 L380 735 L159 735 ZM380 517 L159 517 L159 345 L380 345 L380 517 ZM492 125 L51 24 L41 73 L114 88 L114 780 L426 780 L426 156 L488 169 L492 125 ZM923 571 Q907 13 868 -37 Q847 -64 804 -67 Q763 -70 665 -64 Q661 -35 650 -17 Q711 -22 788 -22 Q815 -24 826 -8 Q862 33 875 554 L690 554 Q677 331 623 192 Q555 17 410 -76 Q396 -55 373 -42 Q619 106 644 554 L463 554 L463 600 L647 600 Q650 677 650 833 L696 833 Q696 677 693 600 L923 600 L923 571 Z" /><glyph glyph-name="uni52D5" unicode="&#x52d5;" d="M274 288 L274 378 L120 378 L120 288 L274 288 ZM120 416 L274 416 L274 504 L120 504 L120 416 ZM319 504 L319 416 L480 416 L480 504 L319 504 ZM480 378 L319 378 L319 288 L480 288 L480 378 ZM928 593 Q928 572 927 565 Q912 14 870 -38 Q850 -65 807 -68 Q760 -71 686 -65 Q684 -38 671 -20 Q725 -25 793 -25 Q816 -26 829 -12 Q864 30 880 547 L709 547 Q699 319 653 182 Q596 13 469 -79 Q454 -59 428 -44 Q470 -15 501 18 Q409 6 58 -36 L49 9 Q170 21 274 33 L274 136 L76 136 L76 178 L274 178 L274 250 L78 250 L78 542 L274 542 L274 620 L47 620 L47 661 L274 661 L274 743 Q195 735 72 729 Q69 748 59 767 Q353 783 494 817 L524 780 Q447 762 319 747 L319 661 L542 661 L542 620 L319 620 L319 542 L524 542 L524 250 L319 250 L319 178 L526 178 L526 136 L319 136 L319 38 L531 62 L531 54 Q646 205 663 547 L531 547 L531 593 L664 593 Q667 666 667 820 L714 820 Q714 703 711 593 L928 593 Z" /><glyph glyph-name="uni52D9" unicode="&#x52d9;" d="M335 262 Q370 326 404 437 L280 437 L280 -5 Q280 -45 253 -55 Q229 -64 137 -64 Q134 -47 120 -20 Q199 -22 218 -20 Q234 -19 234 -5 L234 376 Q164 186 74 90 Q64 112 46 132 Q152 240 215 437 L52 437 L52 482 L252 482 Q206 551 124 612 L159 636 Q201 604 235 570 Q315 639 377 737 L61 737 L61 780 L408 780 L415 783 L449 761 Q379 639 262 541 Q274 528 293 502 L266 482 L422 482 L430 484 L461 472 Q411 310 370 244 L335 262 ZM915 248 Q890 -11 847 -53 Q829 -72 790 -75 Q739 -77 679 -72 Q677 -47 666 -26 Q724 -32 774 -32 Q799 -32 809 -22 Q844 13 864 229 L665 229 Q604 6 397 -73 Q386 -51 367 -36 Q558 34 616 229 L438 229 L438 273 L626 273 Q635 319 642 378 L690 378 Q683 316 674 273 L918 273 L915 248 ZM575 680 Q625 590 719 518 Q807 587 853 683 L577 683 L575 680 ZM912 713 Q865 585 755 495 Q856 429 974 402 Q961 392 944 362 Q820 397 718 467 Q620 399 467 357 Q456 380 441 394 Q584 428 683 493 Q596 564 548 646 Q506 595 459 556 Q435 577 418 585 Q545 679 611 834 L657 821 Q643 788 607 726 L877 726 L887 728 L912 713 Z" /><glyph glyph-name="uni2F17" unicode="&#x2f17;&#x5341;" d="M946 404 L526 404 L526 -72 L476 -72 L476 404 L60 404 L60 452 L476 452 L476 832 L526 832 L526 452 L946 452 L946 404 Z" /><glyph glyph-name="uni5355" unicode="&#x5355;" d="M474 314 L474 446 L203 446 L203 314 L474 314 ZM203 487 L474 487 L474 616 L203 616 L203 487 ZM805 616 L523 616 L523 487 L805 487 L805 616 ZM805 446 L523 446 L523 314 L805 314 L805 446 ZM944 114 L523 114 L523 -74 L474 -74 L474 114 L59 114 L59 159 L474 159 L474 271 L156 271 L156 659 L354 659 Q318 730 248 808 L287 829 Q364 745 397 679 L363 659 L617 659 Q678 740 725 830 L775 810 Q722 725 671 659 L853 659 L853 271 L523 271 L523 159 L944 159 L944 114 Z" /><glyph glyph-name="uni53D8" unicode="&#x53d8;" d="M364 684 L75 684 L75 728 L502 728 Q471 789 443 828 L488 841 Q531 780 555 728 L926 728 L926 684 L635 684 L635 366 L587 366 L587 684 L412 684 L412 364 L364 364 L364 684 ZM737 622 Q849 517 909 420 L869 397 Q816 486 700 604 L737 622 ZM289 620 Q234 490 144 400 Q127 415 105 426 Q193 506 244 631 L289 620 ZM274 289 Q357 175 499 99 Q652 177 731 289 L274 289 ZM806 314 Q723 171 547 74 Q720 -6 949 -32 Q932 -50 921 -75 Q675 -41 500 50 Q333 -32 87 -76 Q78 -53 61 -32 Q286 1 452 76 Q306 161 221 289 L140 289 L140 334 L765 334 L775 336 L806 314 Z" /><glyph glyph-name="uni53EA" unicode="&#x53ea;" d="M643 217 Q835 77 938 -45 L896 -75 Q795 48 603 191 L643 217 ZM391 196 Q280 40 88 -77 Q66 -53 51 -43 Q250 72 342 214 L391 196 ZM214 367 L786 367 L786 711 L214 711 L214 367 ZM835 757 L835 321 L166 321 L166 757 L835 757 Z" /><glyph glyph-name="uni53EF" unicode="&#x53ef;" d="M217 498 L217 228 L521 228 L521 498 L217 498 ZM217 181 L217 100 L170 100 L170 545 L569 545 L569 181 L217 181 ZM942 712 L816 712 L816 8 Q816 -51 772 -63 Q738 -72 573 -72 Q566 -45 552 -19 Q667 -23 740 -20 Q767 -17 767 9 L767 712 L61 712 L61 759 L942 759 L942 712 Z" /><glyph glyph-name="uni53F7" unicode="&#x53f7;" d="M757 744 L241 744 L241 584 L757 584 L757 744 ZM806 539 L194 539 L194 788 L806 788 L806 539 ZM339 388 Q309 297 293 256 L805 256 Q804 238 802 231 Q765 -8 713 -50 Q689 -71 640 -72 Q572 -74 473 -67 Q471 -41 456 -20 Q538 -29 628 -29 Q663 -29 675 -20 Q717 13 749 210 L250 211 L220 211 Q251 277 286 388 L70 388 L70 433 L927 433 L927 388 L339 388 Z" /><glyph glyph-name="uni540C" unicode="&#x540c;" d="M346 399 L346 179 L654 179 L654 399 L346 399 ZM346 136 L346 59 L301 59 L301 442 L700 442 L700 136 L346 136 ZM759 564 L247 564 L247 608 L759 608 L759 564 ZM906 -3 Q906 -53 869 -66 Q838 -75 708 -74 Q702 -50 689 -28 Q788 -31 833 -28 Q859 -27 859 -4 L859 732 L143 732 L143 -76 L96 -76 L96 778 L906 778 L906 -3 Z" /><glyph glyph-name="uni540E" unicode="&#x540e;" d="M357 301 L357 26 L818 26 L818 301 L357 301 ZM310 347 L867 347 L867 -74 L818 -74 L818 -20 L357 -20 L357 -75 L310 -75 L310 347 ZM944 554 L944 508 L208 508 L208 490 Q208 116 80 -75 Q60 -50 41 -42 Q159 132 159 490 L159 739 Q615 770 828 821 L870 783 Q643 730 208 700 L208 554 L944 554 Z" /><glyph glyph-name="uni5427" unicode="&#x5427;" d="M131 688 L131 240 L287 240 L287 688 L131 688 ZM332 194 L131 194 L131 94 L86 94 L86 733 L332 733 L332 194 ZM482 719 L482 369 L652 369 L652 719 L482 719 ZM872 719 L698 719 L698 369 L872 369 L872 719 ZM835 -6 Q879 -6 894 25 Q907 52 913 146 Q932 132 958 126 Q951 21 929 -13 Q905 -52 834 -52 L567 -52 Q491 -52 464 -29 Q435 -5 435 64 L435 765 L919 765 L919 258 L872 258 L872 325 L482 325 L482 63 Q482 21 498 8 Q515 -6 566 -6 L835 -6 Z" /><glyph glyph-name="uni542F" unicode="&#x542f;" d="M491 834 Q536 768 562 705 L516 687 Q494 747 447 819 L491 834 ZM208 641 L208 476 L808 476 L808 641 L208 641 ZM208 430 Q204 99 81 -74 Q60 -51 41 -41 Q160 122 160 455 L160 687 L856 687 L856 430 L208 430 ZM821 48 L821 259 L316 259 L316 48 L821 48 ZM869 304 L869 -68 L821 -68 L821 2 L316 2 L316 -71 L269 -71 L269 304 L869 304 Z" /><glyph glyph-name="uni555F" unicode="&#x555f;" d="M175 645 L175 475 L452 475 L452 645 L175 645 ZM175 431 Q171 122 82 -45 Q67 -26 45 -15 Q130 149 130 465 L130 689 L302 689 Q282 739 242 818 L283 832 Q333 738 351 689 L497 689 L497 431 L175 431 ZM243 259 L243 47 L463 47 L463 259 L243 259 ZM199 302 L508 302 L508 -38 L463 -38 L463 5 L243 5 L243 -67 L199 -67 L199 302 ZM668 600 L663 582 Q693 377 756 228 Q818 365 851 600 L668 600 ZM899 600 Q861 333 780 173 Q853 28 957 -35 Q937 -50 923 -72 Q823 -5 755 126 Q683 7 569 -75 Q554 -51 537 -35 Q658 43 730 176 Q672 305 635 500 Q605 422 570 366 Q557 381 531 396 Q624 533 670 833 L716 825 Q699 724 679 645 L948 645 L948 600 L899 600 Z" /><glyph glyph-name="uni55AE" unicode="&#x55ae;" d="M818 754 L593 754 L593 638 L818 638 L818 754 ZM865 600 L548 600 L548 792 L865 792 L865 600 ZM410 754 L188 754 L188 638 L410 638 L410 754 ZM457 600 L143 600 L143 792 L457 792 L457 600 ZM473 252 L473 358 L212 358 L212 252 L473 252 ZM212 399 L473 399 L473 503 L212 503 L212 399 ZM796 503 L522 503 L522 399 L796 399 L796 503 ZM796 358 L522 358 L522 252 L796 252 L796 358 ZM939 75 L522 75 L522 -73 L473 -73 L473 75 L61 75 L61 120 L473 120 L473 210 L165 210 L165 545 L844 545 L844 210 L522 210 L522 120 L939 120 L939 75 Z" /><glyph glyph-name="uni56DE" unicode="&#x56de;" d="M639 517 L357 517 L357 255 L639 255 L639 517 ZM686 562 L686 211 L311 211 L311 562 L686 562 ZM862 28 L862 740 L138 740 L138 28 L862 28 ZM911 788 L911 -72 L862 -72 L862 -18 L138 -18 L138 -72 L90 -72 L90 788 L911 788 Z" /><glyph glyph-name="uni5728" unicode="&#x5728;" d="M378 622 Q321 504 255 414 L255 -69 L208 -69 L208 356 Q145 284 76 233 Q60 260 48 273 Q216 397 325 622 L68 622 L68 669 L346 669 Q380 746 404 833 L453 820 Q425 729 398 669 L932 669 L932 622 L378 622 ZM934 -4 L934 -50 L328 -50 L328 -4 L605 -4 L605 311 L368 311 L368 357 L605 357 L605 565 L653 565 L653 357 L895 357 L895 311 L653 311 L653 -4 L934 -4 Z" /><glyph glyph-name="uni590D" unicode="&#x590d;" d="M240 687 Q172 601 86 535 Q77 552 56 576 Q207 682 282 833 L325 819 Q300 768 271 730 L891 730 L891 687 L240 687 ZM298 208 Q372 129 507 72 Q648 130 723 208 L298 208 ZM271 365 L768 365 L768 449 L271 449 L271 365 ZM271 487 L768 487 L768 568 L271 568 L271 487 ZM801 230 Q724 126 564 51 Q730 -5 954 -23 Q944 -34 926 -67 Q681 -44 507 27 Q321 -46 61 -74 Q56 -52 41 -29 Q276 -8 450 52 Q336 108 268 181 Q206 125 137 81 Q118 103 101 114 Q255 201 337 326 L224 326 L224 607 L817 607 L817 326 L390 326 Q365 286 333 249 L761 249 L771 252 L801 230 Z" /><glyph glyph-name="uni5931" unicode="&#x5931;" d="M548 330 Q650 41 963 -32 Q944 -47 932 -74 Q607 12 501 329 Q436 54 80 -76 Q68 -50 51 -36 Q384 86 450 330 L58 330 L58 377 L460 377 Q471 437 471 527 L471 600 L226 600 Q181 502 118 428 Q102 439 72 453 Q191 582 256 818 L305 807 Q285 734 249 648 L471 648 L471 833 L520 833 L520 648 L860 648 L860 600 L520 600 L520 527 Q520 440 510 377 L943 377 L943 330 L548 330 Z" /><glyph glyph-name="uni5982" unicode="&#x5982;" d="M236 578 Q200 422 164 303 Q246 251 311 200 Q394 352 417 578 L236 578 ZM469 619 Q446 345 351 170 Q434 101 469 55 L435 17 Q401 61 324 127 Q234 -8 87 -74 Q78 -57 56 -33 Q198 25 286 158 Q197 230 108 285 Q151 409 189 578 L52 578 L52 624 L199 624 Q227 759 236 833 L284 830 Q276 773 247 624 L429 624 L439 626 L469 619 ZM868 73 L868 676 L582 676 L582 73 L868 73 ZM915 722 L915 -35 L868 -35 L868 27 L582 27 L582 -49 L536 -49 L536 722 L915 722 Z" /><glyph glyph-name="uni59CB" unicode="&#x59cb;" d="M198 578 Q161 411 129 303 Q187 269 257 214 Q320 360 339 578 L198 578 ZM387 620 Q366 350 294 184 Q368 121 411 67 L380 28 Q349 70 272 140 Q200 1 78 -72 Q71 -54 48 -33 Q164 29 236 171 Q146 243 77 285 Q112 386 154 578 L48 578 L48 624 L164 624 Q187 742 198 830 L243 827 Q229 730 208 624 L350 624 L359 626 L387 620 ZM516 279 L516 17 L850 17 L850 279 L516 279 ZM471 324 L897 324 L897 -71 L850 -71 L850 -28 L516 -28 L516 -74 L471 -74 L471 324 ZM788 686 Q902 541 959 407 L918 387 Q901 426 883 460 Q452 429 428 419 Q422 441 411 468 Q430 470 475 534 Q570 657 647 835 L696 819 Q590 607 493 480 L860 502 Q805 595 750 668 L788 686 Z" /><glyph glyph-name="uni5B89" unicode="&#x5b89;" d="M151 524 L103 524 L103 713 L481 713 Q462 758 428 822 L476 833 Q518 761 536 713 L896 713 L896 524 L847 524 L847 667 L151 667 L151 524 ZM374 396 Q318 306 279 254 Q410 211 524 165 Q624 256 673 396 L374 396 ZM726 396 Q676 248 573 145 Q777 60 896 -18 L857 -60 Q747 14 531 109 Q387 -7 128 -69 Q121 -48 96 -25 Q343 23 482 129 Q340 189 205 230 Q265 307 320 396 L76 396 L76 442 L347 442 Q404 538 435 613 L483 603 Q457 542 401 442 L928 442 L928 396 L726 396 Z" /><glyph glyph-name="uni5B9A" unicode="&#x5b9a;" d="M138 518 L90 518 L90 716 L492 716 Q472 767 437 824 L483 837 Q529 765 543 723 L523 716 L910 716 L910 518 L861 518 L861 670 L138 670 L138 518 ZM523 8 Q605 -9 714 -9 Q917 -9 955 -8 Q939 -30 935 -56 L712 -56 Q529 -56 428 -13 Q306 39 241 172 Q188 15 83 -77 Q62 -56 44 -44 Q199 78 239 376 L286 371 Q273 282 261 236 Q321 72 475 21 L475 478 L205 478 L205 524 L805 524 L805 478 L523 478 L523 288 L835 288 L835 242 L523 242 L523 8 Z" /><glyph glyph-name="uni5BF9" unicode="&#x5bf9;" d="M429 705 Q394 482 307 304 Q381 187 422 100 L383 68 Q352 136 281 255 Q189 90 71 3 Q59 26 36 43 Q157 126 252 303 Q164 444 72 567 L107 593 Q187 488 276 352 Q345 501 375 669 L59 669 L59 713 L389 713 L398 716 L429 705 ZM952 558 L825 558 L825 1 Q825 -49 788 -62 Q758 -72 631 -71 Q622 -42 612 -23 Q703 -27 754 -24 Q778 -22 778 1 L778 558 L478 558 L478 604 L778 604 L778 831 L825 831 L825 604 L952 604 L952 558 ZM633 175 Q607 282 515 421 L556 438 Q647 304 677 196 L633 175 Z" /><glyph glyph-name="uni5C0D" unicode="&#x5c0d;" d="M546 781 Q489 696 437 638 L405 657 Q461 724 504 802 L546 781 ZM168 639 Q135 710 70 782 L104 802 Q176 722 203 661 L168 639 ZM555 573 L50 573 L50 616 L213 616 L213 832 L255 832 L255 616 L350 616 L350 832 L392 832 L392 616 L555 616 L555 573 ZM225 418 Q203 471 145 540 L181 557 Q241 493 262 439 L225 418 ZM549 93 L551 49 L60 -27 L53 20 L280 53 L280 197 L116 197 L116 239 L280 239 L280 362 L85 362 L85 405 L349 405 Q391 473 424 555 L469 538 Q419 443 396 405 L522 405 L522 362 L325 362 L325 239 L497 239 L497 197 L325 197 L325 59 L549 93 ZM951 509 L842 509 L842 -4 Q842 -53 806 -65 Q776 -75 654 -74 Q646 -50 635 -28 Q738 -31 772 -29 Q796 -28 796 -5 L796 509 L545 509 L545 555 L796 555 L796 827 L842 827 L842 555 L951 555 L951 509 ZM679 170 Q661 273 582 401 L625 416 Q704 287 724 187 L679 170 Z" /><glyph glyph-name="uni5C31" unicode="&#x5c31;" d="M870 615 Q837 687 770 759 L804 779 Q878 703 906 638 L870 615 ZM514 659 L59 659 L59 704 L289 704 Q272 755 237 823 L281 834 Q320 765 340 704 L514 704 L514 659 ZM203 261 Q168 121 102 30 Q89 41 64 55 Q126 135 160 269 L203 261 ZM164 379 L423 379 L423 521 L164 521 L164 379 ZM319 337 L319 -14 Q319 -50 296 -59 Q274 -67 195 -67 Q192 -49 179 -27 Q245 -29 260 -27 Q274 -27 274 -14 L274 337 L120 337 L120 563 L469 563 L469 337 L319 337 ZM446 88 Q431 163 375 263 L410 280 Q466 192 487 106 L446 88 ZM702 526 Q668 95 476 -72 Q451 -52 439 -46 Q625 111 657 526 L523 526 L523 571 L661 571 Q668 677 668 831 L714 831 Q712 659 707 571 L946 571 L946 526 L702 526 ZM862 -8 Q892 -8 899 -3 Q912 3 916 24 Q920 42 922 131 Q937 116 960 111 Q958 22 951 -3 Q942 -30 923 -38 Q904 -46 867 -46 L802 -46 Q765 -46 746 -34 Q725 -20 725 48 L725 430 L769 430 L769 39 Q769 3 779 -3 Q789 -8 809 -8 L862 -8 Z" /><glyph glyph-name="uni2F30" unicode="&#x2f30;&#x5df1;" d="M762 -2 Q843 -2 868 34 Q892 67 901 187 Q924 172 950 167 Q938 35 905 -6 Q869 -50 759 -50 L349 -50 Q238 -50 200 -28 Q158 -5 158 65 L158 445 L769 445 L769 724 L145 724 L145 773 L818 773 L818 331 L769 331 L769 397 L207 397 L207 64 Q207 25 233 12 Q260 -2 342 -2 L762 -2 Z" /><glyph glyph-name="uni5E2E" unicode="&#x5e2e;" d="M306 437 Q246 322 117 265 Q104 283 83 300 Q203 349 255 437 L57 437 L57 478 L275 478 Q292 521 292 566 L292 575 L96 575 L96 616 L292 616 L292 704 L75 704 L75 746 L292 746 L292 832 L340 832 L340 746 L534 746 L534 704 L340 704 L340 616 L517 616 L517 575 L340 575 L340 566 Q340 524 323 478 L543 478 L543 437 L306 437 ZM855 45 Q855 3 822 -7 Q798 -14 655 -14 Q651 5 637 27 Q759 25 785 27 Q807 28 807 45 L807 211 L522 211 L522 -73 L474 -73 L474 211 L209 211 L209 -21 L161 -21 L161 256 L474 256 L474 338 L522 338 L522 256 L855 256 L855 45 ZM923 770 Q869 695 791 603 Q912 533 914 455 Q915 398 869 376 Q847 365 812 361 Q746 355 692 361 Q689 382 675 403 Q748 395 796 400 Q829 404 840 409 Q869 420 869 458 Q867 523 736 596 Q801 674 850 746 L639 746 L639 301 L593 301 L593 790 L882 790 L891 792 L923 770 Z" /><glyph glyph-name="uni5E6B" unicode="&#x5e6b;" d="M223 228 L787 228 L787 285 L223 285 L223 228 ZM223 319 L787 319 L787 374 L223 374 L223 319 ZM886 -5 Q886 -45 855 -55 Q829 -63 706 -63 Q702 -45 688 -19 Q789 -22 820 -20 Q839 -19 839 -5 L839 95 L524 95 L524 -74 L476 -74 L476 95 L181 95 L181 -58 L133 -58 L133 135 L476 135 L476 192 L178 192 L178 410 L464 410 Q489 457 497 480 L69 436 L64 475 L262 493 L262 558 L88 558 L88 593 L262 593 L262 649 L70 649 L70 684 L262 684 L262 741 L103 741 L103 776 L262 776 L262 831 L308 831 L308 776 L475 776 L475 741 L308 741 L308 684 L507 684 L507 649 L308 649 L308 593 L486 593 L486 558 L308 558 L308 498 L506 518 L506 481 L499 480 L540 464 Q525 436 509 410 L833 410 L833 192 L524 192 L524 135 L886 135 L886 -5 ZM668 524 Q636 585 566 648 L599 670 Q669 611 702 551 L668 524 ZM946 737 L946 696 L827 696 L827 494 Q827 456 799 445 Q773 437 674 437 Q668 463 658 480 Q737 477 765 479 Q781 480 781 494 L781 696 L509 696 L509 737 L781 737 L781 830 L827 830 L827 737 L946 737 Z" /><glyph glyph-name="uni5F00" unicode="&#x5f00;" d="M662 407 L662 717 L354 717 L354 458 Q354 424 353 407 L662 407 ZM944 361 L711 361 L711 -74 L662 -74 L662 361 L351 361 Q329 68 99 -77 Q83 -56 63 -42 Q280 95 302 361 L58 361 L58 407 L304 407 Q305 425 305 459 L305 717 L97 717 L97 763 L911 763 L911 717 L711 717 L711 407 L944 407 L944 361 Z" /><glyph glyph-name="uni5F55" unicode="&#x5f55;" d="M859 336 Q763 250 654 182 Q776 57 951 9 Q930 -10 918 -32 Q658 48 524 284 L524 -11 Q524 -56 490 -67 Q461 -76 337 -74 Q334 -59 319 -30 Q421 -33 455 -31 Q476 -30 476 -12 L476 164 Q184 35 104 1 L78 44 Q115 58 476 208 L476 407 L70 407 L70 451 L744 451 Q750 517 752 567 L170 567 L170 612 L754 612 Q758 673 760 727 L143 727 L143 773 L766 773 L775 776 L811 772 Q805 610 793 451 L937 451 L937 407 L524 407 L524 374 Q561 287 625 212 Q746 294 818 366 L859 336 ZM178 359 Q296 296 362 231 L328 197 Q266 261 146 331 L178 359 Z" /><glyph glyph-name="uni5F8C" unicode="&#x5f8c;" d="M303 816 Q218 681 81 583 Q66 605 53 617 Q186 714 259 832 L303 816 ZM329 621 Q295 557 235 478 L235 -78 L189 -78 L189 422 Q135 357 74 306 Q54 337 42 345 Q192 463 285 636 L329 621 ZM494 268 Q548 183 638 114 Q738 186 790 274 L500 274 L494 268 ZM857 300 Q801 179 678 87 Q803 3 966 -33 Q950 -47 936 -74 Q771 -33 640 60 Q502 -29 311 -75 Q306 -54 286 -32 Q460 3 601 90 Q517 156 462 239 Q395 177 325 135 Q310 157 291 170 Q459 266 552 407 Q366 396 342 387 Q337 411 327 433 Q361 436 437 481 Q482 506 582 573 Q383 562 364 554 Q359 583 350 601 Q371 604 411 639 Q501 712 585 830 L630 809 Q527 683 433 607 L643 615 Q733 681 789 731 L831 706 Q634 545 436 440 L819 462 Q775 518 733 561 L770 582 Q886 466 944 365 L903 341 Q887 374 847 425 L606 411 Q578 362 537 315 L816 315 L826 317 L857 300 Z" /><glyph glyph-name="uni5F97" unicode="&#x5f97;" d="M830 760 L459 760 L459 661 L830 661 L830 760 ZM830 622 L459 622 L459 521 L830 521 L830 622 ZM878 481 L412 481 L412 800 L878 800 L878 481 ZM309 813 Q221 680 75 581 Q68 597 48 619 Q193 715 263 829 L309 813 ZM319 594 Q291 543 239 473 L239 -73 L192 -73 L192 417 Q129 344 58 287 Q51 305 28 330 Q185 446 275 609 L319 594 ZM456 179 Q544 102 586 35 L549 7 Q509 75 421 157 L456 179 ZM951 209 L793 209 L793 -13 Q793 -56 760 -67 Q734 -75 610 -75 Q608 -60 593 -30 Q700 -33 725 -30 Q746 -29 746 -12 L746 209 L322 209 L322 253 L746 253 L746 356 L343 356 L343 399 L934 399 L934 356 L793 356 L793 253 L951 253 L951 209 Z" /><glyph glyph-name="uni5F9E" unicode="&#x5f9e;" d="M924 443 Q863 524 753 624 Q703 517 616 450 Q606 463 578 484 Q728 588 765 832 L813 826 Q800 740 772 666 Q893 563 961 476 L924 443 ZM592 516 Q556 563 480 628 Q425 506 341 429 Q325 449 303 464 Q446 583 495 832 L543 824 Q525 738 497 667 Q568 613 621 552 L592 516 ZM304 816 Q212 682 66 583 Q53 604 36 618 Q182 712 259 833 L304 816 ZM329 621 Q295 563 237 489 L237 -76 L191 -76 L191 435 Q127 366 57 308 Q43 328 23 346 Q189 469 285 637 L329 621 ZM670 -11 Q710 -19 768 -19 Q928 -19 957 -18 Q943 -39 939 -65 L765 -65 Q637 -65 567 -24 Q485 23 441 142 Q403 11 313 -69 Q296 -52 274 -38 Q415 75 429 375 L477 373 Q473 293 460 220 Q503 48 623 2 L623 450 L670 450 L670 266 L910 266 L910 222 L670 222 L670 -11 Z" /><glyph glyph-name="uni5FA9" unicode="&#x5fa9;&#xf966;" d="M464 685 Q416 596 356 530 Q336 548 315 560 Q419 664 480 835 L528 823 Q511 777 487 728 L946 728 L946 685 L464 685 ZM303 816 Q211 682 65 583 Q52 604 35 618 Q181 712 258 833 L303 816 ZM328 621 Q294 563 236 489 L236 -76 L190 -76 L190 435 Q126 366 56 308 Q42 328 22 346 Q188 469 284 637 L328 621 ZM516 212 Q565 138 659 80 Q753 136 802 212 L516 212 ZM475 366 L828 366 L828 450 L475 450 L475 366 ZM475 487 L828 487 L828 570 L475 570 L475 487 ZM869 236 Q817 131 702 55 Q821 -7 967 -28 Q948 -49 936 -71 Q780 -43 660 31 Q522 -44 328 -76 Q321 -55 304 -34 Q485 -9 619 58 Q536 116 487 191 Q424 127 347 80 Q325 106 313 114 Q465 197 540 327 L430 327 L430 608 L874 608 L874 327 L578 327 L589 324 Q566 283 541 251 L830 251 L839 254 L869 236 Z" /><glyph glyph-name="uni6062" unicode="&#x6062;" d="M48 392 Q89 488 101 646 L139 639 Q131 477 88 377 L48 392 ZM174 833 L220 833 L220 -72 L174 -72 L174 833 ZM307 470 Q290 554 243 660 L279 674 Q327 576 346 490 L307 470 ZM538 628 Q479 248 316 68 Q303 81 278 101 Q435 262 491 628 L340 628 L340 672 L498 672 Q508 748 516 835 L563 831 Q557 770 544 672 L938 672 L938 628 L538 628 ZM916 474 Q881 320 825 232 Q810 245 788 254 Q846 340 873 483 L916 474 ZM634 467 Q609 316 555 224 Q533 241 520 247 Q568 324 593 474 L634 467 ZM749 586 Q742 405 724 297 Q779 42 949 -31 Q931 -44 917 -68 Q770 5 704 213 Q645 3 457 -75 Q446 -51 427 -34 Q585 25 646 183 Q696 311 706 589 L749 586 Z" /><glyph glyph-name="uni60A8" unicode="&#x60a8;" d="M459 688 Q411 606 346 543 Q332 559 308 573 Q421 672 477 831 L522 820 Q503 767 482 731 L895 731 L904 733 L936 723 Q871 595 853 566 L810 575 Q841 623 870 688 L459 688 ZM787 563 Q874 463 917 358 L875 337 Q838 433 749 545 L787 563 ZM566 84 Q521 163 416 264 L453 285 Q553 195 606 109 L566 84 ZM522 550 Q474 424 388 336 Q379 346 350 363 Q431 438 477 561 L522 550 ZM673 333 Q673 294 645 284 Q620 275 521 275 Q516 300 504 319 Q557 318 611 318 Q627 319 627 333 L627 646 L673 646 L673 333 ZM58 -12 Q108 58 163 203 L205 185 Q139 22 103 -33 L58 -12 ZM330 820 Q286 736 236 670 L236 271 L190 271 L190 611 Q131 541 78 496 Q48 527 42 531 Q191 650 287 834 L330 820 ZM666 -9 Q710 -9 722 12 Q735 33 739 112 Q757 100 784 94 Q778 3 757 -25 Q735 -54 668 -54 L402 -54 Q322 -54 296 -39 Q269 -23 269 25 L269 212 L317 212 L317 25 Q317 4 332 -2 Q348 -9 400 -9 L666 -9 ZM822 217 Q904 100 935 -5 L889 -24 Q860 81 779 201 L822 217 Z" /><glyph glyph-name="uni611B" unicode="&#x611b;" d="M131 430 L84 430 L84 599 L279 599 Q261 651 207 718 L245 734 Q208 732 130 730 Q128 750 119 769 Q601 785 827 832 L859 795 Q713 766 469 748 Q519 679 530 621 L487 605 Q475 664 426 735 L458 747 Q320 737 248 734 Q305 667 324 613 L295 599 L672 599 Q731 674 771 750 L814 725 Q759 644 722 599 L912 599 L912 428 L865 428 L865 557 L131 557 L131 430 ZM737 497 Q844 411 893 341 L856 314 Q803 391 702 473 L737 497 ZM561 429 Q507 475 408 521 L435 549 Q535 506 589 462 L561 429 ZM109 330 Q195 376 230 487 L269 473 Q227 347 142 299 L109 330 ZM318 199 Q382 126 502 72 Q619 124 686 199 L318 199 ZM761 218 Q692 119 555 50 Q720 -14 944 -35 Q927 -53 916 -78 Q677 -52 502 25 Q332 -47 84 -79 Q76 -55 60 -37 Q286 -12 450 50 Q348 102 285 173 Q200 111 101 64 Q82 86 65 97 Q270 183 377 313 Q330 322 330 376 L330 489 L377 489 L377 377 Q377 362 386 358 Q396 353 431 353 L602 353 Q629 353 636 366 Q644 379 646 431 Q662 421 689 415 Q685 351 669 330 Q653 310 608 310 L420 310 L428 307 Q403 275 365 239 L722 238 L731 241 L761 218 Z" /><glyph glyph-name="uni6236" unicode="&#x6236;" d="M780 299 L780 531 L231 531 L231 408 Q231 350 227 299 L780 299 ZM827 576 L827 197 L780 197 L780 254 L222 254 Q195 43 78 -74 Q63 -53 43 -40 Q183 101 183 409 L183 719 Q578 772 751 830 L793 793 Q593 730 231 684 L231 576 L827 576 Z" /><glyph glyph-name="uni2F3E" unicode="&#x2f3e;&#x6237;" d="M783 404 L783 630 L233 630 L233 464 Q233 425 232 404 L783 404 ZM832 676 L832 285 L783 285 L783 358 L230 358 Q210 75 80 -78 Q61 -59 40 -50 Q185 120 185 464 L185 676 L511 676 Q498 730 453 825 L498 838 Q544 746 560 688 L522 676 L832 676 Z" /><glyph glyph-name="uni6240" unicode="&#x6240;" d="M154 538 L154 355 L384 355 L384 538 L154 538 ZM153 310 Q145 62 77 -73 Q55 -51 37 -43 Q107 95 107 389 L107 729 Q355 760 449 810 L481 771 Q382 721 154 693 L154 583 L430 583 L430 310 L153 310 ZM948 447 L817 447 L817 -72 L770 -72 L770 447 L584 447 L584 382 Q584 69 455 -75 Q445 -61 417 -43 Q536 90 536 382 L536 727 Q791 768 892 821 L928 781 Q814 728 584 692 L584 493 L948 493 L948 447 Z" /><glyph glyph-name="uni2F3F" unicode="&#x2f3f;&#x624b;" d="M946 267 L525 267 L525 8 Q525 -47 479 -59 Q443 -70 279 -68 Q273 -45 258 -20 Q399 -23 446 -21 Q476 -20 476 8 L476 267 L56 267 L56 314 L476 314 L476 503 L121 503 L121 549 L476 549 L476 724 Q292 706 137 699 Q134 719 124 741 Q627 769 805 830 L843 791 Q723 754 525 730 L525 549 L892 549 L892 503 L525 503 L525 314 L946 314 L946 267 Z" /><glyph glyph-name="uni6253" unicode="&#x6253;" d="M422 358 L262 307 L262 3 Q262 -40 231 -52 Q208 -61 103 -61 Q101 -48 87 -16 Q174 -18 195 -16 Q215 -16 215 3 L215 293 Q107 258 61 245 L44 293 Q90 305 215 342 L215 578 L53 578 L53 624 L215 624 L215 833 L262 833 L262 624 L415 624 L415 578 L262 578 L262 355 L416 403 L422 358 ZM956 697 L767 697 L767 9 Q767 -47 725 -59 Q693 -68 539 -68 Q532 -43 518 -16 Q625 -20 691 -17 Q717 -16 717 9 L717 697 L414 697 L414 744 L956 744 L956 697 Z" /><glyph glyph-name="uni627E" unicode="&#x627e;" d="M815 630 Q772 699 677 776 L712 800 Q808 726 853 658 L815 630 ZM252 306 L252 -1 Q252 -46 221 -56 Q199 -65 94 -65 Q92 -52 78 -20 Q104 -21 186 -21 Q205 -20 205 -1 L205 292 Q103 260 56 246 L39 293 Q88 305 205 340 L205 578 L52 578 L52 624 L205 624 L205 833 L252 833 L252 624 L382 624 L382 578 L252 578 L252 354 L387 396 L393 352 L252 306 ZM874 429 Q813 296 700 173 Q769 -9 866 -16 Q907 -19 925 152 Q941 137 966 128 Q939 -75 867 -71 Q739 -62 661 134 Q545 23 410 -38 Q398 -18 373 1 Q521 61 643 183 Q597 318 571 514 L400 496 L395 541 L566 559 Q550 689 542 831 L590 831 Q598 678 613 564 L924 599 L930 553 L618 519 Q642 350 682 223 Q784 336 835 453 L874 429 Z" /><glyph glyph-name="uni62CD" unicode="&#x62cd;" d="M376 346 L243 303 L243 -8 Q243 -52 211 -65 Q184 -74 80 -73 Q76 -49 64 -28 Q153 -30 175 -28 Q195 -27 195 -8 L195 288 L55 244 L39 293 L195 338 L195 577 L54 577 L54 624 L195 624 L195 833 L243 833 L243 624 L367 624 L367 577 L243 577 L243 352 L369 390 L376 346 ZM851 31 L851 298 L476 298 L476 31 L851 31 ZM476 605 L476 344 L851 344 L851 605 L476 605 ZM900 651 L900 -65 L851 -65 L851 -15 L476 -15 L476 -72 L429 -72 L429 651 L598 651 Q627 736 647 831 L700 823 Q659 687 645 651 L900 651 Z" /><glyph glyph-name="uni6302" unicode="&#x6302;" d="M943 423 L369 423 L369 469 L626 469 L626 641 L408 641 L408 686 L626 686 L626 828 L674 828 L674 686 L891 686 L891 641 L674 641 L674 469 L943 469 L943 423 ZM239 300 L239 -1 Q239 -45 207 -56 Q185 -65 80 -65 Q78 -52 64 -20 Q90 -21 172 -21 Q192 -20 192 -1 L192 285 Q95 256 65 246 L49 293 Q150 321 192 334 L192 578 L61 578 L61 624 L192 624 L192 833 L239 833 L239 624 L354 624 L354 578 L239 578 L239 348 L359 384 L365 340 L239 300 ZM952 11 L952 -35 L321 -35 L321 11 L626 11 L626 206 L390 206 L390 251 L626 251 L626 380 L674 380 L674 251 L906 251 L906 206 L674 206 L674 11 L952 11 Z" /><glyph glyph-name="uni636E" unicode="&#x636e;" d="M229 303 L229 -8 Q229 -49 200 -62 Q173 -72 81 -71 Q78 -51 65 -26 Q146 -28 165 -26 Q184 -26 184 -7 L184 287 L52 241 L36 288 L184 337 L184 579 L47 579 L47 624 L184 624 L184 832 L229 832 L229 624 L349 624 L349 579 L229 579 L229 352 L343 391 L350 345 L229 303 ZM673 424 L673 548 L450 548 L450 488 Q450 447 449 424 L673 424 ZM450 743 L450 592 L869 592 L869 743 L450 743 ZM873 198 L527 198 L527 15 L873 15 L873 198 ZM719 381 L719 241 L918 241 L918 -70 L873 -70 L873 -27 L527 -27 L527 -75 L483 -75 L483 241 L673 241 L673 381 L448 381 Q432 81 328 -72 Q315 -57 288 -45 Q404 127 404 488 L404 787 L915 787 L915 548 L719 548 L719 424 L953 424 L953 381 L719 381 Z" /><glyph glyph-name="uni6377" unicode="&#x6377;" d="M348 362 L228 320 L228 -11 Q228 -53 197 -65 Q173 -75 80 -73 Q73 -48 63 -29 Q142 -31 164 -29 Q181 -29 181 -12 L181 304 Q85 270 49 258 L33 305 Q89 322 181 353 L181 576 L45 576 L45 622 L181 622 L181 830 L228 830 L228 622 L346 622 L346 576 L228 576 L228 370 L340 408 L348 362 ZM665 328 L838 328 L838 433 L665 433 L665 328 ZM665 475 L838 475 L838 568 L665 568 L665 475 ZM665 -18 Q708 -25 766 -25 Q932 -25 962 -24 Q951 -40 944 -69 L764 -69 Q633 -69 560 -34 Q478 5 431 103 Q387 -12 312 -82 Q301 -70 276 -52 Q393 51 426 269 L472 263 Q463 211 451 164 Q497 29 619 -7 L619 287 L405 287 L405 328 L619 328 L619 433 L349 433 L349 475 L619 475 L619 568 L405 568 L405 609 L619 609 L619 692 L361 692 L361 735 L619 735 L619 830 L665 830 L665 735 L935 735 L935 692 L665 692 L665 609 L884 609 L884 475 L959 475 L959 433 L884 433 L884 287 L665 287 L665 185 L899 185 L899 143 L665 143 L665 -18 Z" /><glyph glyph-name="uni639B" unicode="&#x639b;" d="M487 646 L349 646 L349 689 L487 689 L487 832 L532 832 L532 689 L668 689 L668 646 L532 646 L532 492 L698 492 L698 449 L323 449 L323 492 L487 492 L487 646 ZM225 321 L225 -9 Q225 -52 195 -63 Q172 -71 78 -71 Q71 -46 61 -27 Q140 -29 162 -27 Q180 -27 180 -10 L180 306 Q153 296 50 261 L34 308 Q73 320 180 356 L180 578 L46 578 L46 624 L180 624 L180 832 L225 832 L225 624 L329 624 L329 578 L225 578 L225 371 L341 411 L349 365 L225 321 ZM709 96 L712 57 L306 -18 L294 27 Q348 35 487 58 L487 223 L335 223 L335 266 L487 266 L487 413 L532 413 L532 266 L684 266 L684 223 L532 223 L532 66 L709 96 ZM943 311 Q879 373 776 455 L776 -72 L730 -72 L730 832 L776 832 L776 505 Q844 456 971 349 L943 311 Z" /><glyph glyph-name="uni641E" unicode="&#x641e;" d="M229 624 L340 624 L340 579 L229 579 L229 352 L328 385 L335 340 L229 303 L229 -8 Q229 -50 200 -62 Q173 -72 81 -71 Q78 -51 65 -26 Q146 -28 165 -26 Q184 -26 184 -7 L184 287 Q102 259 49 240 L34 287 L184 337 L184 579 L47 579 L47 624 L184 624 L184 832 L229 832 L229 624 ZM910 -22 Q910 -57 886 -66 Q867 -74 776 -74 Q773 -55 760 -35 Q833 -37 850 -35 Q865 -35 865 -21 L865 310 L425 310 L425 -73 L380 -73 L380 353 L910 353 L910 -22 ZM738 201 L546 201 L546 85 L738 85 L738 201 ZM779 46 L506 46 L506 240 L779 240 L779 46 ZM801 576 L484 576 L484 463 L801 463 L801 576 ZM846 615 L846 423 L440 423 L440 615 L846 615 ZM936 727 L936 683 L363 683 L363 727 L621 727 Q603 777 577 825 L617 836 Q650 781 668 727 L936 727 Z" /><glyph glyph-name="uni64CD" unicode="&#x64cd;" d="M769 749 L509 749 L509 620 L769 620 L769 749 ZM814 580 L465 580 L465 789 L814 789 L814 580 ZM712 352 L877 352 L877 490 L712 490 L712 352 ZM670 529 L919 529 L919 312 L670 312 L670 529 ZM561 490 L401 490 L401 352 L561 352 L561 490 ZM603 312 L360 312 L360 529 L603 529 L603 312 ZM220 308 L220 -11 Q220 -50 195 -63 Q174 -71 100 -71 Q92 -42 84 -27 L160 -27 Q174 -27 174 -12 L174 290 L61 244 L46 290 Q96 307 174 338 L174 579 L53 579 L53 624 L174 624 L174 833 L220 833 L220 624 L320 624 L320 579 L220 579 L220 356 L316 394 L324 350 L220 308 ZM701 184 Q805 59 959 1 Q946 -10 926 -37 Q766 33 660 173 L660 -75 L613 -75 L613 168 Q503 29 310 -46 Q293 -19 278 -8 Q459 51 573 184 L339 184 L339 227 L613 227 L613 308 L660 308 L660 227 L945 227 L945 184 L701 184 Z" /><glyph glyph-name="uni64DA" unicode="&#x64da;" d="M212 309 L212 -4 Q212 -44 185 -56 Q163 -65 77 -65 Q74 -47 62 -21 Q134 -23 151 -21 Q168 -21 168 -5 L168 291 L58 246 L42 293 L168 341 L168 579 L50 579 L50 624 L168 624 L168 833 L212 833 L212 624 L304 624 L304 579 L212 579 L212 358 L302 395 L311 350 L212 309 ZM414 388 Q414 77 299 -73 Q281 -55 263 -48 Q370 95 370 388 L370 660 L602 660 L602 833 L648 833 L648 764 L887 764 L887 724 L648 724 L648 660 L895 660 L903 663 L934 653 Q899 554 887 529 L848 537 Q860 563 879 620 L633 620 L633 547 L811 569 L817 533 L633 511 L633 477 Q633 462 642 458 Q650 453 681 453 L837 453 Q858 453 864 462 Q871 471 873 506 Q887 497 911 491 Q908 447 894 431 Q880 416 843 416 L679 416 Q626 416 608 427 Q590 439 590 477 L590 506 L449 489 L444 525 L590 542 L590 620 L414 620 L414 388 ZM921 275 Q870 237 811 202 Q861 57 969 7 Q946 -16 939 -27 Q831 31 781 183 Q751 167 738 161 Q761 96 755 34 Q749 -26 721 -51 Q693 -75 653 -75 Q638 -75 596 -73 Q594 -49 584 -34 Q617 -38 645 -38 Q675 -38 689 -23 Q735 14 707 128 Q590 18 427 -50 Q419 -29 403 -15 Q582 45 695 165 Q685 193 671 214 Q570 128 444 81 Q433 102 420 113 Q557 155 652 241 Q642 254 619 275 Q536 226 456 201 L437 231 Q580 280 650 338 L442 338 L442 377 L918 377 L918 338 L701 338 Q678 315 649 296 Q697 252 727 191 Q813 240 888 299 L921 275 Z" /><glyph glyph-name="uni6548" unicode="&#x6548;" d="M291 685 Q263 749 207 813 L244 833 Q304 766 331 707 L291 685 ZM506 638 L66 638 L66 683 L506 683 L506 638 ZM452 417 Q419 490 345 578 L381 598 Q457 513 491 440 L452 417 ZM223 586 Q169 458 82 360 Q64 378 46 388 Q130 477 181 598 L223 586 ZM417 32 Q385 95 308 192 Q218 48 83 -45 Q65 -24 48 -12 Q186 77 277 229 Q208 309 147 369 L183 395 Q239 341 301 272 Q340 349 365 432 L410 422 Q381 325 332 235 Q418 134 456 63 L417 32 ZM643 601 Q631 564 617 529 Q654 347 721 219 Q802 362 839 601 L643 601 ZM886 601 Q844 331 747 173 Q834 29 957 -32 Q948 -39 923 -70 Q805 -6 720 131 Q629 5 479 -75 Q470 -60 447 -37 Q606 40 694 175 Q631 292 589 460 Q558 392 525 345 Q506 367 489 378 Q599 531 652 834 L698 827 Q684 747 656 647 L948 647 L948 601 L886 601 Z" /><glyph glyph-name="uni6570" unicode="&#x6570;" d="M496 789 Q441 698 407 656 L374 672 Q426 746 454 810 L496 789 ZM168 655 Q151 717 101 789 L138 803 Q191 731 205 671 L168 655 ZM272 551 Q188 438 79 380 Q70 398 52 419 Q177 476 258 600 L56 600 L56 642 L272 642 L272 834 L318 834 L318 642 L531 642 L531 600 L318 599 Q460 510 501 478 L473 441 Q432 478 318 558 L318 405 L272 405 L272 551 ZM245 273 Q218 220 191 176 Q272 143 324 115 Q396 184 430 273 L245 273 ZM424 6 Q381 37 329 65 Q225 -22 76 -61 Q67 -39 52 -24 Q194 11 290 86 Q198 132 130 156 Q172 221 198 273 L77 273 L77 315 L219 315 Q239 358 247 384 L292 376 Q281 349 265 315 L450 315 L459 318 L486 306 Q449 184 363 96 Q423 63 457 40 L424 6 ZM634 588 Q666 389 731 250 Q793 382 824 588 L634 588 ZM870 588 Q833 350 754 200 Q838 42 964 -26 Q947 -39 930 -64 Q811 6 729 156 Q638 11 483 -74 Q468 -51 453 -35 Q616 47 705 201 Q646 325 607 508 Q573 416 530 349 Q514 363 490 377 Q593 520 638 820 L684 813 Q669 721 646 634 L940 634 L940 588 L870 588 Z" /><glyph glyph-name="uni6578" unicode="&#x6578;" d="M257 195 Q219 143 200 121 Q264 101 335 70 Q413 126 447 195 L257 195 ZM506 224 Q467 123 376 52 Q456 16 493 -8 L458 -39 Q416 -13 338 24 Q238 -41 82 -74 Q74 -54 59 -37 Q194 -14 294 43 Q203 82 133 102 Q169 143 206 195 L84 195 L84 234 L232 234 Q260 277 271 300 L315 288 Q303 264 283 234 L471 234 L480 237 L506 224 ZM329 416 L329 338 L487 338 L487 416 L329 416 ZM136 338 L288 338 L288 416 L136 416 L136 338 ZM288 541 L288 616 L165 616 L165 541 L288 541 ZM165 720 L165 654 L288 654 L288 720 L165 720 ZM329 720 L329 654 L461 654 L461 720 L329 720 ZM461 541 L461 616 L329 616 L329 541 L461 541 ZM329 454 L531 454 L531 301 L93 301 L93 454 L288 454 L288 503 L122 503 L122 615 L58 615 L58 655 L122 655 L122 758 L288 758 L288 832 L329 832 L329 758 L505 758 L505 655 L574 655 L574 615 L505 615 L505 503 L329 503 L329 454 ZM682 590 Q710 394 758 261 Q804 390 828 592 L683 592 L682 590 ZM873 592 Q843 349 782 202 Q851 43 956 -26 Q938 -41 924 -63 Q825 7 759 151 Q690 10 576 -78 Q566 -60 547 -41 Q671 49 736 204 Q685 334 655 507 Q629 433 593 372 Q576 389 556 401 Q642 537 688 822 L733 815 Q718 730 695 636 L945 636 L945 592 L873 592 Z" /><glyph glyph-name="uni65B0" unicode="&#x65b0;" d="M502 682 L67 682 L67 725 L280 725 Q256 777 228 823 L271 835 Q315 764 332 725 L502 725 L502 682 ZM184 503 Q175 578 140 660 L180 669 Q217 592 226 515 L184 503 ZM193 232 Q155 117 89 38 Q68 55 52 64 Q114 132 151 242 L193 232 ZM310 286 L310 7 Q310 -30 287 -41 Q268 -49 193 -49 Q188 -29 176 -5 Q213 -6 253 -6 Q266 -6 266 7 L266 286 L57 286 L57 330 L266 330 L266 451 L53 451 L53 494 L333 494 Q372 589 393 671 L439 659 Q400 545 379 494 L518 494 L518 451 L310 451 L310 330 L510 330 L510 286 L310 286 ZM399 244 Q458 154 485 78 L447 59 Q424 128 363 227 L399 244 ZM951 447 L832 447 L832 -68 L785 -68 L785 447 L601 447 L601 399 Q601 85 492 -65 Q480 -48 456 -35 Q556 102 556 399 L556 736 Q774 771 872 810 L914 774 Q788 730 601 704 L601 492 L951 492 L951 447 Z" /><glyph glyph-name="uni2F45" unicode="&#x2f45;&#x65b9;" d="M525 663 Q506 720 455 817 L500 834 Q552 742 572 684 L525 663 ZM414 605 Q406 483 397 423 L823 423 Q822 404 821 397 Q793 16 743 -37 Q719 -60 669 -63 Q610 -67 504 -57 Q502 -31 487 -11 Q572 -19 656 -19 Q687 -19 702 -8 Q745 31 771 376 L389 376 Q333 47 90 -75 Q78 -54 54 -38 Q232 47 303 242 Q350 370 362 605 L79 605 L79 652 L926 652 L926 605 L414 605 Z" /><glyph glyph-name="uni65CF" unicode="&#x65cf;" d="M273 673 Q231 741 168 812 L207 832 Q282 747 313 695 L273 673 ZM399 435 Q387 11 358 -28 Q341 -52 306 -53 Q285 -55 213 -53 Q211 -24 200 -8 Q240 -11 290 -11 Q310 -12 319 0 Q343 34 353 417 L213 417 Q196 61 84 -74 Q69 -56 46 -42 Q168 100 172 618 L48 618 L48 663 L429 663 L429 618 L219 618 Q217 514 215 460 L399 460 L399 435 ZM543 649 Q502 567 450 504 Q432 520 411 532 Q515 644 566 834 L611 824 Q589 748 564 694 L946 694 L946 649 L543 649 ZM734 235 Q798 34 958 -29 Q942 -40 926 -67 Q768 5 702 203 Q656 29 448 -72 Q439 -59 417 -37 Q629 60 663 235 L443 235 L443 280 L670 280 Q672 301 672 340 L672 454 L573 454 Q536 387 492 342 Q474 356 452 367 Q543 455 591 608 L637 598 Q620 546 596 499 L897 499 L897 454 L718 454 L718 340 Q718 322 716 280 L941 280 L941 235 L734 235 Z" /><glyph glyph-name="uni66F4" unicode="&#x66f4;&#xf901;" d="M477 302 Q480 340 480 379 L480 425 L209 425 L209 302 L477 302 ZM209 466 L480 466 L480 588 L209 588 L209 466 ZM529 588 L529 466 L820 466 L820 588 L529 588 ZM820 425 L529 425 L529 379 Q529 340 526 302 L820 302 L820 425 ZM520 260 Q500 146 420 73 Q578 -11 959 -27 Q943 -47 938 -75 Q546 -54 382 43 Q274 -32 82 -74 Q71 -53 53 -32 Q242 7 339 71 Q255 133 205 228 L245 244 Q296 153 377 99 Q450 161 471 260 L162 260 L162 631 L480 631 L480 730 L69 730 L69 775 L930 775 L930 730 L529 730 L529 631 L868 631 L868 260 L520 260 Z" /><glyph glyph-name="uni6709" unicode="&#x6709;" d="M766 470 L314 470 L314 344 L766 344 L766 470 ZM766 173 L766 301 L314 301 L314 173 L766 173 ZM390 652 Q359 582 317 514 L813 514 L813 -1 Q813 -51 777 -61 Q748 -70 605 -70 Q602 -58 588 -22 Q686 -26 743 -23 Q766 -23 766 0 L766 129 L314 129 L314 -73 L267 -73 L267 442 Q186 332 80 256 Q72 271 50 293 Q231 418 340 652 L70 652 L70 698 L360 698 Q385 756 407 832 L454 821 Q432 749 410 698 L935 698 L935 652 L390 652 Z" /><glyph glyph-name="uni670D" unicode="&#x670d;" d="M348 314 L348 511 L164 511 L164 439 Q164 380 161 314 L348 314 ZM164 749 L164 557 L348 557 L348 749 L164 749 ZM394 -8 Q394 -52 363 -65 Q337 -74 233 -73 Q231 -53 218 -28 Q306 -30 328 -28 Q348 -27 348 -7 L348 268 L158 268 Q143 49 82 -75 Q64 -57 42 -51 Q119 105 119 439 L119 794 L394 794 L394 -8 ZM626 411 Q673 260 754 146 Q838 263 877 411 L626 411 ZM930 447 Q888 251 781 110 Q860 13 960 -38 Q942 -53 927 -75 Q834 -24 754 75 Q679 -11 588 -64 Q578 -47 559 -29 Q650 19 727 111 Q636 237 583 411 L547 411 L547 -73 L500 -73 L500 791 L902 791 L902 598 Q902 557 871 547 Q845 539 723 539 Q720 554 705 582 Q814 580 836 582 Q856 582 856 598 L856 746 L547 746 L547 456 L893 456 L902 458 L930 447 Z" /><glyph glyph-name="uni673A" unicode="&#x673a;" d="M402 304 Q371 360 282 486 L282 -72 L235 -72 L235 475 Q162 250 72 138 Q61 160 42 179 Q165 334 227 589 L58 589 L58 636 L235 636 L235 833 L282 833 L282 636 L437 636 L437 589 L282 589 L282 552 Q367 450 435 349 L402 304 ZM873 -18 Q887 -18 897 -10 Q905 -2 908 29 Q912 79 912 180 Q928 164 953 157 Q951 27 946 1 Q941 -35 922 -51 Q904 -63 876 -63 L831 -63 Q803 -63 782 -48 Q763 -33 763 64 L763 730 L548 730 L548 458 Q548 95 386 -75 Q370 -54 349 -42 Q500 115 500 458 L500 776 L811 776 L811 52 Q811 -5 818 -12 Q829 -18 839 -18 L873 -18 Z" /><glyph glyph-name="uni67E5" unicode="&#x67e5;" d="M83 6 L923 6 L923 -38 L83 -38 L83 6 ZM722 356 L279 356 L279 254 L722 254 L722 356 ZM722 216 L279 216 L279 113 L722 113 L722 216 ZM770 395 L770 74 L232 74 L232 395 L770 395 ZM583 652 Q729 490 956 416 Q938 399 924 376 Q678 466 529 652 L522 652 L522 427 L475 427 L475 652 L468 652 Q323 466 77 367 Q60 392 45 406 Q269 486 412 652 L62 652 L62 696 L475 696 L475 832 L522 832 L522 696 L940 696 L940 652 L583 652 Z" /><glyph glyph-name="uni6A5F" unicode="&#x6a5f;" d="M901 399 Q898 412 888 446 Q708 421 693 412 Q682 449 678 456 Q700 460 728 501 Q758 536 798 601 Q702 588 682 578 Q676 605 669 619 Q682 620 704 651 Q757 730 784 812 L822 797 Q777 696 730 630 L822 641 Q839 672 860 713 L900 697 Q824 557 746 465 L875 481 Q861 517 843 555 L876 564 Q920 480 937 414 L901 399 ZM547 379 L534 424 Q355 399 340 391 Q337 414 329 432 Q345 435 380 476 Q411 512 456 579 Q345 563 333 555 Q330 569 320 596 Q334 598 358 632 Q416 710 454 810 L492 795 Q438 683 384 608 L481 619 Q504 655 519 688 L557 671 Q476 535 394 444 L521 459 Q508 496 490 534 L524 544 Q564 466 583 393 L547 379 ZM275 316 Q260 354 214 445 L214 -72 L172 -72 L172 462 Q124 253 62 146 Q50 175 36 193 Q121 337 165 591 L55 591 L55 637 L172 637 L172 833 L214 833 L214 637 L302 637 L302 591 L214 591 L214 512 Q249 459 302 356 L275 316 ZM757 419 Q829 382 870 346 L844 316 Q807 351 731 394 L757 419 ZM879 238 Q834 147 748 70 Q801 -18 876 -24 Q907 -27 921 87 Q942 68 957 64 Q934 -76 878 -73 Q780 -67 712 41 Q627 -25 526 -66 Q510 -46 498 -36 Q613 11 694 78 Q658 148 632 275 L450 275 Q450 254 447 231 Q537 161 595 100 L563 69 Q517 122 439 185 Q407 28 286 -70 Q276 -51 254 -38 Q397 76 407 275 L321 275 L321 316 L408 316 L408 383 L451 383 L451 316 L624 316 Q591 498 579 826 L622 826 Q630 514 667 316 L929 316 L929 275 L675 275 Q698 176 728 108 Q801 178 835 253 L879 238 Z" /><glyph glyph-name="uni2F4C" unicode="&#x2f4c;&#x6b62;" d="M942 23 L942 -24 L55 -24 L55 23 L200 23 L200 605 L249 605 L249 23 L512 23 L512 829 L561 829 L561 485 L904 485 L904 438 L561 438 L561 23 L942 23 Z" /><glyph glyph-name="uni6B65" unicode="&#x6b65;" d="M836 389 Q658 25 83 -65 Q72 -40 57 -20 Q619 60 792 410 L836 389 ZM352 404 Q272 262 141 152 Q107 186 104 188 Q235 290 307 420 L352 404 ZM928 518 L928 471 L527 471 L527 142 L478 142 L478 471 L67 471 L67 518 L225 518 L225 747 L273 747 L273 518 L479 518 L479 833 L528 833 L528 710 L825 710 L825 664 L528 664 L528 518 L928 518 Z" /><glyph glyph-name="uni6CE8" unicode="&#x6ce8;" d="M639 650 Q615 722 549 819 L592 837 Q660 739 685 671 L639 650 ZM288 674 Q218 731 98 787 L125 821 Q255 762 316 714 L288 674 ZM231 404 Q159 460 48 513 L75 548 Q199 489 257 444 L231 404 ZM303 267 Q210 83 119 -60 L78 -27 Q171 105 269 299 L303 267 ZM955 6 L955 -40 L293 -40 L293 6 L600 6 L600 295 L363 295 L363 341 L600 341 L600 594 L325 594 L325 640 L932 640 L932 594 L650 594 L650 341 L896 341 L896 295 L650 295 L650 6 L955 6 Z" /><glyph glyph-name="uni6E05" unicode="&#x6e05;" d="M205 406 Q149 458 43 516 L71 549 Q172 498 235 443 L205 406 ZM72 -34 Q158 112 234 297 L272 267 Q200 95 115 -64 L72 -34 ZM117 819 Q225 761 277 715 L248 678 Q190 731 89 785 L117 819 ZM805 128 L805 224 L408 224 L408 128 L805 128 ZM408 354 L408 263 L805 263 L805 354 L408 354 ZM852 -8 Q852 -49 822 -59 Q796 -68 684 -66 Q681 -47 668 -24 Q759 -27 787 -25 Q805 -24 805 -7 L805 88 L408 88 L408 -71 L363 -71 L363 395 L852 395 L852 -8 ZM941 505 L941 464 L279 464 L279 505 L585 505 L585 591 L339 591 L339 630 L585 630 L585 708 L317 708 L317 748 L585 748 L585 832 L632 832 L632 748 L908 748 L908 708 L632 708 L632 630 L884 630 L884 591 L632 591 L632 505 L941 505 Z" /><glyph glyph-name="uni7167" unicode="&#x7167;" d="M149 742 L149 541 L330 541 L330 742 L149 742 ZM330 272 L330 497 L149 497 L149 272 L330 272 ZM149 173 L103 173 L103 787 L376 787 L376 227 L149 227 L149 173 ZM50 -56 Q128 25 186 150 L230 136 Q165 2 95 -78 L50 -56 ZM396 128 Q417 16 419 -63 L373 -70 Q371 17 351 125 L396 128 ZM658 744 Q641 644 591 586 Q536 521 428 488 Q414 511 398 524 Q579 574 610 744 L429 744 L429 788 L910 788 Q910 773 909 766 Q896 565 868 537 Q850 519 816 518 Q765 516 704 521 Q702 542 691 563 Q739 558 799 558 Q823 558 830 566 Q850 587 862 744 L658 744 ZM835 418 L504 418 L504 239 L835 239 L835 418 ZM882 197 L458 197 L458 460 L882 460 L882 197 ZM610 138 Q662 24 676 -56 L630 -68 Q611 27 565 128 L610 138 ZM810 156 Q902 41 948 -55 L903 -76 Q858 21 767 137 L810 156 Z" /><glyph glyph-name="uni7231" unicode="&#x7231;" d="M853 780 Q602 734 128 726 Q124 747 116 766 Q595 778 835 820 L853 780 ZM137 434 L94 434 L94 590 L271 590 Q255 646 228 705 L267 718 Q302 645 317 590 L497 590 Q480 652 456 715 L495 725 Q523 658 540 590 L656 590 Q712 671 744 742 L789 725 Q733 631 703 590 L911 590 L911 434 L868 434 L868 547 L137 547 L137 434 ZM382 223 Q450 145 565 89 Q666 142 727 223 L382 223 ZM794 249 Q736 143 612 67 Q747 11 921 -11 Q906 -28 894 -55 Q709 -28 565 41 Q438 -22 277 -53 Q267 -26 256 -12 Q397 11 518 65 Q406 127 338 213 Q246 36 79 -62 Q70 -44 49 -23 Q264 93 351 366 L158 366 L158 410 L365 410 L376 460 Q383 491 387 512 L434 505 Q418 428 413 410 L843 410 L843 366 L400 366 Q388 329 364 267 L759 267 L768 269 L794 249 Z" /><glyph glyph-name="uni73B0" unicode="&#x73b0;" d="M481 253 L435 253 L435 782 L860 782 L860 253 L813 253 L813 738 L481 738 L481 253 ZM397 142 L69 39 L56 86 L205 129 L205 424 L80 424 L80 469 L205 469 L205 713 L65 713 L65 759 L382 759 L382 713 L251 713 L251 469 L362 469 L362 424 L251 424 L251 144 L391 187 L397 142 ZM665 425 Q665 77 366 -76 Q354 -54 336 -40 Q505 46 571 182 Q620 281 620 426 L620 639 L665 639 L665 425 ZM850 -4 Q880 -4 889 28 Q897 58 901 171 Q926 155 943 151 Q937 27 922 -5 Q906 -43 850 -43 L747 -43 Q701 -43 683 -29 Q664 -13 664 27 L664 276 L709 276 L709 31 Q709 10 718 3 Q726 -4 750 -4 L850 -4 Z" /><glyph glyph-name="uni73FE" unicode="&#x73fe;" d="M407 199 L53 93 L40 141 Q100 157 205 187 L205 455 L68 455 L68 501 L205 501 L205 736 L55 736 L55 782 L395 782 L395 736 L252 736 L252 501 L386 501 L386 455 L252 455 L252 201 L400 244 L407 199 ZM490 286 L855 286 L855 412 L490 412 L490 286 ZM490 454 L855 454 L855 577 L490 577 L490 454 ZM490 620 L855 620 L855 742 L490 742 L490 620 ZM890 -25 Q910 -25 916 -5 Q923 16 924 94 Q939 83 967 76 Q964 -11 950 -39 Q936 -68 895 -68 L788 -68 Q741 -68 726 -54 Q711 -41 711 1 L711 243 L591 243 Q573 114 520 42 Q458 -41 328 -82 Q318 -62 297 -41 Q420 -6 478 68 Q527 130 543 243 L444 243 L444 785 L902 785 L902 243 L758 243 L758 1 Q758 -16 764 -20 Q770 -25 792 -25 L890 -25 Z" /><glyph glyph-name="uni7406" unicode="&#x7406;&#xf9e4;" d="M357 140 Q194 85 56 37 L43 86 L185 131 L185 424 L63 424 L63 469 L185 469 L185 713 L53 713 L53 759 L352 759 L352 713 L231 713 L231 469 L340 469 L340 424 L231 424 L231 147 Q309 172 349 186 L357 140 ZM454 393 L636 393 L636 547 L454 547 L454 393 ZM454 590 L636 590 L636 741 L454 741 L454 590 ZM865 741 L679 741 L679 590 L865 590 L865 741 ZM865 547 L679 547 L679 393 L865 393 L865 547 ZM961 6 L961 -39 L312 -39 L312 6 L633 6 L633 167 L393 167 L393 212 L633 212 L633 349 L409 349 L409 784 L911 784 L911 349 L681 349 L681 212 L928 212 L928 167 L681 167 L681 6 L961 6 Z" /><glyph glyph-name="uni2F64" unicode="&#x2f64;&#x7528;" d="M829 287 L829 480 L526 480 L526 287 L829 287 ZM478 287 L478 480 L209 480 L209 398 Q209 338 205 287 L478 287 ZM209 714 L209 526 L478 526 L478 714 L209 714 ZM829 714 L526 714 L526 526 L829 526 L829 714 ZM877 5 Q877 -47 836 -60 Q804 -70 653 -68 Q652 -50 636 -21 Q746 -24 803 -21 Q829 -21 829 5 L829 241 L526 241 L526 -65 L478 -65 L478 241 L201 241 Q175 34 76 -79 Q63 -58 39 -45 Q161 92 161 398 L161 760 L877 760 L877 5 Z" /><glyph glyph-name="uni7535" unicode="&#x7535;" d="M466 250 L466 424 L186 424 L186 250 L466 250 ZM186 640 L186 470 L466 470 L466 640 L186 640 ZM515 640 L515 470 L809 470 L809 640 L515 640 ZM809 250 L809 424 L515 424 L515 250 L809 250 ZM831 -4 Q873 -4 887 31 Q900 63 905 168 Q930 152 954 146 Q945 29 924 -8 Q900 -52 830 -52 L591 -52 Q518 -52 492 -28 Q466 -4 466 67 L466 203 L186 203 L186 140 L136 140 L136 687 L466 687 L466 834 L515 834 L515 687 L857 687 L857 203 L515 203 L515 65 Q515 23 529 10 Q544 -4 590 -4 L831 -4 Z" /><glyph glyph-name="uni7559" unicode="&#x7559;" d="M437 426 Q429 452 408 492 Q138 415 115 401 Q105 421 88 440 Q120 464 120 512 L120 743 Q311 782 407 828 L444 793 Q349 751 167 712 L167 472 L388 530 Q351 596 319 638 L359 654 Q447 538 481 446 L437 426 ZM224 292 L224 173 L476 173 L476 292 L224 292 ZM783 292 L522 292 L522 173 L783 173 L783 292 ZM783 9 L783 133 L522 133 L522 9 L783 9 ZM476 9 L476 133 L224 133 L224 9 L476 9 ZM176 335 L833 335 L833 -68 L783 -68 L783 -33 L224 -33 L224 -72 L176 -72 L176 335 ZM908 772 Q908 756 907 748 Q894 456 865 423 Q847 403 812 400 Q770 398 701 403 Q699 427 688 446 Q736 442 794 442 Q818 441 826 452 Q849 479 860 728 L678 728 Q664 592 622 513 Q571 418 466 370 Q457 390 437 404 Q535 446 581 533 Q620 604 632 728 L501 728 L501 772 L908 772 Z" /><glyph glyph-name="uni75D5" unicode="&#x75d5;" d="M130 436 Q103 514 48 623 L87 639 Q146 527 171 458 L130 436 ZM248 677 L248 424 Q248 87 91 -71 Q68 -45 55 -37 Q169 77 193 284 L50 204 L29 246 Q42 252 197 332 Q200 382 200 425 L200 722 L562 722 Q545 775 525 821 L574 833 Q603 769 616 722 L945 722 L945 677 L248 677 ZM393 295 L789 295 L789 403 L393 403 L393 295 ZM393 546 L393 443 L789 443 L789 546 L393 546 ZM919 228 Q832 159 708 90 Q804 -1 959 -33 Q939 -53 930 -73 Q647 -7 554 254 L393 254 L393 -9 L610 46 Q611 31 616 5 Q356 -66 339 -79 Q333 -62 316 -37 Q346 -19 346 25 L346 588 L835 588 L835 254 L600 254 Q628 178 682 116 Q803 186 885 256 L919 228 Z" /><glyph glyph-name="uni767B" unicode="&#x767b;" d="M464 779 Q358 514 63 376 Q50 398 33 413 Q155 465 255 562 Q198 622 115 672 L142 698 Q227 651 285 590 Q359 667 399 750 L107 750 L107 793 L423 793 L433 796 L464 779 ZM719 365 L264 365 L264 216 L719 216 L719 365 ZM768 173 L216 173 L216 407 L768 407 L768 173 ZM353 4 Q335 72 289 142 L333 156 Q384 76 399 20 L353 4 ZM317 548 L683 548 L683 505 L317 505 L317 548 ZM715 146 Q667 49 635 -4 L940 -4 L940 -48 L62 -48 L62 -4 L586 -4 Q639 84 669 161 L715 146 ZM925 680 Q853 611 762 551 Q858 469 963 426 Q952 417 929 386 Q647 512 507 816 L548 830 Q580 761 629 694 Q714 759 776 824 L813 798 Q742 729 652 665 Q688 621 733 577 Q819 637 888 706 L925 680 Z" /><glyph glyph-name="uni7684" unicode="&#x7684;" d="M380 629 L141 629 L141 390 L380 390 L380 629 ZM380 78 L380 346 L141 346 L141 78 L380 78 ZM306 824 Q271 721 252 673 L426 673 L426 33 L141 33 L141 -49 L96 -49 L96 673 L207 673 Q239 762 255 836 L306 824 ZM917 645 Q895 39 846 -18 Q822 -46 776 -49 Q722 -53 632 -46 Q628 -16 616 1 Q695 -5 763 -5 Q793 -5 805 10 Q850 59 870 628 L590 628 Q544 516 492 442 Q485 448 451 468 Q551 598 604 840 L651 829 Q632 745 606 673 L917 673 L917 645 ZM722 199 Q667 303 560 432 L599 454 Q716 311 762 225 L722 199 Z" /><glyph glyph-name="uni7801" unicode="&#x7801;" d="M168 425 L168 100 L312 100 L312 425 L168 425 ZM56 774 L389 774 L389 729 L236 729 Q206 575 167 469 L356 469 L356 56 L168 56 L168 -29 L124 -29 L124 367 Q98 313 64 267 Q55 291 36 311 Q138 447 189 729 L56 729 L56 774 ZM800 153 L405 153 L405 198 L800 198 L800 153 ZM933 393 L931 367 Q899 9 848 -44 Q825 -66 786 -67 Q750 -70 666 -65 Q664 -37 653 -19 Q704 -25 771 -25 Q798 -25 809 -14 Q855 31 882 349 L475 350 L462 350 Q481 468 494 648 L538 644 Q528 516 513 393 L755 393 Q777 556 792 724 L446 724 L446 769 L801 769 L809 772 L842 767 Q828 596 801 393 L933 393 Z" /><glyph glyph-name="uni78BC" unicode="&#x78bc;" d="M172 428 L172 105 L327 105 L327 428 L172 428 ZM172 61 L172 -20 L127 -20 L127 357 Q95 284 64 238 Q52 253 29 274 Q132 422 178 734 L55 734 L55 779 L413 779 L413 734 L227 734 Q202 583 168 473 L372 473 L372 61 L172 61 ZM370 -7 Q430 56 447 214 L486 205 Q464 32 405 -31 L370 -7 ZM580 196 Q601 94 599 11 L560 4 Q562 88 543 190 L580 196 ZM684 209 Q722 129 736 53 L700 41 Q686 112 650 199 L684 209 ZM506 743 L506 631 L668 631 L668 743 L506 743 ZM668 589 L506 589 L506 476 L668 476 L668 589 ZM668 434 L506 434 L506 320 L668 320 L668 434 ZM934 320 L933 295 Q916 -14 882 -52 Q862 -72 825 -73 Q790 -76 716 -71 Q714 -47 702 -29 Q750 -34 812 -34 Q835 -34 844 -24 Q871 3 886 275 L462 275 L461 299 L461 788 L916 788 L916 743 L713 743 L713 631 L897 631 L897 589 L713 589 L713 476 L897 476 L897 434 L713 434 L713 320 L934 320 ZM824 98 Q807 143 750 222 L780 236 Q829 177 858 116 L824 98 Z" /><glyph glyph-name="uni7981" unicode="&#x7981;" d="M257 635 Q180 503 77 430 Q62 450 45 464 Q159 533 238 681 L81 681 L81 724 L257 724 L257 834 L303 834 L303 724 L448 724 L448 681 L303 681 L303 667 Q368 623 461 548 L432 514 Q387 559 303 622 L303 416 L257 416 L257 635 ZM187 378 L829 378 L829 335 L187 335 L187 378 ZM313 128 Q237 23 107 -59 Q92 -44 68 -28 Q198 45 268 143 L313 128 ZM705 144 Q840 49 916 -32 L880 -59 Q804 23 669 119 L705 144 ZM71 237 L933 237 L933 193 L527 193 L527 -14 Q527 -57 493 -67 Q465 -75 336 -75 Q334 -66 319 -31 Q425 -34 459 -32 Q480 -31 480 -14 L480 193 L71 193 L71 237 ZM751 681 Q834 544 949 471 Q927 454 916 438 Q813 511 731 644 L731 416 L685 416 L685 644 Q603 512 486 437 Q475 454 456 471 Q578 538 663 681 L502 681 L502 724 L685 724 L685 834 L731 834 L731 724 L914 724 L914 681 L751 681 Z" /><glyph glyph-name="uni79FB" unicode="&#x79fb;" d="M587 691 Q517 625 422 572 Q401 598 387 605 Q563 692 646 833 L697 824 Q662 771 629 734 L848 733 L855 736 L885 718 Q771 477 410 383 Q403 400 384 421 Q516 452 625 514 Q581 555 516 599 L551 623 Q613 586 665 538 Q764 602 820 691 L587 691 ZM349 272 Q322 322 259 416 L259 -75 L214 -75 L214 405 Q147 214 71 114 Q61 134 42 155 Q144 281 207 499 L57 499 L57 545 L214 545 L214 733 Q144 716 82 707 Q77 725 65 745 Q250 777 343 822 L377 785 Q345 769 259 744 L259 545 L387 545 L387 499 L259 499 L259 471 Q319 398 380 311 L349 272 ZM948 366 Q832 24 384 -78 Q378 -57 358 -35 Q550 1 689 98 Q642 151 562 206 L598 231 Q677 180 726 125 Q834 213 885 336 L661 336 Q564 238 432 173 Q419 193 400 207 Q615 305 711 473 L762 465 Q741 431 701 380 L908 380 L917 382 L948 366 Z" /><glyph glyph-name="uni7AEF" unicode="&#x7aef;" d="M915 556 L428 556 L428 781 L473 781 L473 600 L639 600 L639 831 L685 831 L685 600 L868 600 L868 781 L915 781 L915 556 ZM233 657 Q210 725 162 808 L204 822 Q257 734 276 674 L233 657 ZM390 592 L57 592 L57 637 L390 637 L390 592 ZM144 158 Q138 320 93 531 L133 538 Q179 329 185 165 L144 158 ZM395 166 L400 121 L67 32 L54 80 Q191 113 240 126 Q282 303 309 549 L353 539 Q315 280 280 137 L395 166 ZM690 424 Q680 388 662 316 L927 316 L927 -24 Q927 -57 906 -66 Q887 -75 818 -75 Q815 -63 801 -35 Q858 -37 871 -35 Q883 -35 883 -23 L883 272 L767 272 L767 -59 L726 -59 L726 272 L612 272 L612 -62 L571 -62 L571 272 L461 272 L461 -73 L416 -73 L416 316 L616 316 Q627 359 636 424 L380 424 L380 469 L952 469 L952 424 L690 424 Z" /><glyph glyph-name="uni7B49" unicode="&#x7b49;" d="M178 699 Q136 624 84 569 Q65 585 44 596 Q137 686 192 836 L238 824 Q216 770 202 742 L488 742 L488 699 L288 699 Q316 634 325 593 L280 579 Q270 630 239 699 L178 699 ZM266 167 Q383 99 448 15 L410 -16 Q351 67 231 140 L266 167 ZM730 334 L730 229 L928 229 L928 185 L730 185 L730 -6 Q730 -53 693 -64 Q659 -73 523 -73 Q519 -55 503 -26 Q628 -29 660 -26 Q682 -25 682 -6 L682 185 L81 185 L81 229 L682 229 L682 334 L53 334 L53 378 L475 378 L475 487 L150 487 L150 531 L475 531 L475 591 L470 586 Q448 605 430 616 Q528 698 576 836 L622 825 Q607 783 585 742 L940 742 L940 699 L698 699 Q748 634 763 590 L721 572 Q699 628 646 699 L561 699 Q532 651 494 610 L524 610 L524 531 L856 531 L856 487 L524 487 L524 378 L952 378 L952 334 L730 334 Z" /><glyph glyph-name="uni7B7E" unicode="&#x7b7e;" d="M549 698 Q521 653 482 614 Q476 620 443 641 Q527 718 569 836 L615 825 Q597 776 575 740 L935 740 L935 698 L715 698 Q773 625 792 571 L748 557 Q724 618 663 698 L549 698 ZM184 698 Q140 608 85 544 Q63 563 45 571 Q140 672 192 836 L237 824 Q221 780 205 740 L474 740 L474 698 L299 698 Q341 619 354 571 L309 559 Q295 615 250 698 L184 698 ZM551 615 Q541 602 527 588 Q694 440 957 367 Q943 353 925 326 Q677 403 500 562 Q331 401 72 315 Q54 343 42 354 Q359 451 511 635 L551 615 ZM701 351 L299 351 L299 394 L701 394 L701 351 ZM524 74 Q498 168 431 287 L469 301 Q539 183 565 91 L524 74 ZM223 273 Q306 160 343 71 L303 50 Q262 150 185 255 L223 273 ZM816 283 Q735 120 651 -2 L932 -2 L932 -46 L65 -46 L65 -2 L595 -2 Q690 124 772 296 L816 283 Z" /><glyph glyph-name="uni7B80" unicode="&#x7b80;" d="M205 697 Q156 618 102 569 Q82 589 62 598 Q170 687 219 834 L266 822 Q254 787 230 740 L486 740 L486 697 L335 697 Q369 636 380 599 L337 583 Q323 630 285 697 L205 697 ZM119 457 L166 457 L166 -72 L119 -72 L119 457 ZM205 586 Q283 508 311 459 L272 434 Q240 493 169 563 L205 586 ZM362 355 L362 253 L640 253 L640 355 L362 355 ZM640 103 L640 213 L362 213 L362 103 L640 103 ZM362 62 L362 7 L317 7 L317 396 L686 396 L686 62 L362 62 ZM879 -2 Q879 -53 841 -63 Q816 -70 666 -70 Q660 -43 648 -26 Q776 -29 808 -26 Q832 -25 832 -3 L832 513 L348 513 L348 557 L879 557 L879 -2 ZM916 741 L916 698 L735 698 Q774 642 791 602 L748 583 Q724 642 682 698 L588 698 Q549 632 507 591 Q489 605 467 619 Q556 700 596 833 L643 822 Q629 780 611 741 L916 741 Z" /><glyph glyph-name="uni7BA1" unicode="&#x7ba1;" d="M173 705 Q136 627 94 580 Q76 593 53 604 Q132 688 172 833 L218 825 Q205 782 191 745 L477 745 L477 705 L308 705 Q338 654 353 607 L312 593 Q297 644 262 705 L173 705 ZM270 126 L270 6 L788 6 L788 126 L270 126 ZM270 397 L270 291 L736 291 L736 397 L270 397 ZM270 166 L835 166 L835 -70 L788 -70 L788 -35 L270 -35 L270 -73 L222 -73 L222 437 L783 437 L783 250 L270 250 L270 166 ZM495 628 Q519 593 535 551 L904 551 L904 393 L857 393 L857 510 L166 510 L166 393 L119 393 L119 551 L484 551 Q475 578 452 619 L495 628 ZM932 744 L932 704 L731 704 Q776 645 790 607 L751 590 Q732 638 683 704 L592 704 Q566 652 534 614 Q521 626 494 639 Q561 710 589 831 L637 822 Q625 779 610 744 L932 744 Z" /><glyph glyph-name="uni7C21" unicode="&#x7c21;" d="M175 709 Q132 640 83 591 Q65 606 44 620 Q137 704 187 834 L232 822 Q216 784 199 751 L490 751 L490 709 L280 709 Q313 652 323 618 L279 603 Q268 645 232 709 L175 709 ZM156 545 L156 477 L404 477 L404 545 L156 545 ZM404 367 L404 440 L156 440 L156 367 L404 367 ZM156 329 L156 -70 L111 -70 L111 582 L449 582 L449 329 L156 329 ZM363 238 L363 161 L642 161 L642 238 L363 238 ZM642 42 L642 124 L363 124 L363 42 L642 42 ZM687 6 L363 6 L363 -33 L318 -33 L318 276 L687 276 L687 6 ZM851 367 L851 440 L589 440 L589 367 L851 367 ZM589 545 L589 477 L851 477 L851 545 L589 545 ZM897 -7 Q897 -53 864 -65 Q832 -74 715 -72 Q709 -46 697 -26 Q797 -29 830 -27 Q851 -26 851 -7 L851 329 L544 329 L544 582 L897 582 L897 -7 ZM940 751 L940 709 L703 709 Q748 656 764 617 L723 597 Q704 641 648 709 L557 709 Q509 643 450 598 Q436 612 412 628 Q525 710 575 834 L622 823 Q609 790 585 751 L940 751 Z" /><glyph glyph-name="uni7C3D" unicode="&#x7c3d;" d="M538 700 Q498 651 455 614 Q436 630 415 643 Q519 722 569 836 L615 825 Q598 785 568 741 L934 741 L934 700 L715 700 Q766 636 788 582 L745 565 Q715 634 660 700 L538 700 ZM179 700 Q137 625 85 570 Q68 585 46 597 Q137 688 191 836 L236 824 Q228 802 201 741 L469 741 L469 700 L297 700 Q330 628 340 578 L295 566 Q286 619 249 700 L179 700 ZM226 191 L409 191 L409 312 L226 312 L226 191 ZM405 -34 Q350 12 269 51 Q196 -25 82 -75 Q62 -52 48 -41 Q226 31 290 151 L180 151 L180 351 L457 351 L457 151 L327 151 L340 148 Q321 112 297 82 Q376 47 434 1 L405 -34 ZM656 417 L343 417 L343 456 L656 456 L656 417 ZM587 191 L776 191 L776 312 L587 312 L587 191 ZM683 151 Q670 118 652 88 Q807 39 945 -37 L909 -73 Q794 -2 625 53 Q559 -25 445 -75 Q433 -59 411 -41 Q584 24 634 151 L541 151 L541 351 L823 351 L823 151 L683 151 ZM548 638 L524 611 Q692 467 953 396 Q937 380 921 356 Q667 437 498 586 Q331 429 75 344 Q59 371 46 382 Q358 480 508 659 L548 638 Z" /><glyph glyph-name="uni7CFB" unicode="&#x7cfb;" d="M359 212 Q270 89 132 -9 Q112 11 90 23 Q228 111 312 228 L359 212 ZM536 295 L536 7 Q536 -36 503 -48 Q476 -57 356 -57 Q353 -38 337 -9 Q437 -12 468 -10 Q488 -9 488 7 L488 292 Q160 268 125 256 Q120 280 110 304 Q150 308 247 359 Q321 393 464 483 Q208 466 187 459 Q176 495 172 505 Q198 508 244 546 Q322 599 431 717 Q310 706 129 695 Q128 714 117 737 Q603 767 810 818 L845 778 Q708 746 499 724 Q378 595 266 513 L533 527 Q626 588 704 650 L743 618 Q510 443 250 318 L773 354 Q739 389 676 446 L714 465 Q852 348 923 248 L884 223 Q855 265 809 314 L536 295 ZM682 233 Q837 114 929 17 L890 -12 Q806 81 646 210 L682 233 Z" /><glyph glyph-name="uni7D71" unicode="&#x7d71;" d="M896 363 Q874 403 852 436 Q462 400 433 389 Q431 402 415 437 Q452 446 470 464 Q499 493 606 647 L412 647 L412 692 L644 692 Q610 773 582 819 L624 833 Q658 778 695 692 L932 692 L932 647 L663 647 Q563 506 519 449 L827 474 Q783 538 747 584 L785 604 Q889 469 936 386 L896 363 ZM353 240 Q352 246 338 302 Q91 265 67 252 Q60 279 50 300 Q74 305 123 366 Q154 399 224 499 Q82 483 60 473 Q57 492 45 522 Q63 524 99 577 Q179 686 238 834 L284 815 Q206 646 118 530 L253 544 Q296 607 330 675 L374 652 Q256 448 134 315 L327 341 Q307 403 287 450 L328 460 Q378 345 397 254 L353 240 ZM137 194 Q115 51 82 -49 L42 -33 Q72 46 95 202 L137 194 ZM231 204 Q253 76 259 -14 L218 -22 Q213 76 192 197 L231 204 ZM322 225 Q365 109 377 46 L338 34 Q325 106 285 216 L322 225 ZM580 355 Q574 165 537 79 Q493 -24 373 -74 Q358 -50 343 -37 Q456 6 496 100 Q529 177 534 355 L580 355 ZM876 -5 Q895 -5 900 18 Q906 41 908 127 Q923 113 950 107 Q947 13 934 -18 Q920 -49 881 -49 L782 -49 Q740 -49 726 -35 Q711 -21 711 21 L711 356 L757 356 L757 22 Q757 5 762 0 Q768 -5 787 -5 L876 -5 Z" /><glyph glyph-name="uni7DB2" unicode="&#x7db2;" d="M137 193 Q111 38 82 -49 L42 -34 Q74 51 94 201 L137 193 ZM230 202 Q254 64 257 -15 L217 -22 Q212 70 192 196 L230 202 ZM320 225 Q363 114 378 40 L339 29 Q328 93 284 215 L320 225 ZM332 457 Q379 333 392 245 L351 233 L338 300 Q92 264 67 251 Q58 284 51 299 Q72 301 123 365 Q160 406 223 500 Q85 484 60 473 Q57 491 45 519 Q66 525 101 575 Q186 685 248 834 L293 813 Q206 641 120 531 L253 544 Q293 606 331 676 L374 654 Q243 436 135 314 L328 341 Q317 383 293 450 L332 457 ZM557 126 L557 325 L517 325 L517 367 L673 367 Q663 415 624 469 L656 485 L502 485 L502 527 L714 527 Q754 638 768 702 L810 689 Q765 560 752 527 L858 527 L858 485 L659 485 Q698 434 712 383 L680 367 L839 367 L839 325 L599 325 L599 167 L837 167 L837 126 L557 126 ZM581 704 Q626 631 643 555 L607 542 Q590 617 547 693 L581 704 ZM929 -6 Q929 -50 900 -61 Q879 -70 780 -70 Q776 -49 765 -24 Q847 -26 867 -24 Q884 -24 884 -6 L884 738 L467 738 L467 -75 L422 -75 L422 783 L929 783 L929 -6 Z" /><glyph glyph-name="uni7DDA" unicode="&#x7dda;" d="M335 233 Q330 268 322 299 Q86 262 67 252 Q60 278 50 301 Q70 304 121 367 Q161 415 216 499 Q82 483 60 473 Q56 495 44 521 Q65 525 97 577 Q169 668 234 834 L281 814 Q198 638 118 530 L244 543 Q284 607 320 677 L364 653 Q248 446 133 313 L312 338 Q294 402 277 450 L317 458 Q364 332 377 245 L335 233 ZM137 194 Q115 49 82 -50 Q74 -46 41 -34 Q74 50 94 202 L137 194 ZM226 203 Q249 75 253 -12 L211 -19 Q208 73 186 197 L226 203 ZM312 225 Q351 125 367 50 L328 38 Q314 111 275 216 L312 225 ZM629 278 Q574 67 395 -26 Q382 -7 365 8 Q515 80 574 245 L418 245 L418 288 L592 288 L600 290 L629 278 ZM501 425 L849 425 L849 536 L501 536 L501 425 ZM501 576 L849 576 L849 686 L501 686 L501 576 ZM927 308 Q856 235 782 179 Q857 61 956 11 Q934 -9 924 -26 Q791 49 707 238 L707 -13 Q707 -54 678 -65 Q655 -74 551 -74 Q546 -52 534 -29 Q622 -31 644 -29 Q661 -28 661 -13 L661 383 L455 383 L455 727 L616 727 Q637 781 651 834 L703 820 L663 727 L896 727 L896 383 L707 383 L707 345 Q732 267 764 211 Q838 273 890 335 L927 308 Z" /><glyph glyph-name="uni7DE8" unicode="&#x7de8;" d="M330 232 Q324 267 317 297 Q89 263 67 252 Q57 287 51 298 Q71 302 119 366 Q155 409 211 499 Q80 482 60 473 Q56 493 45 520 Q65 525 96 576 Q173 686 225 834 L272 814 Q191 635 116 530 L237 542 Q277 609 310 677 L354 655 Q237 441 131 313 L307 337 Q286 408 272 449 L311 457 Q357 332 371 245 L330 232 ZM136 194 Q113 42 82 -50 Q76 -47 41 -34 Q71 43 94 202 L136 194 ZM218 206 Q241 76 245 -9 L205 -16 Q202 74 180 200 L218 206 ZM298 227 Q339 120 350 56 L312 44 Q299 112 262 217 L298 227 ZM457 679 L457 546 L860 546 L860 679 L457 679 ZM457 504 L457 436 Q457 113 383 -51 Q367 -33 345 -27 Q413 124 413 436 L413 720 L660 720 Q639 778 609 826 L649 837 Q686 781 706 720 L903 720 L903 504 L457 504 ZM896 189 L896 360 L795 360 L795 189 L896 189 ZM757 189 L757 360 L649 360 L649 189 L757 189 ZM612 189 L612 360 L499 360 L499 189 L612 189 ZM936 -21 Q936 -53 916 -62 Q899 -70 839 -70 Q835 -50 825 -33 L885 -33 Q896 -33 896 -22 L896 147 L795 147 L795 -36 L757 -36 L757 147 L649 147 L649 -37 L612 -37 L612 147 L499 147 L499 -70 L459 -70 L459 400 L936 400 L936 -21 Z" /><glyph glyph-name="uni7E6B" unicode="&#x7e6b;" d="M354 74 Q248 1 93 -54 L76 -39 Q63 -28 56 -24 Q213 23 311 91 L354 74 ZM258 567 L258 609 L142 609 L142 567 L258 567 ZM142 640 L258 640 L258 678 L142 678 L142 640 ZM301 678 L301 640 L421 640 L421 678 L301 678 ZM421 609 L301 609 L301 567 L421 567 L421 609 ZM529 116 L529 -15 Q529 -53 497 -63 Q471 -71 351 -71 Q347 -52 332 -30 Q439 -32 463 -30 Q483 -29 483 -14 L483 113 Q172 92 138 81 Q137 96 125 126 Q161 129 253 157 Q319 178 435 225 Q216 207 197 200 Q192 222 183 242 Q208 244 245 260 Q328 295 414 359 L105 359 L105 452 L146 452 L146 393 L258 393 L258 466 L57 466 L57 501 L258 501 L258 535 L102 535 L102 710 L258 710 L258 745 L70 745 L70 779 L258 779 L258 834 L301 834 L301 779 L494 779 L494 745 L301 745 L301 710 L462 710 L462 535 L301 535 L301 501 L506 501 L506 466 L301 466 L301 393 L430 393 L430 451 L472 451 L472 359 L446 359 L469 345 Q397 297 302 250 L531 266 Q598 295 673 337 L710 306 Q515 207 311 141 L743 168 Q712 190 657 222 L689 244 Q827 171 908 93 L875 66 Q850 90 791 135 L529 116 ZM673 91 Q834 42 930 -22 L896 -52 Q802 13 641 63 L673 91 ZM608 555 Q643 490 710 446 Q783 493 818 555 L608 555 ZM878 584 Q838 486 746 424 Q831 378 948 361 Q932 346 920 323 Q801 344 707 400 Q620 355 514 335 Q505 356 493 369 Q595 387 672 425 Q602 478 567 548 L592 555 L538 555 L538 592 L518 580 Q503 604 489 614 Q574 657 574 734 L574 803 L816 803 L816 669 Q816 644 831 644 L900 644 Q932 644 942 646 Q942 627 945 612 Q937 610 902 610 L826 610 Q794 610 784 623 Q774 635 774 670 L774 764 L617 764 L617 734 Q617 644 539 593 L842 593 L850 595 L878 584 Z" /><glyph glyph-name="uni7EBF" unicode="&#x7ebf;" d="M859 691 Q808 735 702 781 L729 808 Q822 774 886 725 L859 691 ZM376 302 Q374 280 378 261 Q100 203 77 190 Q75 209 62 237 Q87 243 134 304 Q177 351 249 460 Q89 437 72 428 Q64 457 56 476 Q73 479 111 539 Q194 667 249 829 L295 807 Q223 627 127 488 L278 505 Q309 552 344 618 L386 594 Q269 394 154 260 L376 302 ZM393 85 Q284 55 70 -1 L59 46 Q133 62 387 127 L393 85 ZM941 328 Q868 210 730 109 Q787 -23 869 -23 Q893 -23 903 1 Q913 25 917 94 Q933 77 954 69 Q947 -12 929 -40 Q911 -69 864 -69 Q756 -69 692 82 Q562 -4 417 -53 Q403 -31 386 -14 Q547 37 675 125 Q641 224 621 367 L423 330 L414 373 L615 411 Q608 464 601 567 L442 543 L434 587 L598 611 Q593 706 591 833 L639 833 Q639 703 644 618 L898 655 L906 612 L646 574 Q653 474 660 420 L927 470 L936 427 L666 376 Q682 247 715 152 Q833 242 900 346 L941 328 Z" /><glyph glyph-name="uni7EDF" unicode="&#x7edf;" d="M666 684 Q645 747 603 821 L647 834 Q684 771 712 701 L666 684 ZM896 333 Q880 365 851 408 Q445 370 415 359 Q412 379 396 408 Q437 418 453 436 Q498 479 606 635 L414 635 L414 680 L941 680 L941 635 L664 635 Q585 519 502 419 L826 447 Q776 519 747 555 L785 574 Q884 448 937 358 L896 333 ZM364 306 Q364 273 367 264 Q89 205 67 190 Q62 211 51 239 Q74 244 125 307 Q171 355 243 462 Q79 437 61 428 Q53 462 44 479 Q62 484 103 543 Q188 660 255 833 L305 809 Q217 620 120 489 L273 507 Q309 560 342 620 L387 595 Q266 394 147 264 L364 306 ZM370 83 Q280 59 59 -3 L48 45 Q139 67 364 126 L370 83 ZM569 354 Q563 167 523 83 Q475 -16 347 -64 Q338 -42 317 -27 Q437 15 480 105 Q516 180 521 354 L569 354 ZM874 -7 Q893 -7 898 16 Q904 39 906 125 Q922 112 948 106 Q945 11 932 -19 Q918 -50 879 -50 L780 -50 Q738 -50 723 -36 Q708 -22 708 20 L708 356 L755 356 L755 20 Q755 3 761 -2 Q766 -7 785 -7 L874 -7 Z" /><glyph glyph-name="uni7F16" unicode="&#x7f16;" d="M335 300 Q335 279 339 259 Q95 205 70 190 Q60 225 55 237 Q75 240 123 304 Q164 355 227 457 Q88 437 64 428 Q53 464 49 475 Q65 479 102 539 Q188 686 234 831 L281 813 Q208 625 119 486 L254 502 Q294 574 315 620 L357 597 Q250 393 142 260 L335 300 ZM347 109 Q230 63 62 1 L50 46 Q93 60 339 150 L347 109 ZM869 678 L467 678 L467 548 L869 548 L869 678 ZM915 505 L467 505 Q467 138 363 -55 Q344 -34 325 -27 Q422 153 422 505 L422 721 L664 721 Q646 769 614 824 L656 838 Q696 776 715 721 L915 721 L915 505 ZM879 192 L879 362 L786 362 L786 192 L879 192 ZM749 192 L749 362 L660 362 L660 192 L749 192 ZM622 192 L622 362 L518 362 L518 192 L622 192 ZM920 -19 Q920 -50 901 -59 Q884 -67 826 -67 Q823 -48 812 -28 Q840 -29 869 -29 Q879 -28 879 -18 L879 151 L786 151 L786 -39 L749 -39 L749 151 L660 151 L660 -40 L622 -40 L622 151 L518 151 L518 -65 L477 -65 L477 405 L920 405 L920 -19 Z" /><glyph glyph-name="uni2F79" unicode="&#x2f79;&#x7f51;" d="M460 157 Q420 234 372 311 Q306 157 209 56 Q187 75 170 86 Q275 182 342 357 Q258 483 199 557 L231 581 Q304 488 360 407 Q395 513 418 641 L464 635 Q433 473 391 361 Q462 255 495 185 L460 157 ZM759 124 Q724 202 662 304 Q599 149 497 50 Q466 74 458 78 Q567 177 633 350 Q561 465 491 556 L526 579 Q595 490 652 402 Q686 506 708 638 L752 632 Q723 470 682 356 Q759 236 796 149 L759 124 ZM908 1 Q908 -49 871 -62 Q840 -71 707 -71 Q703 -52 688 -24 Q786 -27 835 -24 Q860 -23 860 0 L860 724 L144 724 L144 -71 L96 -71 L96 770 L908 770 L908 1 Z" /><glyph glyph-name="uni7F6E" unicode="&#x7f6e;" d="M251 -1 L746 -1 L746 73 L251 73 L251 -1 ZM251 388 L251 320 L746 320 L746 388 L251 388 ZM251 108 L746 108 L746 180 L251 180 L251 108 ZM746 285 L251 285 L251 215 L746 215 L746 285 ZM404 646 L598 646 L598 754 L404 754 L404 646 ZM359 754 L171 754 L171 646 L359 646 L359 754 ZM644 646 L842 646 L842 754 L644 754 L644 646 ZM940 -1 L940 -42 L63 -42 L63 -1 L205 -1 L205 426 L428 426 Q437 459 446 498 L71 498 L71 539 L454 539 Q464 585 467 606 L125 606 L125 793 L889 793 L889 606 L517 606 L502 539 L921 539 L921 498 L493 498 L475 426 L793 426 L793 -1 L940 -1 Z" /><glyph glyph-name="uni2F7C" unicode="&#x2f7c;&#x8001;&#xf934;" d="M544 484 Q642 559 723 643 L461 643 L461 484 L544 484 ZM559 438 Q492 386 382 318 L382 183 Q644 252 766 321 L810 286 Q657 212 382 141 L382 32 Q382 5 400 -4 Q419 -14 478 -14 L776 -14 Q827 -14 843 13 Q858 39 863 133 Q884 118 909 113 Q902 8 878 -24 Q853 -58 777 -58 L480 -58 Q393 -58 364 -41 Q333 -23 333 32 L333 289 Q211 221 78 164 Q58 191 43 205 Q273 293 482 438 L58 438 L58 484 L413 484 L413 643 L143 643 L143 688 L413 688 L413 833 L461 833 L461 688 L728 688 L728 648 Q800 723 852 795 L894 771 Q774 611 618 484 L943 484 L943 438 L559 438 Z" /><glyph glyph-name="uni8054" unicode="&#x8054;" d="M592 639 Q562 711 491 797 L530 817 Q605 735 634 662 L592 639 ZM158 142 L327 168 L327 329 L158 329 L158 142 ZM158 742 L158 580 L327 580 L327 742 L158 742 ZM158 372 L327 372 L327 537 L158 537 L158 372 ZM371 132 L371 -74 L327 -74 L327 124 Q191 100 55 78 L45 124 L113 134 L113 742 L51 742 L51 787 L419 787 L419 742 L371 742 L371 175 L454 189 L457 146 L371 132 ZM687 327 Q762 58 957 -33 Q940 -48 923 -72 Q753 16 667 249 Q614 49 428 -81 Q416 -63 391 -47 Q601 93 634 327 L422 327 L422 372 L639 372 Q642 404 642 463 L642 579 L450 579 L450 625 L704 625 Q774 716 823 816 L872 799 Q799 679 757 625 L907 625 L907 579 L690 579 L690 462 Q690 420 687 372 L949 372 L949 327 L687 327 Z" /><glyph glyph-name="uni806F" unicode="&#x806f;" d="M285 162 L285 329 L159 329 L159 142 L285 162 ZM159 742 L159 580 L285 580 L285 742 L159 742 ZM159 372 L285 372 L285 537 L159 537 L159 372 ZM384 134 L329 124 L329 -74 L285 -74 L285 117 L55 78 L45 124 L116 135 L116 742 L52 742 L52 787 L379 787 L379 742 L329 742 L329 169 L381 178 L384 134 ZM580 344 L623 344 L623 186 Q623 1 458 -83 Q439 -55 428 -49 Q558 15 576 136 L430 136 L430 344 L473 344 L473 180 L580 180 L580 344 ZM600 527 Q637 435 654 365 L618 352 L602 408 Q401 385 380 375 Q377 393 366 421 Q386 425 424 471 Q463 516 508 583 Q407 576 389 569 Q387 592 377 615 Q392 617 416 650 Q477 732 511 822 L551 804 Q497 690 439 617 L533 621 Q567 677 583 708 L621 688 Q529 531 440 429 L591 444 Q560 531 565 518 L600 527 ZM856 333 L899 333 L899 96 L856 96 L856 137 L750 137 L750 -77 L706 -77 L706 345 L750 345 L750 181 L856 181 L856 333 ZM923 359 L903 417 Q697 393 678 382 Q673 407 664 428 Q681 431 717 477 Q746 510 793 588 Q689 580 675 573 Q670 597 661 619 Q675 621 699 652 Q758 730 790 821 L830 803 Q780 696 724 622 L816 626 Q830 648 858 707 L897 687 Q813 531 733 436 L889 453 Q867 507 856 532 L889 543 Q929 460 958 375 L923 359 Z" /><glyph glyph-name="uni80FD" unicode="&#x80fd;" d="M659 402 Q597 402 575 418 Q553 435 553 483 L553 833 L600 833 L600 651 Q775 706 863 751 L897 715 Q779 662 600 611 L600 484 Q600 461 611 454 Q623 447 660 447 L847 447 Q879 447 888 469 Q898 491 901 569 Q919 557 946 550 Q941 460 923 432 Q904 402 850 402 L659 402 ZM403 180 L403 291 L154 291 L154 180 L403 180 ZM154 438 L154 332 L403 332 L403 438 L154 438 ZM450 -7 Q450 -50 421 -62 Q394 -71 290 -71 Q287 -53 273 -24 Q348 -27 386 -24 Q403 -24 403 -8 L403 139 L154 139 L154 -72 L108 -72 L108 481 L450 481 L450 -7 ZM355 774 Q457 650 491 558 L452 539 Q445 555 426 593 Q109 571 83 562 Q78 587 67 610 Q85 613 111 650 Q169 711 224 835 L272 817 Q205 695 139 616 L404 631 Q363 698 317 757 L355 774 ZM853 -20 Q886 -20 897 5 Q906 30 910 119 Q929 105 954 101 Q949 0 931 -30 Q912 -63 855 -63 L661 -63 Q597 -63 576 -47 Q553 -30 553 19 L553 369 L601 369 L601 198 Q796 256 878 308 L910 271 Q817 216 601 157 L601 18 Q601 -5 612 -12 Q624 -20 662 -20 L853 -20 Z" /><glyph glyph-name="uni8111" unicode="&#x8111;" d="M652 674 Q629 741 584 819 L626 831 Q677 744 696 691 L652 674 ZM301 328 L301 519 L143 519 L143 430 Q143 364 141 328 L301 328 ZM143 755 L143 562 L301 562 L301 755 L143 755 ZM345 -7 Q345 -46 321 -56 Q302 -65 227 -65 Q225 -46 212 -21 Q247 -22 287 -22 Q301 -21 301 -7 L301 285 L140 285 Q129 53 74 -78 Q61 -61 36 -52 Q99 101 99 430 L99 797 L345 797 L345 -7 ZM862 542 L907 542 L907 -72 L862 -72 L862 -11 L412 -11 L412 536 L459 536 L459 35 L862 35 L862 542 ZM763 124 Q735 185 671 287 Q608 168 527 85 Q508 104 490 117 Q577 200 643 330 Q572 441 500 532 L533 555 Q601 470 665 374 Q715 485 743 596 L786 587 Q749 445 693 331 Q768 216 798 151 L763 124 ZM937 670 L937 624 L384 624 L384 670 L937 670 Z" /><glyph glyph-name="uni8166" unicode="&#x8166;" d="M910 445 Q856 536 754 645 Q833 745 881 829 L925 815 Q879 738 808 646 Q897 550 949 468 L910 445 ZM706 453 Q660 541 568 648 Q637 747 680 829 L724 816 Q684 743 620 650 Q702 553 745 474 L706 453 ZM299 314 L299 512 L156 512 L156 439 Q156 380 153 314 L299 314 ZM156 749 L156 557 L299 557 L299 749 L156 749 ZM344 -9 Q344 -52 314 -63 Q292 -70 191 -70 Q189 -58 176 -27 Q260 -29 280 -27 Q299 -27 299 -9 L299 268 L151 268 Q134 48 77 -73 Q66 -61 38 -49 Q112 106 112 439 L112 794 L344 794 L344 -9 ZM518 445 Q474 534 386 645 Q455 751 492 829 L535 816 Q499 745 436 646 Q513 548 556 467 L518 445 ZM787 58 Q754 95 680 157 Q608 96 526 47 Q519 57 498 76 Q576 120 648 182 Q599 221 532 266 L561 292 Q620 255 678 209 Q738 266 772 319 L812 298 Q774 243 710 184 Q777 131 817 88 L787 58 ZM876 346 L470 346 L470 12 L876 12 L876 346 ZM675 461 Q669 450 657 425 L639 389 L922 389 L922 -70 L876 -70 L876 -31 L470 -31 L470 -75 L425 -75 L425 389 L592 389 Q618 447 626 480 L675 461 Z" /><glyph glyph-name="uni2F83" unicode="&#x2f83;&#x81ea;" d="M792 30 L792 205 L224 205 L224 30 L792 30 ZM224 423 L224 251 L792 251 L792 423 L224 423 ZM224 646 L224 469 L792 469 L792 646 L224 646 ZM841 693 L841 -69 L792 -69 L792 -15 L224 -15 L224 -76 L176 -76 L176 693 L425 693 Q456 773 473 835 L524 826 Q494 743 472 693 L841 693 Z" /><glyph glyph-name="uni865F" unicode="&#x865f;" d="M333 746 L137 746 L137 576 L333 576 L333 746 ZM374 536 L96 536 L96 786 L374 786 L374 536 ZM358 277 L356 254 Q335 -9 299 -43 Q282 -61 247 -64 Q214 -66 152 -61 Q150 -36 140 -19 Q182 -23 234 -23 Q255 -24 264 -14 Q293 13 310 235 L103 235 Q120 293 141 399 L47 399 L47 443 L399 443 L399 399 L185 399 L159 277 L358 277 ZM496 379 Q496 77 391 -76 Q376 -57 355 -48 Q451 93 451 380 L451 632 L650 632 L650 832 L696 832 L696 755 L904 755 L904 713 L696 713 L696 632 L919 632 L928 635 L957 625 Q927 506 912 464 L874 474 Q888 513 904 590 L496 590 L496 379 ZM716 317 Q669 317 654 329 Q638 341 638 380 L638 444 L524 432 L519 470 L638 483 L638 574 L682 574 L682 488 L834 504 L839 465 L682 449 L682 380 Q682 365 689 361 Q695 357 719 357 L837 357 Q855 357 861 369 Q867 382 869 430 Q882 419 908 413 Q905 356 892 337 Q878 317 842 317 L716 317 ZM863 -4 Q889 -4 896 1 Q909 7 912 23 Q918 53 916 127 Q933 112 956 105 Q954 16 947 -7 Q941 -30 919 -41 Q902 -48 868 -48 L813 -48 Q775 -48 759 -37 Q741 -24 741 25 L741 212 L634 212 Q615 -2 495 -69 Q484 -51 466 -37 Q534 0 563 75 Q587 137 593 254 L784 254 L784 17 Q784 4 793 0 Q802 -4 819 -4 L863 -4 Z" /><glyph glyph-name="uni2F8F" unicode="&#x2f8f;&#x884c;&#xfa08;" d="M917 723 L427 723 L427 770 L917 770 L917 723 ZM322 815 Q221 681 70 573 Q56 593 39 610 Q193 715 275 833 L322 815 ZM361 605 Q316 531 248 454 L248 -79 L200 -79 L200 402 Q131 330 63 277 Q51 292 27 314 Q202 439 316 621 L361 605 ZM950 449 L790 449 L790 -3 Q790 -50 752 -61 Q723 -68 570 -68 Q564 -46 551 -24 Q658 -28 717 -25 Q742 -24 742 -3 L742 449 L384 449 L384 496 L950 496 L950 449 Z" /><glyph glyph-name="uni8981" unicode="&#x8981;" d="M363 243 Q328 192 277 128 Q414 103 523 77 Q639 139 694 243 L363 243 ZM174 436 L354 436 L354 597 L174 597 L174 436 ZM400 639 L590 639 L590 741 L400 741 L400 639 ZM636 597 L636 436 L831 436 L831 597 L636 597 ZM590 436 L590 597 L400 597 L400 436 L590 436 ZM746 243 Q696 130 587 62 Q786 14 917 -38 L874 -75 Q731 -17 530 31 Q375 -46 82 -71 Q76 -50 61 -27 Q315 -10 459 48 Q337 76 196 101 Q254 166 308 243 L61 243 L61 288 L339 288 Q368 331 402 394 L128 394 L128 639 L354 639 L354 741 L76 741 L76 785 L926 785 L926 741 L636 741 L636 639 L878 639 L878 394 L411 394 L450 384 Q419 326 393 288 L940 288 L940 243 L746 243 Z" /><glyph glyph-name="uni8A2D" unicode="&#x8a2d;" d="M569 683 Q569 509 429 420 Q419 437 398 455 Q524 535 524 683 L524 794 L809 794 L809 554 Q809 518 826 518 L897 518 Q915 518 937 522 L940 500 Q942 484 942 479 Q929 475 897 475 L824 475 Q788 475 776 493 Q764 509 764 556 L764 749 L569 749 L569 683 ZM245 686 Q222 741 167 817 L206 837 Q261 763 285 710 L245 686 ZM427 618 L55 618 L55 661 L427 661 L427 618 ZM97 404 L386 404 L386 362 L97 362 L97 404 ZM384 533 L384 492 L96 492 L96 533 L384 533 ZM138 231 L138 33 L340 33 L340 231 L138 231 ZM138 -10 L138 -60 L94 -60 L94 274 L385 274 L385 -10 L138 -10 ZM512 342 Q565 213 668 120 Q779 215 829 342 L512 342 ZM892 375 Q836 205 704 89 Q815 4 957 -30 Q940 -46 926 -73 Q779 -33 667 58 Q557 -28 410 -75 Q400 -49 383 -32 Q521 7 631 90 Q526 191 470 332 L499 342 L419 342 L419 388 L852 388 L861 391 L892 375 Z" /><glyph glyph-name="uni8A3B" unicode="&#x8a3b;" d="M682 648 Q650 723 576 807 L614 828 Q688 745 722 672 L682 648 ZM245 684 Q227 740 179 809 L215 827 Q265 761 284 705 L245 684 ZM156 221 L156 35 L342 35 L342 221 L156 221 ZM387 -6 L156 -6 L156 -58 L111 -58 L111 262 L387 262 L387 -6 ZM90 393 L392 393 L392 351 L90 351 L90 393 ZM390 529 L390 488 L106 488 L106 529 L390 529 ZM54 669 L415 669 L415 626 L54 626 L54 669 ZM953 19 L953 -27 L423 -27 L423 19 L655 19 L655 307 L459 307 L459 353 L655 353 L655 586 L441 586 L441 632 L933 632 L933 586 L703 586 L703 353 L911 353 L911 307 L703 307 L703 19 L953 19 Z" /><glyph glyph-name="uni8AA4" unicode="&#x8aa4;" d="M843 741 L512 741 L512 557 L843 557 L843 741 ZM889 513 L467 513 L467 785 L889 785 L889 513 ZM230 686 Q211 737 157 816 L194 837 Q248 762 270 710 L230 686 ZM388 618 L48 618 L48 661 L388 661 L388 618 ZM86 492 L86 533 L355 533 L355 492 L86 492 ZM355 362 L86 362 L86 404 L355 404 L355 362 ZM129 231 L129 33 L319 33 L319 231 L129 231 ZM362 -10 L129 -10 L129 -60 L87 -60 L87 274 L362 274 L362 -10 ZM701 203 Q767 18 955 -37 Q936 -53 924 -76 Q743 -13 670 170 Q616 -5 416 -70 Q407 -52 388 -33 Q588 27 633 203 L405 203 L405 247 L642 247 Q652 295 657 377 L442 377 L442 422 L915 422 L915 377 L702 377 Q697 305 687 247 L951 247 L951 203 L701 203 Z" /><glyph glyph-name="uni8B8A" unicode="&#x8b8a;" d="M911 450 Q904 481 897 502 Q700 473 674 461 Q664 495 660 504 Q679 505 719 545 Q742 565 794 628 Q686 617 673 612 Q664 642 658 653 Q675 657 699 684 Q764 769 794 837 L834 820 Q784 725 727 659 L824 665 Q857 707 884 751 L924 732 Q830 600 743 516 L886 535 Q872 574 857 601 L892 609 Q935 528 947 461 L911 450 ZM902 448 Q928 380 944 302 L908 292 Q901 331 869 439 L902 448 ZM796 287 Q794 358 777 428 L813 434 Q831 353 833 294 L796 287 ZM728 426 Q711 328 692 270 Q679 280 658 291 Q676 341 689 435 L728 426 ZM655 710 L347 710 L347 746 L487 746 Q471 787 448 820 L485 832 Q512 797 532 746 L655 746 L655 710 ZM633 533 L367 533 L367 569 L633 569 L633 533 ZM410 332 L589 332 L589 439 L410 439 L410 332 ZM373 297 L373 474 L627 474 L627 297 L373 297 ZM633 622 L366 622 L366 657 L633 657 L633 622 ZM308 450 Q301 478 296 495 Q97 466 75 456 Q68 483 62 498 Q81 499 121 539 Q147 563 198 623 Q92 614 77 607 Q73 626 64 649 Q79 652 103 680 Q160 749 198 833 L239 817 Q192 726 131 655 L228 661 Q253 691 287 745 L326 727 Q227 588 142 509 L284 528 Q268 571 255 598 L289 606 Q329 525 344 460 L308 450 ZM297 438 Q321 377 332 314 L297 303 Q287 361 263 429 L297 438 ZM191 283 Q190 340 171 423 L207 429 Q226 345 229 291 L191 283 ZM126 421 Q110 320 85 256 L53 277 Q75 334 88 429 L126 421 ZM287 187 Q369 118 514 64 Q648 114 724 189 L290 189 L287 187 ZM786 189 Q712 104 574 44 Q757 -15 956 -33 Q941 -50 931 -75 Q706 -48 516 20 Q349 -42 67 -80 Q57 -55 42 -35 Q282 -14 457 44 Q337 93 256 160 Q189 105 94 60 Q80 81 63 98 Q249 176 328 298 L371 284 Q354 257 330 230 L924 230 L924 189 L786 189 Z" /><glyph glyph-name="uni8B93" unicode="&#x8b93;" d="M945 711 L378 711 L378 751 L649 751 Q632 791 611 823 L650 836 Q682 792 696 751 L945 751 L945 711 ZM204 681 Q192 741 148 813 L185 825 Q229 753 243 694 L204 681 ZM353 619 L46 619 L46 661 L353 661 L353 619 ZM123 227 L123 28 L285 28 L285 227 L123 227 ZM324 -14 L123 -14 L123 -63 L84 -63 L84 269 L324 269 L324 -14 ZM86 401 L326 401 L326 360 L86 360 L86 401 ZM86 534 L326 534 L326 492 L86 492 L86 534 ZM569 229 L745 229 L745 296 L569 296 L569 229 ZM569 333 L745 333 L745 399 L569 399 L569 333 ZM459 533 L589 533 L589 626 L459 626 L459 533 ZM734 533 L868 533 L868 626 L734 626 L734 533 ZM929 142 Q875 100 795 64 Q865 -4 960 -31 Q942 -47 930 -68 Q741 -6 663 189 L649 189 Q606 149 544 114 L544 -7 L713 29 Q711 7 715 -12 Q511 -60 492 -72 Q481 -48 467 -34 Q502 -15 502 34 L502 92 Q453 67 379 41 Q367 60 351 76 Q506 121 592 189 L364 189 L364 229 L524 229 L524 296 L415 296 L415 333 L524 333 L524 399 L396 399 L396 437 L524 437 L524 497 L418 497 L418 662 L630 662 L630 497 L569 497 L569 437 L745 437 L745 497 L693 497 L693 662 L910 662 L910 497 L790 497 L790 437 L932 437 L932 399 L790 399 L790 333 L909 333 L909 296 L790 296 L790 229 L953 229 L953 189 L706 189 Q728 137 768 91 Q844 131 900 168 L929 142 Z" /><glyph glyph-name="uni8BA9" unicode="&#x8ba9;" d="M300 626 Q251 687 151 781 L182 812 Q275 728 332 664 L300 626 ZM398 163 Q403 139 413 124 Q208 -27 196 -44 Q186 -27 164 -10 Q219 32 219 85 L219 468 L52 468 L52 515 L265 515 L265 70 L398 163 ZM949 7 L949 -40 L354 -40 L354 7 L601 7 L601 827 L650 827 L650 496 L870 496 L870 449 L650 449 L650 7 L949 7 Z" /><glyph glyph-name="uni8BBE" unicode="&#x8bbe;" d="M550 682 Q550 503 374 416 Q362 436 343 453 Q504 528 504 683 L504 794 L798 794 L798 554 Q798 518 816 518 L896 518 Q915 518 939 522 Q941 493 944 479 Q929 475 897 475 L815 475 Q778 475 764 493 Q752 510 752 556 L752 749 L550 749 L550 682 ZM283 628 Q237 693 135 781 L168 811 Q265 732 317 663 L283 628 ZM376 140 Q381 117 392 101 Q197 -31 182 -49 Q173 -29 153 -9 Q203 29 203 77 L203 469 L50 469 L50 516 L249 516 L249 58 L376 140 ZM476 342 Q536 204 650 111 Q771 207 828 342 L476 342 ZM891 375 Q833 204 687 82 Q803 0 955 -33 Q935 -53 924 -77 Q765 -37 649 52 Q533 -32 384 -74 Q378 -55 359 -32 Q496 3 612 82 Q492 188 428 342 L386 342 L386 388 L852 388 L861 391 L891 375 Z" /><glyph glyph-name="uni8BEF" unicode="&#x8bef;" d="M837 741 L482 741 L482 574 L837 574 L837 741 ZM884 530 L436 530 L436 785 L884 785 L884 530 ZM261 615 Q206 687 113 768 L145 799 Q252 708 294 652 L261 615 ZM377 150 Q383 129 393 110 Q215 -13 199 -33 Q192 -16 174 13 Q203 31 203 75 L203 470 L51 470 L51 517 L250 517 L250 66 L377 150 ZM678 203 Q752 17 957 -36 Q938 -52 926 -77 Q727 -15 646 169 Q589 -8 366 -72 Q356 -49 337 -34 Q557 24 609 203 L369 203 L369 247 L618 247 Q629 302 634 378 L406 378 L406 423 L915 423 L915 378 L680 378 Q673 291 664 247 L956 247 L956 203 L678 203 Z" /><glyph glyph-name="uni8CEC" unicode="&#x8cec;" d="M304 741 L132 741 L132 599 L304 599 L304 741 ZM304 558 L132 558 L132 416 L304 416 L304 558 ZM304 375 L132 375 L132 232 L304 232 L304 375 ZM347 189 L89 189 L89 783 L347 783 L347 189 ZM182 134 Q135 30 78 -50 Q59 -33 42 -24 Q96 48 140 147 L182 134 ZM281 147 Q342 68 373 5 L336 -19 Q312 33 246 128 L281 147 ZM903 257 Q840 196 759 137 Q855 27 962 -20 Q942 -35 928 -58 Q708 53 593 324 L510 324 L510 -1 L682 60 Q682 44 687 19 Q481 -58 456 -77 L453 -79 Q443 -48 433 -30 Q464 -17 464 23 L464 324 L400 324 L400 368 L488 368 L488 783 L905 783 L905 741 L534 741 L534 645 L866 645 L866 605 L534 605 L534 509 L874 509 L874 468 L534 468 L534 368 L952 368 L952 324 L637 324 Q673 242 735 165 Q813 229 866 287 L903 257 Z" /><glyph glyph-name="uni8D26" unicode="&#x8d26;" d="M897 772 Q809 601 649 477 Q633 498 612 511 Q768 621 852 787 L897 772 ZM137 177 L96 177 L96 780 L390 780 L390 178 L348 178 L348 738 L137 738 L137 177 ZM267 384 Q267 58 71 -72 Q64 -55 44 -39 Q226 74 226 384 L226 662 L267 662 L267 384 ZM288 161 Q375 61 417 -14 L382 -42 Q342 36 256 137 L288 161 ZM710 387 Q780 94 957 -14 Q936 -31 924 -51 Q742 71 666 387 L569 387 L569 4 L731 64 Q733 34 737 22 Q518 -67 503 -79 Q496 -57 482 -37 Q523 -19 523 22 L523 387 L419 387 L419 433 L523 433 L523 811 L569 811 L569 433 L938 433 L938 387 L710 387 Z" /><glyph glyph-name="uni8DDF" unicode="&#x8ddf;" d="M140 541 L360 541 L360 743 L140 743 L140 541 ZM424 124 L429 81 L57 -19 L45 27 L100 40 L100 388 L143 388 L143 50 L238 75 L238 497 L96 497 L96 787 L405 787 L405 497 L283 497 L283 338 L416 338 L416 294 L283 294 L283 87 L424 124 ZM509 404 L841 404 L841 554 L509 554 L509 404 ZM509 742 L509 597 L841 597 L841 742 L509 742 ZM945 282 Q865 216 753 155 Q837 27 962 -22 Q939 -47 930 -64 Q704 38 623 360 L509 360 L509 1 L708 52 Q708 28 710 8 Q472 -59 455 -72 Q452 -63 432 -29 Q463 -13 463 32 L463 786 L886 786 L886 360 L666 360 Q688 271 732 190 Q840 254 913 314 L945 282 Z" /><glyph glyph-name="uni8E2A" unicode="&#x8e2a;" d="M466 549 L421 549 L421 701 L665 701 Q642 762 611 819 L653 833 Q699 746 714 701 L930 701 L930 549 L884 549 L884 657 L466 657 L466 549 ZM501 487 L501 531 L850 531 L850 487 L501 487 ZM131 541 L324 541 L324 743 L131 743 L131 541 ZM394 79 L54 -17 L41 29 L97 43 L97 389 L138 389 L138 54 L225 77 L225 497 L88 497 L88 787 L369 787 L369 497 L267 497 L267 339 L387 339 L387 295 L267 295 L267 88 L389 122 L394 79 ZM554 211 Q493 89 406 -10 Q396 3 369 20 Q455 113 509 224 L554 211 ZM696 303 L696 -12 Q696 -51 670 -61 Q647 -71 546 -69 Q543 -54 529 -27 Q580 -28 634 -28 Q650 -27 650 -13 L650 303 L415 303 L415 347 L950 347 L950 303 L696 303 ZM823 224 Q914 113 958 22 L916 0 Q874 92 784 207 L823 224 Z" /><glyph glyph-name="uni8E64" unicode="&#x8e64;" d="M930 455 Q898 515 828 611 Q793 519 735 456 Q725 469 702 486 Q807 592 833 826 L876 821 Q865 730 843 656 Q929 545 964 481 L930 455 ZM708 533 Q694 560 649 620 Q611 512 557 443 Q541 457 521 471 Q618 582 653 827 L696 821 Q685 744 662 661 Q698 622 738 571 L708 533 ZM529 816 Q471 663 380 561 Q371 575 349 590 Q439 691 485 829 L529 816 ZM128 535 L290 535 L290 742 L128 742 L128 535 ZM537 588 Q513 518 481 448 L481 -77 L438 -77 L438 364 Q402 298 364 250 Q348 267 332 279 L340 289 L235 289 L235 83 L361 120 L367 78 L57 -16 L44 30 L84 40 L84 387 L126 387 L126 52 L193 71 L193 491 L85 491 L85 786 L332 786 L332 491 L235 491 L235 333 L343 333 L343 293 Q445 429 493 600 L537 588 ZM775 -5 Q809 -18 860 -18 Q946 -18 966 -17 Q955 -39 951 -63 L857 -63 Q769 -63 716 -26 Q653 17 617 125 Q590 -6 530 -77 Q515 -60 497 -50 Q594 66 599 369 L644 366 Q640 274 632 209 Q663 69 731 18 L731 453 L775 453 L775 270 L929 270 L929 226 L775 226 L775 -5 Z" /><glyph glyph-name="uni8F2F" unicode="&#x8f2f;" d="M855 758 L577 758 L577 633 L855 633 L855 758 ZM902 593 L531 593 L531 799 L902 799 L902 593 ZM129 289 L244 289 L244 400 L129 400 L129 289 ZM129 439 L244 439 L244 548 L129 548 L129 439 ZM408 548 L284 548 L284 439 L408 439 L408 548 ZM408 400 L284 400 L284 289 L408 289 L408 400 ZM287 111 L287 -78 L241 -78 L241 111 L47 111 L47 156 L241 156 L241 249 L87 249 L87 588 L242 588 L242 672 L57 672 L57 718 L242 718 L242 834 L287 834 L287 718 L468 718 L468 672 L287 672 L287 588 L449 588 L449 249 L287 249 L287 156 L480 156 L480 111 L287 111 ZM851 483 L583 483 L583 380 L851 380 L851 483 ZM583 74 L712 83 Q803 89 851 93 L851 193 L583 193 L583 74 ZM851 340 L583 340 L583 233 L851 233 L851 340 ZM897 483 L897 97 L957 102 L956 59 L897 54 L897 -71 L851 -71 L851 50 L452 20 L443 65 L537 71 L537 483 L472 483 L472 526 L958 526 L958 483 L897 483 Z" /><glyph glyph-name="uni8F91" unicode="&#x8f91;" d="M838 758 L538 758 L538 636 L838 636 L838 758 ZM885 596 L493 596 L493 799 L885 799 L885 596 ZM299 159 L299 -69 L254 -69 L254 149 L61 109 L48 157 Q121 169 254 196 L254 357 L157 357 Q101 357 87 343 Q77 380 72 389 Q85 392 116 471 Q142 536 175 662 L54 662 L54 708 L185 708 Q199 772 208 831 L256 821 Q244 757 231 708 L411 708 L411 662 L221 662 Q182 517 134 402 L254 402 L254 563 L299 563 L299 402 L408 402 L408 357 L299 357 L299 204 L427 230 L431 186 L299 159 ZM549 73 Q673 80 835 93 L835 191 L549 191 L549 73 ZM549 483 L549 378 L835 378 L835 483 L549 483 ZM549 232 L835 232 L835 338 L549 338 L549 232 ZM954 60 L881 54 L881 -73 L835 -73 L835 50 L411 18 L403 63 L503 69 L503 483 L430 483 L430 526 L950 526 L950 483 L881 483 L881 96 L955 102 L954 60 Z" /><glyph glyph-name="uni8FC1" unicode="&#x8fc1;" d="M593 432 L310 432 L310 477 L593 477 L593 720 Q469 700 346 691 Q339 714 331 729 Q680 763 839 818 L880 783 Q791 753 640 728 L640 477 L944 477 L944 432 L640 432 L640 47 L593 47 L593 432 ZM229 605 Q173 688 77 772 L112 796 Q211 712 267 634 L229 605 ZM253 111 Q265 105 289 86 Q318 62 337 50 Q412 0 593 0 Q777 0 955 15 Q945 -5 941 -32 Q781 -41 593 -41 Q403 -41 321 15 Q230 76 229 76 Q183 76 82 -51 L50 -14 Q152 96 206 112 L206 390 L53 390 L53 436 L253 436 L253 111 Z" /><glyph glyph-name="uni8FD8" unicode="&#x8fd8;" d="M589 514 Q475 364 327 267 Q309 291 291 305 Q530 449 652 711 L322 711 L322 759 L919 759 L919 711 L705 711 Q676 648 637 585 L637 61 L589 61 L589 514 ZM714 534 Q866 390 937 304 L904 270 Q812 383 681 507 L714 534 ZM250 616 Q185 702 90 785 L125 810 Q228 723 288 646 L250 616 ZM237 103 Q248 97 272 77 Q302 53 322 39 Q399 -12 590 -12 Q780 -12 965 5 Q954 -22 950 -50 Q760 -61 589 -61 Q391 -61 305 -2 L211 64 Q170 64 71 -71 L34 -28 Q130 89 189 107 L189 443 L48 443 L48 491 L237 491 L237 103 Z" /><glyph glyph-name="uni8FDB" unicode="&#x8fdb;" d="M537 452 Q537 417 536 398 L733 398 L733 600 L537 600 L537 452 ZM531 351 Q509 169 383 78 Q372 99 350 114 Q464 197 484 351 L334 351 L334 398 L489 398 Q490 417 490 452 L490 600 L339 600 L339 646 L490 646 L490 815 L537 815 L537 646 L733 646 L733 817 L780 817 L780 646 L918 646 L918 600 L780 600 L780 398 L937 398 L937 351 L780 351 L780 78 L733 78 L733 351 L531 351 ZM246 619 Q196 694 94 785 L130 811 Q236 715 283 648 L246 619 ZM253 113 Q266 108 289 89 Q320 63 337 52 Q412 3 594 3 Q787 3 954 19 Q943 -11 941 -31 Q785 -42 593 -42 Q406 -42 321 15 Q230 78 229 78 Q186 78 81 -52 L49 -12 Q148 97 206 115 L206 427 L56 427 L56 472 L253 472 L253 113 Z" /><glyph glyph-name="uni8FF9" unicode="&#x8ff9;" d="M532 629 L332 629 L332 675 L631 675 Q600 748 550 819 L594 834 Q653 753 679 688 L646 675 L950 675 L950 629 L749 629 L749 118 Q749 78 721 66 Q696 58 600 58 Q597 75 583 102 Q608 101 687 101 Q703 102 703 118 L703 629 L577 629 L577 521 Q577 377 547 283 Q503 147 387 53 Q372 71 351 83 Q532 228 532 521 L532 629 ZM836 523 Q930 375 956 253 L914 237 Q886 365 796 509 L836 523 ZM450 519 Q401 344 318 240 Q308 252 279 266 Q362 362 405 527 L450 519 ZM253 604 Q191 669 77 737 L110 767 Q222 705 286 639 L253 604 ZM239 95 Q234 97 334 33 Q414 -17 594 -17 Q775 -17 955 -1 Q942 -25 940 -51 Q812 -61 593 -61 Q407 -61 317 -4 Q222 56 219 56 Q177 56 79 -71 L47 -33 Q138 74 193 93 L193 433 L58 433 L58 479 L239 479 L239 95 Z" /><glyph glyph-name="uni9000" unicode="&#x9000;" d="M594 373 Q615 358 710 287 Q802 343 881 413 L921 387 Q838 318 741 260 Q848 173 899 114 L862 84 Q762 205 561 349 L594 373 ZM445 740 L445 624 L795 624 L795 740 L445 740 ZM795 463 L795 583 L445 583 L445 463 L795 463 ZM634 214 Q634 187 637 172 Q405 99 383 84 Q375 108 360 127 Q397 146 397 188 L397 783 L842 783 L842 420 L445 420 L445 159 L634 214 ZM244 600 Q197 672 97 764 L134 789 Q235 700 283 627 L244 600 ZM252 100 Q265 95 288 79 Q320 55 335 46 Q410 2 590 2 Q786 2 957 18 Q944 -16 943 -31 Q776 -42 590 -42 Q403 -42 321 9 L229 64 Q187 64 82 -50 L52 -12 Q149 85 205 101 L205 433 L60 433 L60 478 L252 478 L252 100 Z" /><glyph glyph-name="uni9032" unicode="&#x9032;" d="M651 620 L434 620 L434 499 L651 499 L651 620 ZM651 456 L434 456 L434 332 L651 332 L651 456 ZM651 289 L434 289 L434 161 L651 161 L651 289 ZM387 563 Q349 510 300 465 Q287 479 262 500 Q403 619 479 832 L527 819 Q498 742 454 664 L684 664 Q659 727 614 796 L659 810 Q709 733 738 664 L922 664 L922 620 L698 620 L698 499 L894 499 L894 456 L698 456 L698 332 L893 332 L893 289 L698 289 L698 161 L943 161 L943 118 L434 118 L434 63 L387 63 L387 563 ZM227 611 Q179 696 66 782 L102 807 Q211 728 266 642 L227 611 ZM239 84 Q247 83 335 33 Q409 -7 587 -7 Q797 -7 959 9 Q947 -18 945 -43 Q777 -53 587 -53 Q406 -53 320 -7 Q233 42 229 42 Q184 42 86 -61 L52 -20 Q138 59 193 78 L193 406 L63 406 L63 452 L239 452 L239 84 Z" /><glyph glyph-name="uni9077" unicode="&#x9077;" d="M722 300 L457 300 L457 222 L722 222 L722 300 ZM372 544 L497 544 L497 645 L372 645 L372 544 ZM538 682 L671 682 L671 749 L538 749 L538 682 ZM713 645 L713 544 L852 544 L852 645 L713 645 ZM671 544 L671 645 L538 645 L538 544 L671 544 ZM412 304 Q361 269 302 241 Q291 256 267 275 Q387 322 468 403 L298 403 L298 443 L504 443 Q529 476 545 507 L328 507 L328 682 L497 682 L497 749 L292 749 L292 789 L931 789 L931 749 L713 749 L713 682 L897 682 L897 507 L593 507 Q578 472 556 443 L931 443 L931 403 L738 403 Q882 322 956 263 L930 234 Q830 313 666 403 L525 403 Q495 367 455 335 L766 335 L766 187 L457 187 L457 127 Q457 107 471 101 Q485 95 533 95 L774 95 Q808 95 818 110 Q828 125 831 180 Q847 170 872 164 Q867 99 849 78 Q831 57 778 57 L533 57 Q460 57 437 70 Q412 83 412 126 L412 304 ZM222 611 Q179 680 84 762 L120 787 Q214 711 261 640 L222 611 ZM242 85 Q254 80 277 64 Q306 42 324 32 Q399 -11 580 -11 Q778 -11 952 5 Q941 -21 938 -43 Q766 -54 580 -54 Q389 -54 309 -4 Q216 51 218 51 Q174 51 74 -62 L44 -23 Q140 73 195 88 L195 395 L48 395 L48 440 L242 440 L242 85 Z" /><glyph glyph-name="uni9084" unicode="&#x9084;" d="M414 325 L807 325 L807 428 L414 428 L414 325 ZM682 125 Q680 105 682 88 Q472 35 454 22 Q448 48 437 63 Q476 77 476 113 L476 199 Q399 159 318 132 Q303 155 290 167 Q441 210 556 289 L368 289 L368 464 L854 464 L854 289 L616 289 Q583 261 520 223 L520 91 L682 125 ZM885 48 Q783 129 619 232 L644 261 L733 204 Q794 237 865 286 L900 264 Q855 230 764 183 Q867 116 911 81 L885 48 ZM942 521 L280 521 L280 561 L942 561 L942 521 ZM840 763 L711 763 L711 654 L840 654 L840 763 ZM670 763 L542 763 L542 654 L670 654 L670 763 ZM500 763 L378 763 L378 654 L500 654 L500 763 ZM885 618 L335 618 L335 799 L885 799 L885 618 ZM245 627 Q189 704 89 798 L126 821 Q228 726 284 654 L245 627 ZM237 99 Q247 93 270 74 Q297 52 314 39 Q389 -13 579 -13 Q785 -13 965 5 Q953 -24 951 -49 Q786 -60 578 -60 Q380 -60 298 -2 L209 63 Q170 63 72 -70 L37 -27 Q135 90 191 105 L191 445 L49 445 L49 491 L237 491 L237 99 Z" /><glyph glyph-name="uni9304" unicode="&#x9304;" d="M396 594 Q345 653 238 738 Q164 618 64 533 Q48 564 39 579 Q174 690 241 837 L281 821 Q269 795 258 776 Q346 711 422 635 L396 594 ZM260 55 L401 89 L404 47 L63 -37 L51 8 Q76 13 127 25 L218 45 L218 359 L60 359 L60 402 L218 402 L218 534 L112 534 L112 577 L373 577 L373 534 L260 534 L260 402 L402 402 L402 359 L260 359 L260 55 ZM120 296 Q153 197 162 104 L125 93 Q116 184 86 287 L120 296 ZM293 117 Q324 204 344 309 L383 294 Q348 164 326 103 L293 117 ZM782 582 L814 712 L575 712 Q556 643 533 582 L782 582 ZM928 345 Q860 275 781 217 Q861 96 957 38 Q939 23 924 -1 Q783 96 690 299 L690 -12 Q690 -55 660 -66 Q635 -76 526 -74 Q524 -58 509 -29 Q601 -32 629 -30 Q648 -29 648 -12 L648 165 Q576 118 433 28 L410 66 Q504 119 648 210 L648 412 L416 412 L416 456 L747 456 Q762 506 770 540 L472 540 Q515 650 566 830 L609 824 L589 755 L828 755 L836 758 L866 750 Q841 631 790 456 L951 456 L951 412 L690 412 L690 406 Q718 319 762 248 Q841 313 895 375 L928 345 ZM483 376 Q557 305 594 242 L559 219 Q520 284 450 356 L483 376 Z" /><glyph glyph-name="uni9375" unicode="&#x9375;" d="M755 608 L860 608 L860 704 L755 704 L755 608 ZM860 567 L755 567 L755 471 L860 471 L860 567 ZM713 567 L554 567 L554 608 L713 608 L713 704 L572 704 L572 744 L713 744 L713 833 L755 833 L755 744 L900 744 L900 608 L953 608 L953 567 L900 567 L900 430 L755 430 L755 340 L915 340 L915 298 L755 298 L755 200 L940 200 L940 158 L755 158 L755 20 L713 20 L713 158 L544 158 L544 200 L713 200 L713 298 L570 298 L570 340 L713 340 L713 430 L572 430 L572 471 L713 471 L713 567 ZM362 50 Q322 38 61 -37 L50 8 Q102 21 201 48 L201 359 L56 359 L56 402 L201 402 L201 534 L100 534 L100 574 Q88 559 62 533 Q55 558 41 579 Q156 687 215 838 L248 821 Q238 796 229 778 Q314 706 370 635 L348 594 Q296 663 211 740 Q166 654 103 577 L325 577 L325 534 L238 534 L238 402 L350 402 L350 359 L238 359 L238 58 Q254 63 298 74 Q336 84 359 91 L362 50 ZM124 297 Q149 209 159 105 L124 94 Q119 174 90 288 L124 297 ZM268 117 Q296 212 313 309 L349 291 Q309 134 298 102 L268 117 ZM956 -20 Q942 -41 939 -62 L826 -62 Q577 -62 468 89 Q421 -15 348 -73 Q335 -51 321 -40 Q397 19 440 130 Q399 203 373 303 L409 319 Q428 238 458 180 Q489 285 501 421 L366 421 Q418 531 486 711 L377 711 L377 755 L548 755 Q481 578 428 463 L512 463 L520 464 L544 459 Q529 258 485 133 Q586 -20 828 -20 L956 -20 Z" /><glyph glyph-name="uni9396" unicode="&#x9396;" d="M906 780 Q856 667 798 596 Q777 610 759 619 Q822 689 863 792 L906 780 ZM852 535 L522 535 L522 437 L852 437 L852 535 ZM852 397 L522 397 L522 299 L852 299 L852 397 ZM852 258 L522 258 L522 157 L852 157 L852 258 ZM654 577 L654 833 L699 833 L699 577 L898 577 L898 116 L477 116 L477 577 L654 577 ZM541 601 Q509 689 446 777 L485 793 Q553 697 582 619 L541 601 ZM431 591 Q370 655 260 740 Q179 621 67 534 Q51 566 38 579 Q189 687 265 838 L308 821 Q305 814 283 775 Q379 708 458 629 L431 591 ZM437 45 L79 -36 L65 8 Q97 14 240 44 L240 359 L73 359 L73 402 L240 402 L240 534 L132 534 L132 577 L405 577 L405 534 L284 534 L284 402 L431 402 L431 359 L284 359 L284 53 L434 86 L437 45 ZM129 296 Q163 208 175 104 L135 93 Q129 175 92 287 L129 296 ZM326 118 Q362 213 381 309 L423 294 Q380 155 359 105 L326 118 ZM647 80 Q577 -7 444 -77 Q428 -61 406 -47 Q536 15 603 94 L647 80 ZM769 94 Q893 13 960 -48 L916 -69 Q849 -4 735 73 L769 94 Z" /><glyph glyph-name="uni9501" unicode="&#x9501;" d="M899 775 Q831 647 792 592 L757 608 Q815 693 856 790 L899 775 ZM650 554 L650 840 L696 840 L696 554 L881 554 L881 99 L835 99 L835 508 L511 508 L511 98 L466 98 L466 554 L650 554 ZM547 596 Q518 680 448 776 L484 793 Q557 702 586 617 L547 596 ZM161 663 Q123 597 70 539 Q54 567 42 581 Q139 676 191 830 L234 818 Q217 770 187 708 L414 708 L414 663 L161 663 ZM395 102 Q401 75 407 62 Q215 -42 194 -63 Q186 -49 164 -29 Q218 9 218 65 L218 288 L78 288 L78 333 L218 333 L218 491 L115 491 L115 536 L389 536 L389 491 L263 491 L263 333 L410 333 L410 288 L263 288 L263 33 L395 102 ZM694 273 Q694 162 648 90 Q581 -13 407 -75 Q401 -60 379 -36 Q543 17 605 111 Q647 174 647 272 L647 445 L694 445 L694 273 ZM698 96 Q855 32 950 -34 L920 -72 Q831 -6 669 65 L698 96 Z" /><glyph glyph-name="uni952E" unicode="&#x952e;" d="M763 608 L862 608 L862 705 L763 705 L763 608 ZM862 567 L763 567 L763 473 L862 473 L862 567 ZM721 567 L556 567 L556 608 L721 608 L721 705 L595 705 L595 746 L721 746 L721 833 L763 833 L763 746 L903 746 L903 608 L957 608 L957 567 L903 567 L903 432 L763 432 L763 340 L909 340 L909 298 L763 298 L763 200 L928 200 L928 158 L763 158 L763 20 L721 20 L721 158 L552 158 L552 200 L721 200 L721 298 L582 298 L582 340 L721 340 L721 432 L595 432 L595 473 L721 473 L721 567 ZM138 664 Q105 588 71 542 Q62 562 44 580 Q111 670 148 830 L190 820 Q177 764 155 708 L333 708 L333 664 L138 664 ZM330 111 Q341 80 345 74 Q172 -41 159 -58 L159 -54 Q158 -56 158 -58 Q149 -40 131 -24 Q178 14 178 64 L178 289 L55 289 L55 333 L178 333 L178 492 L96 492 L96 536 L309 536 L309 492 L221 492 L221 333 L338 333 L338 289 L221 289 L221 43 L330 111 ZM959 -20 Q948 -35 941 -63 L825 -63 Q573 -63 460 81 Q412 -16 336 -72 Q320 -50 303 -41 Q382 17 432 121 Q387 194 357 303 L394 319 Q417 234 451 169 Q490 269 507 421 L359 421 Q413 529 484 712 L356 712 L356 755 L548 755 Q482 587 424 463 L519 463 L528 464 L554 456 Q535 259 481 124 Q587 -20 828 -20 L959 -20 Z" /><glyph glyph-name="uni958B" unicode="&#x958b;" d="M144 745 L144 647 L404 647 L404 745 L144 745 ZM404 501 L404 608 L144 608 L144 501 L404 501 ZM144 460 L144 -74 L97 -74 L97 786 L451 786 L451 460 L144 460 ZM579 222 L579 349 L413 349 L413 222 L579 222 ZM624 179 L624 -58 L579 -58 L579 179 L412 179 Q400 17 272 -66 Q255 -47 237 -35 Q356 36 368 179 L228 179 L228 222 L369 222 L369 349 L248 349 L248 392 L747 392 L747 349 L624 349 L624 222 L770 222 L770 179 L624 179 ZM862 501 L862 608 L594 608 L594 501 L862 501 ZM594 745 L594 647 L862 647 L862 745 L594 745 ZM909 0 Q909 -51 874 -63 Q845 -72 724 -72 Q720 -45 707 -21 Q804 -24 840 -22 Q862 -21 862 0 L862 460 L547 460 L547 786 L909 786 L909 0 Z" /><glyph glyph-name="uni95DC" unicode="&#x95dc;" d="M420 202 L460 202 L460 115 Q460 52 436 15 Q403 -35 319 -66 Q309 -47 291 -34 Q384 -6 410 54 L267 54 L267 188 L305 188 L305 90 L419 90 Q420 99 420 116 L420 202 ZM140 532 L401 532 L401 619 L140 619 L140 532 ZM140 748 L140 657 L401 657 L401 748 L140 748 ZM424 325 Q463 265 486 217 L456 202 L438 237 Q255 222 230 213 Q228 227 218 253 Q238 254 271 281 Q299 300 343 343 Q252 337 236 331 Q231 353 223 371 Q239 372 257 389 Q310 447 334 493 L140 493 L140 -74 L94 -74 L94 787 L447 787 L447 493 L337 493 L374 476 Q332 416 289 374 L378 378 Q411 413 425 432 L460 410 Q368 313 296 260 L421 269 Q403 301 394 314 L424 325 ZM693 187 L731 187 L731 21 L693 21 L693 54 L575 54 L575 -57 L535 -57 L535 202 L575 202 L575 90 L693 90 L693 187 ZM866 532 L866 619 L596 619 L596 532 L866 532 ZM596 748 L596 657 L866 657 L866 748 L596 748 ZM913 -4 Q913 -51 884 -63 Q861 -72 760 -72 Q754 -44 743 -23 Q827 -25 849 -23 Q866 -23 866 -5 L866 493 L615 493 L650 475 Q610 417 567 374 L655 378 Q677 401 702 433 L737 410 Q648 316 573 260 L696 268 L669 313 L698 325 Q742 260 762 217 L731 202 Q722 222 714 237 Q529 221 508 213 Q503 236 495 252 Q516 255 549 281 Q573 299 620 343 Q528 337 514 331 Q497 377 500 371 Q516 372 533 389 Q578 430 612 493 L550 493 L550 787 L913 787 L913 -4 Z" /><glyph glyph-name="uni9632" unicode="&#x9632;" d="M654 666 Q641 721 605 817 L649 827 Q689 721 699 680 L654 666 ZM380 772 Q332 648 265 505 Q371 395 371 273 Q371 188 333 164 Q311 149 282 146 Q245 143 207 146 Q205 172 192 191 Q220 189 265 189 Q286 190 302 200 Q326 216 326 277 Q326 388 217 498 Q270 613 319 746 L135 746 L135 -73 L89 -73 L89 791 L340 791 L348 793 L380 772 ZM588 614 Q585 519 578 443 L884 443 L884 417 Q865 -6 829 -46 Q807 -70 766 -73 Q729 -76 625 -70 Q623 -43 611 -22 Q671 -28 750 -28 Q777 -29 788 -17 Q820 18 835 398 L574 398 Q534 51 319 -71 Q311 -58 285 -37 Q437 46 494 233 Q532 359 540 614 L363 614 L363 660 L945 660 L945 614 L588 614 Z" /><glyph glyph-name="uni9664" unicode="&#x9664;" d="M712 820 L689 784 Q787 648 966 544 Q947 529 933 506 Q769 612 666 749 Q546 586 382 494 Q365 517 349 528 Q558 640 670 837 L712 820 ZM353 774 Q297 645 232 516 Q345 411 345 294 Q345 213 306 187 Q286 173 253 168 Q216 165 176 168 Q174 192 162 213 Q202 207 237 211 Q262 213 275 221 Q301 238 301 297 Q299 405 184 510 Q244 627 291 747 L131 747 L131 -71 L86 -71 L86 792 L314 792 L322 795 L353 774 ZM529 209 Q464 77 382 -11 Q361 8 344 16 Q428 101 486 221 L529 209 ZM690 290 L690 -9 Q690 -53 657 -65 Q629 -74 514 -74 Q511 -60 495 -28 Q591 -31 624 -29 Q643 -28 643 -10 L643 290 L367 290 L367 336 L643 336 L643 481 L469 481 L469 525 L858 525 L858 481 L690 481 L690 336 L950 336 L950 290 L690 290 ZM803 232 Q907 113 957 22 L916 -2 Q869 93 764 212 L803 232 Z" /><glyph glyph-name="uni96F2" unicode="&#x96f2;" d="M132 452 L87 452 L87 660 L473 660 L473 750 L135 750 L135 791 L865 791 L865 750 L520 750 L520 660 L914 660 L914 452 L868 452 L868 619 L520 619 L520 364 L473 364 L473 619 L132 619 L132 452 ZM170 429 L412 429 L412 390 L170 390 L170 429 ZM411 544 L411 506 L191 506 L191 544 L411 544 ZM170 312 L824 312 L824 271 L170 271 L170 312 ZM836 390 L583 390 L583 429 L836 429 L836 390 ZM806 544 L806 506 L583 506 L583 544 L806 544 ZM396 140 Q327 59 252 -2 L750 21 Q699 70 635 116 L673 138 Q815 38 888 -53 L846 -79 Q833 -60 792 -17 Q206 -49 177 -59 Q170 -33 160 -10 Q177 -8 214 20 Q265 60 331 140 L59 140 L59 182 L941 182 L941 140 L396 140 Z" /><glyph glyph-name="uni96FB" unicode="&#x96fb;" d="M472 631 L132 631 L132 481 L86 481 L86 670 L472 670 L472 745 L138 745 L138 786 L858 786 L858 745 L519 745 L519 670 L912 670 L912 480 L866 480 L866 631 L519 631 L519 387 L472 387 L472 631 ZM580 461 L832 461 L832 424 L580 424 L580 461 ZM811 564 L811 526 L580 526 L580 564 L811 564 ZM171 461 L414 461 L414 424 L171 424 L171 461 ZM413 564 L413 526 L191 526 L191 564 L413 564 ZM471 107 L471 191 L216 191 L216 107 L471 107 ZM216 312 L216 228 L471 228 L471 312 L216 312 ZM787 312 L518 312 L518 228 L787 228 L787 312 ZM787 107 L787 191 L518 191 L518 107 L787 107 ZM839 -20 Q880 -20 892 3 Q904 25 908 108 Q926 95 952 89 Q946 -4 926 -33 Q904 -64 841 -64 L597 -64 Q522 -64 497 -48 Q471 -31 471 21 L471 67 L216 67 L216 7 L169 7 L169 351 L834 351 L834 67 L518 67 L518 20 Q518 -5 532 -12 Q546 -20 596 -20 L839 -20 Z" /><glyph glyph-name="uni9700" unicode="&#x9700;" d="M133 485 L88 485 L88 674 L475 674 L475 746 L139 746 L139 788 L859 788 L859 746 L522 746 L522 674 L914 674 L914 484 L867 484 L867 635 L522 635 L522 384 L475 384 L475 635 L133 635 L133 485 ZM582 462 L839 462 L839 424 L582 424 L582 462 ZM813 567 L813 529 L582 529 L582 567 L813 567 ZM413 529 L191 529 L191 567 L413 567 L413 529 ZM170 462 L413 462 L413 424 L170 424 L170 462 ZM517 308 Q488 231 484 222 L874 222 L874 -22 Q874 -62 848 -72 Q824 -81 737 -81 Q733 -60 720 -35 Q766 -36 813 -36 Q827 -35 827 -22 L827 179 L643 179 L643 -69 L598 -69 L598 179 L419 179 L419 -69 L374 -69 L374 179 L199 179 L199 -77 L152 -77 L152 222 L439 222 Q456 267 468 308 L72 308 L72 350 L928 350 L928 308 L517 308 Z" /><glyph glyph-name="uni2FB4" unicode="&#x2fb4;&#x9801;" d="M784 581 L235 581 L235 470 L784 470 L784 581 ZM784 428 L235 428 L235 316 L784 316 L784 428 ZM784 275 L235 275 L235 160 L784 160 L784 275 ZM441 623 Q457 671 471 732 L84 732 L84 778 L910 778 L910 732 L523 732 L488 623 L834 623 L834 119 L186 119 L186 623 L441 623 ZM414 68 Q283 -17 82 -74 Q68 -54 48 -36 Q253 18 366 96 L414 68 ZM617 93 Q815 27 939 -38 L904 -75 Q778 -7 588 59 L617 93 Z" /><glyph glyph-name="uni2EDA" unicode="&#x2eda;&#x9875;" d="M478 470 L526 470 L526 287 Q526 164 455 91 Q355 -14 85 -73 Q77 -55 58 -32 Q317 21 412 116 Q478 180 478 288 L478 470 ZM579 152 Q794 56 917 -38 L887 -76 Q764 17 551 120 L579 152 ZM929 774 L929 728 L528 728 Q490 640 464 591 L821 591 L821 125 L771 125 L771 545 L234 545 L234 125 L186 125 L186 591 L413 591 Q445 650 472 728 L79 728 L79 774 L929 774 Z" /><glyph glyph-name="uni2FBA" unicode="&#x2fba;&#x99ac;" d="M46 -38 Q131 32 163 195 L205 183 Q168 4 84 -65 L46 -38 ZM349 175 Q375 79 381 -20 L336 -29 Q334 59 307 167 L349 175 ZM518 185 Q567 86 582 11 L541 -4 Q524 80 478 175 L518 185 ZM222 291 L485 291 L485 410 L222 410 L222 291 ZM222 733 L222 614 L485 614 L485 733 L222 733 ZM485 571 L222 571 L222 453 L485 453 L485 571 ZM922 291 L920 266 Q900 -11 861 -52 Q840 -73 798 -74 Q750 -76 670 -71 Q668 -48 655 -28 Q711 -33 784 -33 Q812 -33 821 -24 Q853 5 871 246 L174 246 L175 291 L175 778 L866 778 L866 733 L532 733 L532 614 L827 614 L827 571 L532 571 L532 453 L827 453 L827 410 L532 410 L532 291 L922 291 ZM737 50 Q710 111 640 189 L674 209 Q744 137 773 74 L737 50 Z" /><glyph glyph-name="uni2EE2" unicode="&#x2ee2;&#x9a6c;" d="M707 149 L62 149 L62 195 L707 195 L707 149 ZM906 381 Q906 362 904 356 Q872 2 820 -47 Q797 -69 749 -72 Q657 -72 592 -67 Q590 -42 576 -20 Q646 -27 735 -27 Q769 -27 780 -17 Q826 26 854 335 L223 336 L206 336 Q226 470 238 632 L284 628 Q269 460 259 381 L682 381 Q701 514 721 720 L139 720 L139 767 L729 767 L738 771 L772 766 Q757 576 730 381 L906 381 Z" /><glyph glyph-name="uni2FBC" unicode="&#x2fbc;&#x9ad8;" d="M332 200 L332 85 L657 85 L657 200 L332 200 ZM701 45 L332 45 L332 -10 L286 -10 L286 239 L701 239 L701 45 ZM895 -12 Q895 -48 869 -58 Q847 -65 750 -65 Q745 -46 733 -27 Q811 -29 832 -27 Q848 -27 848 -13 L848 311 L152 311 L152 -73 L105 -73 L105 354 L895 354 L895 -12 ZM731 571 L274 571 L274 459 L731 459 L731 571 ZM780 611 L780 419 L226 419 L226 611 L780 611 ZM933 722 L933 678 L64 678 L64 722 L488 722 Q470 787 455 825 L497 834 Q512 795 535 722 L933 722 Z" /><glyph glyph-name="uni9B45" unicode="&#x9b45;" d="M699 419 Q626 237 529 150 Q520 168 504 190 Q606 281 671 449 L503 449 L503 493 L699 493 L699 636 L536 636 L536 679 L699 679 L699 823 L744 823 L744 679 L914 679 L914 636 L744 636 L744 493 L939 493 L939 449 L769 449 Q848 272 957 191 Q937 176 922 156 Q820 245 744 416 L744 68 L699 68 L699 419 ZM464 149 Q457 172 436 219 L466 228 Q504 150 516 91 L485 79 Q482 95 474 120 Q356 102 344 95 Q340 113 332 133 Q344 135 357 164 Q395 251 405 314 L443 302 Q422 218 384 140 L464 149 ZM234 387 Q242 450 244 517 L121 517 L121 387 L234 387 ZM121 556 L245 556 L245 685 L121 685 L121 556 ZM422 685 L288 685 L288 556 L422 556 L422 685 ZM422 517 L288 517 Q284 442 277 387 L422 387 L422 517 ZM271 345 Q232 92 81 -74 Q60 -53 47 -44 Q189 114 228 345 L79 345 L79 727 L232 727 Q255 782 269 835 L315 826 L296 775 Q285 744 277 727 L465 727 L465 345 L271 345 ZM827 -17 Q878 -17 894 0 Q909 17 914 75 Q932 63 957 59 Q950 -13 927 -35 Q902 -58 828 -58 L450 -58 Q350 -58 317 -41 Q283 -24 283 31 L283 307 L326 307 L326 32 Q326 3 348 -7 Q371 -17 444 -17 L827 -17 Z" /><glyph glyph-name="uniFF0C" unicode="&#xff0c;" d="M119 -52 Q238 3 243 112 Q233 109 222 109 Q160 109 160 170 Q160 231 222 231 Q294 231 294 129 Q294 -27 136 -89 L119 -52 Z" /><glyph glyph-name="uniFF1F" unicode="&#xff1f;" d="M207 232 Q187 327 289 424 Q352 485 362 498 Q397 540 397 580 Q397 638 363 673 Q325 712 254 712 Q159 712 70 618 L34 652 Q142 762 259 762 Q350 762 404 712 Q456 663 456 584 Q456 511 346 409 Q244 314 261 232 L207 232 ZM171 65 Q171 95 191 114 Q209 131 237 131 Q264 131 283 114 Q303 95 303 65 Q303 34 283 15 Q264 -2 237 -2 Q209 -2 191 15 Q171 34 171 65 Z" /><glyph glyph-name="quotedblleft" unicode="&#x201c;" d="M769 810 Q682 765 682 682 Q695 693 713 693 Q771 693 771 633 Q771 611 756 594 Q739 574 710 574 Q679 574 658 598 Q636 623 636 661 Q636 720 673 772 Q706 818 753 839 L769 810 ZM954 810 Q868 765 866 682 Q881 693 898 693 Q924 693 940 676 Q956 659 956 633 Q956 611 941 594 Q923 574 894 574 Q864 574 843 598 Q821 624 821 661 Q821 721 857 772 Q890 818 938 839 L954 810 Z" /><glyph glyph-name="quotedblright" unicode="&#x201d;" d="M231 601 Q318 648 318 729 Q306 719 287 719 Q261 719 245 736 Q229 753 229 778 Q229 801 244 818 Q261 838 290 838 Q321 838 342 814 Q364 789 364 751 Q364 692 327 640 Q294 594 247 572 L231 601 ZM46 601 Q132 648 134 729 Q121 719 102 719 Q76 719 60 736 Q44 753 44 778 Q44 801 59 818 Q77 838 106 838 Q136 838 157 814 Q179 788 179 751 Q179 691 143 640 Q110 594 62 572 L46 601 Z" /></font>
</defs>
</svg>
