<?xml version="1.0" encoding="utf-8"?>
<!-- Generator: Adobe Illustrator 19.2.1, SVG Export Plug-In . SVG Version: 6.00 Build 0)  -->
<svg version="1.1" id="图层_1" xmlns="http://www.w3.org/2000/svg" xmlns:xlink="http://www.w3.org/1999/xlink" x="0px" y="0px"
	 viewBox="0 0 1024 228.9" style="enable-background:new 0 0 1024 228.9;" xml:space="preserve">
<g>
	<path d="M647,73.8h88.8c1.1,0,1.9-0.9,1.9-1.8v-8.9c0-1-0.8-1.8-1.8-1.8H647c-1,0-1.8,0.8-1.8,1.8V72C645.2,73,646,73.8,647,73.8z"
	 style="fill: #000;" 	/>
	<path d="M751.2,100.4c0-1-0.8-1.8-1.8-1.8H632.5c-1,0-1.8,0.8-1.8,1.8v9c0,1,0.8,1.8,1.8,1.8h39c-7.8,15.6-15.4,27.7-22.5,36.2
		c-5.9,7.6-8.3,8.9-9.1,9.1c-0.5,0.1-1,0.5-1.2,1s-0.2,1.1,0,1.6c1.3,2.8,2.4,5.9,3.3,9.4c0.1,0.5,0.5,1,1,1.2s1.1,0.2,1.6,0
		c1.6-0.7,14.6-2.7,84.4-8.9c2.8,4.7,5.4,9.1,7.6,13.2c0.2,0.4,0.6,0.8,1.1,0.9c0.2,0.1,0.3,0.1,0.5,0.1c0.4,0,0.7-0.1,1-0.3
		l8.1-4.9c0.8-0.5,1.1-1.5,0.7-2.4c-6.2-12.1-16.7-27.8-31.2-46.8c-0.5-0.7-1.5-0.9-2.3-0.5l-8,4.1c-0.5,0.2-0.9,0.7-1,1.2
		c-0.1,0.5,0,1.1,0.3,1.5c5,6.7,10.3,14.2,15.7,22.4l-61.7,4.8c9.8-12.2,19.1-26.7,27.9-43.1h61.8c1,0,1.9-0.8,1.7-1.6V100.4z" style="fill: #000;"/>
	<path d="M889,164.7c-7.6-3.8-14.7-9.3-21.2-16.5c8.7-12.5,14.8-27.3,18.2-44.1c0.2-0.9-0.3-1.8-1.2-2.1l-5.2-1.9
		c-0.4-0.1-0.7-0.2-1-0.1l-1.1,0.2h-42.1V67.6h34.7V83c0,0-0.2,0.2-0.9,0.2c-2.6,0.2-8.3,0.2-16.9-0.1c-0.8,0.1-1.3,0.4-1.6,0.9
		c-0.4,0.5-0.4,1.2-0.1,1.8c1.5,2.9,2.4,5.3,2.7,7.1c0.1,0.9,0.9,1.5,1.8,1.5c11.2,0,18.1-0.4,21-1.4c2.8-1,6.1-3.6,6.1-10.1V57.5
		c0-1-0.8-1.8-1.8-1.8h-55.2c-1,0-1.8,0.8-1.8,1.8v115.3c0,1,0.8,1.8,1.8,1.8h8.4c1,0,1.8-0.8,1.8-1.8v-4c1,1.2,1.9,2.5,2.6,3.9
		c0.2,0.4,0.6,0.8,1.1,0.9c0.4,0.1,1,0.1,1.4-0.2c7.1-4.2,13.8-9.6,19.7-16.1c6.8,7.5,13.9,13.3,21.2,17.2c0.3,0.1,0.6,0.2,0.9,0.2
		c0.7,0,1.3-0.4,1.6-0.9c1.7-2.8,3.5-4.9,5.4-6.1c0.5-0.4,0.8-1,0.7-1.6C889.9,165.5,889.6,165,889,164.7z M835.3,162.6v-50.8h0.6
		c4.5,14,10.3,26.1,17.1,35.9C847.5,153.9,841.6,158.9,835.3,162.6z M860.3,138c-5.3-7.9-9.5-16.7-12.7-26.2h24.5
		C869.4,121.2,865.4,130,860.3,138z" style="fill: #000;"/>
	<path d="M1010.1,123.9h-45.9c0.7-2.9,1.4-6.5,2-10.6c0.1-0.5-0.1-1-0.4-1.4s-0.8-0.7-1.3-0.7l-9.2-0.8c-1-0.1-1.9,0.6-2,1.6
		c-0.4,4.1-1.2,8.1-2.2,11.9h-38.4c-1,0-1.8,0.8-1.8,1.8v7.8c0,1,0.8,1.8,1.8,1.8h34.4c-7.3,14.3-22.1,23.7-44.2,27.8
		c-0.6,0.1-1.1,0.5-1.1,1.4c-0.3,0.6-0.1,1.3,0.3,1.8c2.1,2.4,3.6,4.7,4.5,7c0.3,0.8,1,1.2,1.7,1.2c0.1,0,0.3-0.1,0.4-0.1
		c26.5-6.3,44-19.4,52-38.9h37.8c-2.3,18.3-5.1,24.1-7.1,25.8c-0.4,0.3-1.5,0.9-4.5,0.9c-6.7,0-13.3-0.3-19.5-0.9
		c-0.7,0-1.3,0.3-1.7,0.9c-0.4,0.6-0.4,1.3,0,1.9c1.3,2.2,2.2,4.6,2.5,7.1c0.1,0.9,0.8,1.6,1.7,1.6c8.3,0.4,14.8,0.6,19.4,0.4
		c4.9-0.1,8.7-1.4,11.4-3.9c2.8-2.5,7.1-9.3,10.8-39.1c0.2-0.9,0.3-2.3,0.4-4.3c0-0.5-0.2-1-0.5-1.4
		C1011.1,124.1,1010.6,123.9,1010.1,123.9z" style="fill: #000;"/>
	<path d="M1023.8,104.7c-0.3-0.6-0.9-1.1-1.6-1.1c-17.3-1.2-32.1-3.5-44.1-6.9c14.3-7.4,25-16.4,31.9-26.7c0.5-0.8,0.3-1.9-0.5-2.5
		l-5.3-3.7c-0.4-0.3-1-0.4-1.5-0.3l-1.4,0.3h-50.4c2.2-2.8,4.4-5.9,6.5-9.2c0.3-0.5,0.3-1.1,0.1-1.7c-0.2-0.6-0.7-1-1.3-1.1
		l-9.3-1.9c-0.7-0.1-1.5,0.2-1.9,0.9c-8.2,13.8-20.9,25.4-37.9,34.5c-0.6,0.3-1,0.9-1,1.5c0,0.6,0.3,1.2,0.8,1.6
		c1.8,1.3,3.5,3.2,5,5.8c0.5,0.9,1.6,1.2,2.5,0.7c5.7-3.2,11.6-7.1,17.7-11.9c4.4,5,9.9,9.5,16.4,13.5c-14.4,4.5-30.2,7.5-47,9
		c-0.7,0.1-1.2,0.5-1.5,1.1s-0.2,1.3,0.2,1.8c1.6,2.1,2.7,4.5,3.3,7.2c0.2,0.8,1,1.4,1.8,1.4c0,0,0.1,0,0.2,0
		c22-2.7,41.3-7.2,57.2-13.3c14.6,5.9,32.9,9.8,54.3,11.6c0.9,0.1,1.6-0.4,1.9-1.1c1.2-2.8,2.7-5.3,4.6-7.4
		C1024,106.3,1024.1,105.6,1023.8,104.7z M940.6,75.7l0.4-0.4h49.3c-6.7,6.2-15.9,11.7-27.2,16.3C953.4,87.4,945.8,82.1,940.6,75.7z
		" style="fill: #000;"/>
	<path d="M812.7,55.2h-37.8c-1,0-1.8,0.8-1.8,1.8v47.2c0,29.2-3.2,50.6-9.6,63.6c-0.2,0.4-0.2,1,0,1.5c0.2,0.5,0.6,0.8,1.1,1
		c2.5,0.8,4.7,2.1,6.4,3.8c0.3,0.3,0.8,0.5,1.3,0.5c0.1,0,0.2,0,0.3,0c0.6-0.1,1.1-0.5,1.4-1c5.1-10.2,8.4-24.9,10-43.8h18.6v31.9
		c0,0.7-0.1,0.8-0.7,0.8c-7.1,0-11.5,0-13.6-0.1c-0.7-0.1-1.2,0.3-1.6,0.8c-0.3,0.5-0.4,1.2-0.1,1.8c1.3,2.7,2.2,5.4,2.5,7.9
		c0.1,0.9,0.9,1.6,1.8,1.6c12.8,0,16.6-1,18.2-1.8c3.6-1.8,5.4-5.5,5.4-10.9V57C814.5,56,813.7,55.2,812.7,55.2z M802.6,117.8h-17.9
		c0.1-6.2,0.2-10.8,0.2-13.6v-6.1h17.7V117.8z M802.6,86.2h-17.7V67.1h17.7V86.2z" style="fill: #000;"/>
	<path d="M407.4,47.2c-14.4,0.2-26.2,6.4-34,17.6c-6.1-11.1-16.8-17.6-30.2-17.6c-11.9,0-22.2,4.7-29.9,13.6l-0.3-6.7
		c-0.1-2.5-2.2-4.5-4.7-4.5h-16.1c-1.3,0-2.5,0.5-3.4,1.5c-0.9,0.9-1.3,2.2-1.3,3.5c0.7,9.9,1,20.3,1.1,30.9l0.1,86.1
		c0,2.6,2.1,4.7,4.7,4.7h17.9c1.2,0,2.4-0.5,3.3-1.4c0.9-0.9,1.4-2.1,1.4-3.3v-65.1c0-12.2,3.7-22.3,10.5-29.2
		c3.5-3.5,7.4-5.4,11.1-5.4c8.5,0,12.8,4.2,14.8,14.5c0.7,3.9,1.1,9.6,1.1,14l0,71.2c0,2.6,2.1,4.7,4.7,4.7h17.7
		c1.2,0,2.4-0.5,3.3-1.4c0.9-0.9,1.4-2.1,1.4-3.3v-65.1c-0.1-12.2,3.5-22.9,9.9-29.3c3.5-3.5,7.3-5.3,11.3-5.3
		c8.6,0,13.1,4.4,15.1,14.8c0.7,3.9,1.4,9.8,1.3,13.8v71.2c0,2.6,2.1,4.7,4.7,4.7h17.9c1.2,0,2.4-0.5,3.3-1.4
		c0.9-0.9,1.4-2.1,1.4-3.3V98c0-6.1-0.8-13.5-1.9-19C439.1,57.1,422.3,47.2,407.4,47.2z" style="fill: #000;"/>
	<path d="M270.9,47.2h-21.4c-1.9,0-3.7,1.3-4.1,3.2l-17.4,65.7c-1.7,5.9-3,10.9-4,15.3c-1.9-5.4-4.1-11.1-6.7-17.8L193.3,50
		c-0.6-1.7-2.2-2.8-4-2.8h-20.9c-1.4,0-2.8,0.7-3.6,1.9c-0.8,1.2-1,2.7-0.4,4L209,163.6c0.5,1.6,0.5,2.1,0.3,2.6
		c-3.6,9.8-9.5,19.1-16.4,25.3c-3.2,3-7.1,5.6-11.9,7.9c-1.2,0.6-2,1.6-2.3,2.8c-0.3,1.2,0,2.6,0.7,3.6l12.1,16.1
		c0.8,1.1,2.1,1.7,3.4,1.7c0.7,0,1.3-0.2,2-0.5c5.7-2.9,14.1-8.3,21.3-17.5c13.5-16.1,21.7-37,29.7-63.4l27-89.6
		c0.4-1.3,0.1-2.7-0.7-3.8C273.5,47.8,272.2,47.2,270.9,47.2z" style="fill: #000;"/>
	<path d="M104.2,2.8H49.5c-27,0-48.8,21.9-48.8,48.8v118.6c0,3.3,2.7,6,6,6h15c3.3,0,6-2.7,6-6v-67.3h67.1c3.3,0,6-2.7,6-6V82
		c0-3.3-2.7-6-6-6H27.6V51.7c0-12.1,9.8-21.9,21.9-21.9h54.7c3.3,0,6-2.7,6-6v-15C110.2,5.5,107.5,2.8,104.2,2.8z" style="fill: #000;"/>
	<path d="M144.6,2.7h-15c-3.3,0-6,2.7-6,6v161.6c0,3.3,2.7,6,6,6h15c3.3,0,6-2.7,6-6V8.7C150.6,5.4,147.9,2.7,144.6,2.7z" style="fill: #000;"/>
	<path d="M559.2,63.1c-4.3-5.3-9.9-9.6-16.6-12.7c-6.7-3.1-14.8-4.7-24.1-4.7c-8.7,0-16.8,1.6-23.9,4.7c-7.2,3.2-13.4,7.8-18.4,13.7
		c-5,5.9-8.9,13.1-11.6,21.4c-2.6,8.2-3.9,17.6-3.9,27.9c0,17.6,7.4,64.7,63.9,64.7c20,0,35-6.7,42.1-10.6c2.6-1.4,3.7-4.6,2.6-7.4
		l-4-10.1c-1.2-3.1-4.7-4.6-7.7-3.4c-6.8,2.7-19.3,6.8-33,6.8c-31.5,0-36.3-28-36.5-32.6h72c3,0,5.7-1,8-3c2.5-2.1,3.8-5.5,3.8-10
		V104c0-7.8-1-15.3-3-22.3C566.7,74.7,563.5,68.4,559.2,63.1z M488,97.9c0.5-9.9,7.9-28.2,30.3-28.2c21.7,0,27.6,19,27.6,28.2H488z" style="fill: #000;"
		/>
</g>
</svg>
